<?xml version="1.0" encoding="UTF-8"?>
<svg width="300px" height="165px" viewBox="0 0 300 165" version="1.1" xmlns="http://www.w3.org/2000/svg" xmlns:xlink="http://www.w3.org/1999/xlink">
    <title>No AWS found</title>
    <defs>
        <linearGradient x1="50%" y1="50%" x2="52.9793104%" y2="51.386177%" id="linearGradient-1">
            <stop stop-color="#FFFFFF" stop-opacity="0.7" offset="0%"></stop>
            <stop stop-color="#FFFFFF" stop-opacity="0" offset="100%"></stop>
        </linearGradient>
        <path d="M40,6 L214,6 C216.761424,6 219,8.23857625 219,11 L219,129 L219,129 L35,129 L35,11 C35,8.23857625 37.2385763,6 40,6 Z" id="path-2"></path>
        <linearGradient x1="50%" y1="49.8604439%" x2="50%" y2="50.731762%" id="linearGradient-3">
            <stop stop-color="#000000" stop-opacity="0" offset="0%"></stop>
            <stop stop-color="#000000" stop-opacity="0.07" offset="100%"></stop>
        </linearGradient>
        <path d="M1.25,18 C1.25,18.6627417 1.80964406,19.2 2.5,19.2 L5,19.2 L5,22.8 C5,23.4627417 5.55964406,24 6.25,24 L13.75,24 C14.4403559,24 15,23.4627417 15,22.8 L15,19.2 L17.5,19.2 C18.1903559,19.2 18.75,18.6627417 18.75,18 L18.75,9.6 L20,9.6 L20,7.2 L15,7.2 L15,0 L12.5,0 L12.5,7.2 L7.5,7.2 L7.5,0 L5,0 L5,7.2 L0,7.2 L0,9.6 L1.25,9.6 L1.25,18 Z" id="path-4"></path>
    </defs>
    <g id="No-AWS-found" stroke="none" stroke-width="1" fill="none" fill-rule="evenodd">
        <g id="Base" transform="translate(23, 15)">
            <path d="M225,103 L238,103 C245.179702,103 251,108.820298 251,116 C251,123.179702 245.179702,129 238,129 L225,129 L225,129" id="Path-5" stroke="#222222" stroke-width="1.4" stroke-linejoin="round"></path>
            <path d="M38.8461538,0 L214.846154,0 C220.369001,-1.01453063e-15 224.846154,4.4771525 224.846154,10 L224.846154,140 L224.846154,140 L28.8461538,140 L28.8461538,10 C28.8461538,4.4771525 33.3233063,1.01453063e-15 38.8461538,0 Z" id="Rectangle" stroke="#222222" stroke-width="1.4" fill="#FFFFFF" stroke-linejoin="round"></path>
            <g id="Rectangle">
                <use fill="#D0E7FD" xlink:href="#path-2"></use>
                <use fill="url(#linearGradient-1)" xlink:href="#path-2"></use>
            </g>
            <path d="M0,139 L254,139 L254,141 C254,145.418278 250.418278,149 246,149 L8,149 C3.581722,149 5.41083001e-16,145.418278 0,141 L0,139 L0,139 Z" id="Rectangle" stroke="#222222" stroke-width="1.4" fill="#FFFFFF" stroke-linejoin="round"></path>
            <path d="M189,111.087912 C190.577956,111.087912 191.857143,112.367099 191.857143,113.945055 L191.857143,116.142857 C191.857143,117.720814 190.577956,119 189,119 C187.422044,119 186.142857,117.720814 186.142857,116.142857 L186.142857,113.945055 C186.142857,112.367099 187.422044,111.087912 189,111.087912 Z M171.857143,95.9230769 C173.435099,95.9230769 174.714286,97.2022634 174.714286,98.7802198 L174.714286,116.142857 C174.714286,117.720814 173.435099,119 171.857143,119 C170.279186,119 169,117.720814 169,116.142857 L169,98.7802198 C169,97.2022634 170.279186,95.9230769 171.857143,95.9230769 Z M206.142857,95.9230769 C207.720814,95.9230769 209,97.2022634 209,98.7802198 L209,116.142857 C209,117.720814 207.720814,119 206.142857,119 C204.564901,119 203.285714,117.720814 203.285714,116.142857 L203.285714,98.7802198 C203.285714,97.2022634 204.564901,95.9230769 206.142857,95.9230769 Z M197.571429,103.835165 C199.149385,103.835165 200.428571,105.114351 200.428571,106.692308 L200.428571,116.142857 C200.428571,117.720814 199.149385,119 197.571429,119 C195.993472,119 194.714286,117.720814 194.714286,116.142857 L194.714286,106.692308 C194.714286,105.114351 195.993472,103.835165 197.571429,103.835165 Z M180.428571,89 C182.006528,89 183.285714,90.2791864 183.285714,91.8571429 L183.285714,116.142857 C183.285714,117.720814 182.006528,119 180.428571,119 C178.850615,119 177.571429,117.720814 177.571429,116.142857 L177.571429,91.8571429 C177.571429,90.2791864 178.850615,89 180.428571,89 Z" id="Rectangle-Copy-6" fill="#FFFFFF"></path>
        </g>
        <g id="X" transform="translate(0, 14)">
            <g id="BAse">
                <circle id="Oval" fill="#95A3BF" opacity="0.25" cx="35" cy="35" r="35"></circle>
                <path d="M35,10 C48.8071187,10 60,21.1928813 60,35 C60,48.8071187 48.8071187,60 35,60 C21.1928813,60 10,48.8071187 10,35 C10,21.1928813 21.1928813,10 35,10 Z M35,19.8837209 C26.6515096,19.8837209 19.8837209,26.6515096 19.8837209,35 C19.8837209,43.3484904 26.6515096,50.1162791 35,50.1162791 C43.3484904,50.1162791 50.1162791,43.3484904 50.1162791,35 C50.1162791,26.6515096 43.3484904,19.8837209 35,19.8837209 Z" id="Oval-3" fill="#D2D7E3"></path>
                <path d="M25.9383632,25.9383632 C27.1895142,24.6872123 29.2180307,24.6872123 30.4691816,25.9383632 L35,30.469 L39.5308184,25.9383632 C40.7819693,24.6872123 42.8104858,24.6872123 44.0616368,25.9383632 C45.3127877,27.1895142 45.3127877,29.2180307 44.0616368,30.4691816 L39.531,35 L44.0616368,39.5308184 C45.2664488,40.7356304 45.3110715,42.6612917 44.1955048,43.9195 L44.0616368,44.0616368 C42.8104858,45.3127877 40.7819693,45.3127877 39.5308184,44.0616368 L35,39.531 L30.4691816,44.0616368 C29.2180307,45.3127877 27.1895142,45.3127877 25.9383632,44.0616368 C24.6872123,42.8104858 24.6872123,40.7819693 25.9383632,39.5308184 L30.469,35 L25.9383632,30.4691816 C24.7335512,29.2643696 24.6889285,27.3387083 25.8044952,26.0805 Z" id="Rectangle-3" stroke="#222222" stroke-width="1.4" fill="#ED474A" stroke-linejoin="round"></path>
            </g>
            <g id="Top" transform="translate(24, 50)" stroke-linejoin="round">
                <g id="Path">
                    <use fill="#FFFFFF" xlink:href="#path-4"></use>
                    <use stroke="#222222" stroke-width="1.4" fill="url(#linearGradient-3)" xlink:href="#path-4"></use>
                </g>
                <path d="M10,24 L10,36 C10,45.9411255 18.0588745,54 28,54 L28,54 L28,54" id="Path-4" stroke="#222222" stroke-width="1.4"></path>
            </g>
        </g>
        <g id="Center-logo" transform="translate(82, 53)" fill="#95A3BF" fill-opacity="0.66" fill-rule="nonzero">
            <path d="M28.1809783,21.7908788 C28.1809783,23.025584 28.3140141,24.0266963 28.5468267,24.7608454 C28.8128983,25.4949944 29.1454878,26.2958843 29.6111131,27.163515 C29.7774078,27.4304783 29.8439257,27.6974416 29.8439257,27.9310345 C29.8439257,28.2647386 29.644372,28.5984427 29.2120057,28.9321468 L27.1166919,30.3337041 C26.8173614,30.5339266 26.5180308,30.6340378 26.2519592,30.6340378 C25.9193698,30.6340378 25.5867803,30.4671858 25.2541908,30.1668521 C24.7885655,29.6662959 24.3894581,29.1323693 24.0568686,28.5984427 C23.7242791,28.0311457 23.3916896,27.3971079 23.0258412,26.6295884 C20.4316432,29.6996663 17.1722662,31.2347052 13.2477102,31.2347052 C10.4539585,31.2347052 8.22560892,30.4338154 6.59592042,28.8320356 C4.96623193,27.2302558 4.1347582,25.0945495 4.1347582,22.4249166 C4.1347582,19.5884316 5.13252667,17.2858732 7.16132255,15.5506118 C9.19011844,13.8153504 11.8840933,12.9477197 15.309765,12.9477197 C16.4405693,12.9477197 17.6046325,13.0478309 18.8352136,13.214683 C20.0657947,13.381535 21.3296348,13.6484983 22.6599928,13.948832 L22.6599928,11.512792 C22.6599928,8.97664071 22.1278496,7.2080089 21.0968222,6.17352614 C20.0325358,5.13904338 18.2365525,4.63848721 15.6756135,4.63848721 C14.5115503,4.63848721 13.3142281,4.77196885 12.083647,5.07230256 C10.8530659,5.37263626 9.65574372,5.73971079 8.49168051,6.20689655 C7.95953733,6.44048943 7.56042994,6.57397108 7.3276173,6.6407119 C7.09480466,6.70745273 6.92850991,6.74082314 6.79547412,6.74082314 C6.32984883,6.74082314 6.09703619,6.40711902 6.09703619,5.70634038 L6.09703619,4.07119021 C6.09703619,3.53726363 6.16355409,3.13681869 6.32984883,2.90322581 C6.49614358,2.66963293 6.79547412,2.43604004 7.2610994,2.20244716 C8.42516261,1.60177976 9.82203847,1.10122358 11.451727,0.700778643 C13.0814155,0.266963293 14.8108808,0.0667408231 16.640123,0.0667408231 C20.5979379,0.0667408231 23.4914665,0.967741935 25.3539676,2.76974416 C27.1832098,4.57174638 28.1144604,7.30812013 28.1144604,10.9788654 L28.1144604,21.7908788 L28.1809783,21.7908788 Z M14.677845,26.8631813 C15.7753903,26.8631813 16.9061946,26.6629588 18.1035168,26.2625139 C19.3008389,25.862069 20.3651253,25.1279199 21.2631169,24.1268076 C21.7952601,23.4927697 22.1943675,22.7919911 22.3939212,21.9911012 C22.5934749,21.1902113 22.7265107,20.2224694 22.7265107,19.0878754 L22.7265107,17.6863181 C21.7620011,17.4527253 20.7309737,17.2525028 19.6666874,17.1190211 C18.602401,16.9855395 17.5713736,16.9187987 16.5403462,16.9187987 C14.3119966,16.9187987 12.6823081,17.352614 11.5847628,18.2536151 C10.4872174,19.1546162 9.95507426,20.4226919 9.95507426,22.0912125 C9.95507426,23.6596218 10.3541817,24.8275862 11.1856554,25.6284761 C11.9838701,26.4627364 13.1479334,26.8631813 14.677845,26.8631813 Z M41.384781,30.4671858 C40.7861199,30.4671858 40.3870125,30.3670745 40.1209409,30.1334816 C39.8548694,29.9332592 39.6220567,29.4660734 39.422503,28.8320356 L31.60665,3.03670745 C31.4070963,2.36929922 31.3073195,1.93548387 31.3073195,1.70189099 C31.3073195,1.1679644 31.5733911,0.867630701 32.1055343,0.867630701 L35.3649112,0.867630701 C35.9968313,0.867630701 36.4291976,0.967741935 36.6620103,1.20133482 C36.9280818,1.40155729 37.1276355,1.86874305 37.3271892,2.50278087 L42.9146927,24.5939933 L48.1030887,2.50278087 C48.2693834,1.83537264 48.4689371,1.40155729 48.7350087,1.20133482 C49.0010803,1.00111235 49.4667056,0.867630701 50.0653667,0.867630701 L52.7260826,0.867630701 C53.3580026,0.867630701 53.790369,0.967741935 54.0564405,1.20133482 C54.3225121,1.40155729 54.5553248,1.86874305 54.6883606,2.50278087 L59.9432745,24.8609566 L65.6970727,2.50278087 C65.8966264,1.83537264 66.129439,1.40155729 66.3622516,1.20133482 C66.6283232,1.00111235 67.0606896,0.867630701 67.6593507,0.867630701 L70.7524329,0.867630701 C71.2845761,0.867630701 71.5839066,1.13459399 71.5839066,1.70189099 C71.5839066,1.86874305 71.5506477,2.03559511 71.5173887,2.23581758 C71.4841298,2.43604004 71.4176119,2.70300334 71.2845761,3.07007786 L63.2691694,28.865406 C63.0696157,29.5328142 62.8368031,29.9666296 62.5707315,30.1668521 C62.3046599,30.3670745 61.8722935,30.5005562 61.3068914,30.5005562 L58.4466218,30.5005562 C57.8147018,30.5005562 57.3823354,30.4004449 57.1162638,30.1668521 C56.8501923,29.9332592 56.6173796,29.4994438 56.4843438,28.8320356 L51.3292067,7.30812013 L46.2073286,28.7986652 C46.0410339,29.4660734 45.8414802,29.8998888 45.5754086,30.1334816 C45.309337,30.3670745 44.8437117,30.4671858 44.2450506,30.4671858 L41.384781,30.4671858 Z M84.1225304,31.3681869 C82.393065,31.3681869 80.6635997,31.1679644 79.0006522,30.7675195 C77.3377048,30.3670745 76.0406058,29.9332592 75.1758731,29.432703 C74.6437299,29.1323693 74.2778815,28.7986652 74.1448457,28.4983315 C74.0118099,28.1979978 73.945292,27.8642937 73.945292,27.56396 L73.945292,25.862069 C73.945292,25.1612903 74.2113636,24.8275862 74.7102478,24.8275862 C74.9098015,24.8275862 75.1093552,24.8609566 75.3089089,24.9276974 C75.5084626,24.9944383 75.8077931,25.1279199 76.1403826,25.2614016 C77.2711869,25.7619577 78.501768,26.1624027 79.798867,26.429366 C81.129225,26.6963293 82.426324,26.8298109 83.7566819,26.8298109 C85.8519957,26.8298109 87.4816842,26.4627364 88.6124885,25.7285873 C89.7432927,24.9944383 90.3419538,23.9265851 90.3419538,22.5583982 C90.3419538,21.6240267 90.0426233,20.8565072 89.4439622,20.2224694 C88.8453011,19.5884316 87.7144969,19.0211346 86.0848084,18.487208 L81.2622608,16.9855395 C78.8343575,16.21802 77.0383743,15.083426 75.9408289,13.5817575 C74.8432836,12.1134594 74.2778815,10.4783092 74.2778815,8.74304783 C74.2778815,7.34149055 74.577212,6.10678532 75.1758731,5.03893215 C75.7745342,3.97107898 76.572749,3.03670745 77.5705174,2.3025584 C78.5682859,1.53503893 79.6990902,0.967741935 81.0294481,0.567296997 C82.3598061,0.166852058 83.7566819,0 85.2200757,0 C85.9517726,0 86.7167284,0.0333704116 87.4484253,0.133481646 C88.2133811,0.233592881 88.911819,0.367074527 89.6102569,0.500556174 C90.2754359,0.667408231 90.907356,0.834260289 91.506017,1.03448276 C92.1046781,1.23470523 92.5703034,1.4349277 92.9028929,1.63515017 C93.3685182,1.90211346 93.7011077,2.16907675 93.9006614,2.46941046 C94.1002151,2.73637375 94.1999919,3.10344828 94.1999919,3.57063404 L94.1999919,5.13904338 C94.1999919,5.83982202 93.9339203,6.20689655 93.4350361,6.20689655 C93.1689645,6.20689655 92.7365981,6.07341491 92.171196,5.80645161 C90.2754359,4.93882091 88.1468632,4.50500556 85.7854778,4.50500556 C83.8897177,4.50500556 82.393065,4.80533927 81.3620376,5.43937709 C80.3310102,6.07341491 79.798867,7.04115684 79.798867,8.40934372 C79.798867,9.34371524 80.1314565,10.1446051 80.7966355,10.7786429 C81.4618145,11.4126808 82.6923956,12.0467186 84.4551199,12.6140156 L89.1778906,14.1156841 C91.5725349,14.8832036 93.3020003,15.9510567 94.3330277,17.3192436 C95.3640551,18.6874305 95.8629393,20.2558398 95.8629393,21.9911012 C95.8629393,23.4260289 95.5636088,24.727475 94.9982067,25.862069 C94.3995456,26.996663 93.6013308,27.9977753 92.5703034,28.7986652 C91.539276,29.6329255 90.3086949,30.2335929 88.8785601,30.6674082 C87.3819074,31.134594 85.8187368,31.3681869 84.1225304,31.3681869 Z M1.57381913,39.6106785 C15.6756135,47.8197998 33.0700438,52.7919911 51.0631351,52.7919911 C63.2026515,52.7919911 76.53949,50.2558398 88.8120422,45.0500556 C90.6412844,44.2157953 92.204455,46.2513904 90.4084717,47.5862069 C79.4662775,55.6952169 63.5684999,60 49.8990719,60 C30.7419173,60 13.4805229,52.8921023 0.443014871,41.0789766 C-0.588012545,40.1446051 0.343238025,38.8765295 1.57381913,39.6106785 Z M99.6212006,38.7764182 C100.818523,40.2780868 99.2886111,50.5895439 93.4350361,55.5283648 C92.5370445,56.2958843 91.6723118,55.8954394 92.0714192,54.894327 C93.4017771,51.5906563 96.3618236,44.1490545 94.9649477,42.3804227 C93.5680719,40.5784205 85.7189599,41.512792 82.1602524,41.9466073 C81.095966,42.080089 80.9296713,41.1457175 81.8941808,40.4449388 C88.1468632,36.0400445 98.4238784,37.3081201 99.6212006,38.7764182 Z" id="Shape"></path>
        </g>
        <g id="Top" transform="translate(211, 1)">
            <rect id="Rectangle-Copy-8" stroke="#95A3BF" stroke-width="1.4" fill-opacity="0.9" fill="#FFFFFF" x="20" y="34" width="68" height="50" rx="4"></rect>
            <rect id="Rectangle" stroke="#95A3BF" stroke-width="1.4" x="0" y="0" width="70.3603604" height="54" rx="4"></rect>
            <path d="M5.94594595,8 C7.04056437,8 7.92792793,7.1045695 7.92792793,6 C7.92792793,4.8954305 7.04056437,4 5.94594595,4 C4.85132752,4 3.96396396,4.8954305 3.96396396,6 C3.96396396,7.1045695 4.85132752,8 5.94594595,8 Z M11.8918919,8 C12.9865103,8 13.8738739,7.1045695 13.8738739,6 C13.8738739,4.8954305 12.9865103,4 11.8918919,4 C10.7972735,4 9.90990991,4.8954305 9.90990991,6 C9.90990991,7.1045695 10.7972735,8 11.8918919,8 Z M17.8378378,8 C18.9324563,8 19.8198198,7.1045695 19.8198198,6 C19.8198198,4.8954305 18.9324563,4 17.8378378,4 C16.7432194,4 15.8558559,4.8954305 15.8558559,6 C15.8558559,7.1045695 16.7432194,8 17.8378378,8 Z" id="Oval-4" fill="#95A3BF" opacity="0.33"></path>
        </g>
    </g>
</svg>