<?xml version="1.0" encoding="UTF-8"?>
<svg width="300px" height="165px" viewBox="0 0 300 165" version="1.1" xmlns="http://www.w3.org/2000/svg" xmlns:xlink="http://www.w3.org/1999/xlink">
    <title>D0434C46-6D79-4C4C-9726-C296821D870B</title>
    <defs>
        <linearGradient x1="50%" y1="50%" x2="52.9793104%" y2="51.386177%" id="linearGradient-1">
            <stop stop-color="#FFFFFF" stop-opacity="0.7" offset="0%"></stop>
            <stop stop-color="#FFFFFF" stop-opacity="0" offset="100%"></stop>
        </linearGradient>
        <path d="M40,6 L214,6 C216.761424,6 219,8.23857625 219,11 L219,129 L219,129 L35,129 L35,11 C35,8.23857625 37.2385763,6 40,6 Z" id="path-2"></path>
        <linearGradient x1="50%" y1="49.8604439%" x2="50%" y2="50.731762%" id="linearGradient-3">
            <stop stop-color="#000000" stop-opacity="0" offset="0%"></stop>
            <stop stop-color="#000000" stop-opacity="0.07" offset="100%"></stop>
        </linearGradient>
        <path d="M1.25,18 C1.25,18.6627417 1.80964406,19.2 2.5,19.2 L5,19.2 L5,22.8 C5,23.4627417 5.55964406,24 6.25,24 L13.75,24 C14.4403559,24 15,23.4627417 15,22.8 L15,19.2 L17.5,19.2 C18.1903559,19.2 18.75,18.6627417 18.75,18 L18.75,9.6 L20,9.6 L20,7.2 L15,7.2 L15,0 L12.5,0 L12.5,7.2 L7.5,7.2 L7.5,0 L5,0 L5,7.2 L0,7.2 L0,9.6 L1.25,9.6 L1.25,18 Z" id="path-4"></path>
    </defs>
    <g id="Nuevo-UI-Menu/Head" stroke="none" stroke-width="1" fill="none" fill-rule="evenodd">
        <g id="Mockup---No-data-screens" transform="translate(-631, -3342)">
            <g id="Gráfico-personalizado" transform="translate(601, 3312)">
                <g id="Top" transform="translate(30, 30)">
                    <g id="No-Custom-graph-found" transform="translate(0, 1)">
                        <g id="Base" transform="translate(23, 14)">
                            <path d="M225,103 L238,103 C245.179702,103 251,108.820298 251,116 C251,123.179702 245.179702,129 238,129 L225,129 L225,129" id="Path-5" stroke="#222222" stroke-width="1.4" stroke-linejoin="round"></path>
                            <path d="M38.8461538,0 L214.846154,0 C220.369001,-1.01453063e-15 224.846154,4.4771525 224.846154,10 L224.846154,140 L224.846154,140 L28.8461538,140 L28.8461538,10 C28.8461538,4.4771525 33.3233063,1.01453063e-15 38.8461538,0 Z" id="Rectangle" stroke="#222222" stroke-width="1.4" fill="#FFFFFF" stroke-linejoin="round"></path>
                            <g id="Rectangle">
                                <use fill="#D0E7FD" xlink:href="#path-2"></use>
                                <use fill="url(#linearGradient-1)" xlink:href="#path-2"></use>
                            </g>
                            <g id="2307-2102-1306-1512" transform="translate(154.32, 18.37)" fill="#8A96A6" fill-rule="nonzero">
                                <path d="M1.25,2.58 C1.24,2.47 1.22,2.35 1.22,2.25 C1.22,1.58 1.59,1.05 2.35,1.05 C3.08,1.05 3.44,1.53 3.44,2.06 C3.44,2.53 3.19,2.92 2.61,3.28 L1.54,3.95 C0.41,4.65 0.02,5.52 0,6.63 L4.69,6.63 L4.69,5.57 L1.48,5.57 C1.57,5.25 1.83,5.02 2.14,4.83 L3.4,4.05 C4.18,3.57 4.65,2.88 4.65,2.04 C4.65,0.93 3.8,0 2.37,0 C0.9,0 0.06,1.01 0.06,2.13 C0.06,2.26 0.08,2.41 0.09,2.5 L1.25,2.58 Z" id="Path"></path>
                                <path d="M7.25,3.69 C7.35,3.64 7.55,3.58 7.86,3.58 C8.41,3.58 9.01,3.9 9.01,4.65 C9.01,5.24 8.57,5.75 7.78,5.75 C7.06,5.75 6.52,5.24 6.49,4.49 L5.32,4.73 C5.4,5.81 6.29,6.78 7.79,6.78 C9.33,6.78 10.22,5.77 10.22,4.66 C10.22,3.41 9.25,2.71 8.28,2.69 L10.04,1.15 L10.04,0.15 L5.54,0.15 L5.54,1.2 L8.49,1.2 L6.7,2.8 L7.25,3.69 Z" id="Path"></path>
                                <path d="M12.19,3.39 C12.19,2.57 12.33,1.94 12.65,1.54 C12.87,1.25 13.18,1.06 13.65,1.06 C14.12,1.06 14.42,1.25 14.65,1.54 C14.96,1.94 15.1,2.57 15.1,3.39 C15.1,4.21 14.96,4.84 14.65,5.24 C14.42,5.53 14.12,5.72 13.65,5.72 C13.18,5.72 12.87,5.53 12.65,5.24 C12.34,4.84 12.19,4.21 12.19,3.39 Z M11,3.39 C11,4.25 11.14,5.06 11.58,5.72 C12,6.35 12.68,6.78 13.65,6.78 C14.62,6.78 15.29,6.35 15.71,5.72 C16.15,5.06 16.29,4.25 16.29,3.39 C16.29,2.53 16.15,1.72 15.71,1.06 C15.29,0.43 14.62,0 13.65,0 C12.68,0 12,0.43 11.58,1.06 C11.14,1.72 11,2.53 11,3.39 Z" id="Shape"></path>
                                <path d="M21.63,0.15 L16.79,0.15 L16.79,1.2 L20.27,1.2 C20.27,1.2 18.01,3.01 17.73,6.63 L18.97,6.63 C19.26,3.29 21.09,1.65 21.63,1.2 L21.63,0.15 Z" id="Path"></path>
                                <path d="M2.46,15.58 C2.45,15.47 2.43,15.35 2.43,15.25 C2.43,14.58 2.8,14.05 3.56,14.05 C4.29,14.05 4.65,14.53 4.65,15.06 C4.65,15.53 4.4,15.92 3.82,16.28 L2.75,16.95 C1.62,17.65 1.23,18.52 1.21,19.63 L5.9,19.63 L5.9,18.57 L2.69,18.57 C2.78,18.25 3.04,18.02 3.35,17.83 L4.61,17.05 C5.39,16.57 5.86,15.88 5.86,15.04 C5.86,13.93 5.01,13 3.58,13 C2.11,13 1.27,14.01 1.27,15.13 C1.27,15.26 1.29,15.41 1.3,15.5 L2.46,15.58 Z" id="Path"></path>
                                <path d="M9.33,19.63 L9.33,13.15 L8.29,13.15 C8.15,13.83 7.51,14.35 6.58,14.37 L6.58,15.19 L8.15,15.19 L8.15,19.63 L9.33,19.63 Z" id="Path"></path>
                                <path d="M11.78,16.39 C11.78,15.57 11.92,14.94 12.24,14.54 C12.46,14.25 12.77,14.06 13.24,14.06 C13.71,14.06 14.01,14.25 14.24,14.54 C14.55,14.94 14.69,15.57 14.69,16.39 C14.69,17.21 14.55,17.84 14.24,18.24 C14.01,18.53 13.71,18.72 13.24,18.72 C12.77,18.72 12.46,18.53 12.24,18.24 C11.93,17.84 11.78,17.21 11.78,16.39 Z M10.59,16.39 C10.59,17.25 10.73,18.06 11.17,18.72 C11.59,19.35 12.27,19.78 13.24,19.78 C14.21,19.78 14.88,19.35 15.3,18.72 C15.74,18.06 15.88,17.25 15.88,16.39 C15.88,15.53 15.74,14.72 15.3,14.06 C14.88,13.43 14.21,13 13.24,13 C12.27,13 11.59,13.43 11.17,14.06 C10.73,14.72 10.59,15.53 10.59,16.39 Z" id="Shape"></path>
                                <path d="M17.89,15.58 C17.88,15.47 17.86,15.35 17.86,15.25 C17.86,14.58 18.23,14.05 18.99,14.05 C19.72,14.05 20.08,14.53 20.08,15.06 C20.08,15.53 19.83,15.92 19.25,16.28 L18.18,16.95 C17.05,17.65 16.66,18.52 16.64,19.63 L21.33,19.63 L21.33,18.57 L18.12,18.57 C18.21,18.25 18.47,18.02 18.78,17.83 L20.04,17.05 C20.82,16.57 21.29,15.88 21.29,15.04 C21.29,13.93 20.44,13 19.01,13 C17.54,13 16.7,14.01 16.7,15.13 C16.7,15.26 16.72,15.41 16.73,15.5 L17.89,15.58 Z" id="Path"></path>
                                <path d="M3.44,32.63 L3.44,26.15 L2.4,26.15 C2.26,26.83 1.62,27.35 0.69,27.37 L0.69,28.19 L2.26,28.19 L2.26,32.63 L3.44,32.63 Z" id="Path"></path>
                                <path d="M6.41,29.69 C6.51,29.64 6.71,29.58 7.02,29.58 C7.57,29.58 8.17,29.9 8.17,30.65 C8.17,31.24 7.73,31.75 6.94,31.75 C6.22,31.75 5.68,31.24 5.65,30.49 L4.48,30.73 C4.56,31.81 5.45,32.78 6.95,32.78 C8.49,32.78 9.38,31.77 9.38,30.66 C9.38,29.41 8.41,28.71 7.44,28.69 L9.2,27.15 L9.2,26.15 L4.7,26.15 L4.7,27.2 L7.65,27.2 L5.86,28.8 L6.41,29.69 Z" id="Path"></path>
                                <path d="M11.35,29.39 C11.35,28.57 11.49,27.94 11.81,27.54 C12.03,27.25 12.34,27.06 12.81,27.06 C13.28,27.06 13.58,27.25 13.81,27.54 C14.12,27.94 14.26,28.57 14.26,29.39 C14.26,30.21 14.12,30.84 13.81,31.24 C13.58,31.53 13.28,31.72 12.81,31.72 C12.34,31.72 12.03,31.53 11.81,31.24 C11.5,30.84 11.35,30.21 11.35,29.39 Z M10.16,29.39 C10.16,30.25 10.3,31.06 10.74,31.72 C11.16,32.35 11.84,32.78 12.81,32.78 C13.78,32.78 14.45,32.35 14.87,31.72 C15.31,31.06 15.45,30.25 15.45,29.39 C15.45,28.53 15.31,27.72 14.87,27.06 C14.45,26.43 13.78,26 12.81,26 C11.84,26 11.16,26.43 10.74,27.06 C10.3,27.72 10.16,28.53 10.16,29.39 Z" id="Shape"></path>
                                <path d="M21.19,26.32 C20.91,26.14 20.41,26 19.81,26 C17.8,26 16.33,27.42 16.33,29.77 C16.33,31.43 17.27,32.78 18.92,32.78 C20.28,32.78 21.38,31.88 21.38,30.53 C21.38,29.2 20.47,28.34 19.18,28.34 C18.49,28.34 17.87,28.59 17.53,29.11 C17.64,27.85 18.52,27.04 19.74,27.04 C20.27,27.04 20.61,27.17 20.85,27.3 L21.19,26.32 Z M17.66,30.55 C17.66,29.79 18.24,29.34 18.92,29.34 C19.6,29.34 20.18,29.79 20.18,30.55 C20.18,31.3 19.6,31.76 18.92,31.76 C18.26,31.76 17.66,31.29 17.66,30.55 Z" id="Shape"></path>
                                <path d="M6.21,45.63 L6.21,39.15 L5.17,39.15 C5.03,39.83 4.39,40.35 3.46,40.37 L3.46,41.19 L5.03,41.19 L5.03,45.63 L6.21,45.63 Z" id="Path"></path>
                                <path d="M7.31,43.84 C7.39,44.86 8.35,45.79 9.75,45.79 C11.25,45.79 12.19,44.77 12.19,43.55 C12.19,42.19 11.26,41.39 9.97,41.39 C9.51,41.39 9.01,41.55 8.73,41.84 L9.13,40.2 L11.87,40.2 L11.87,39.15 L8.32,39.15 L7.52,42.42 L8.65,42.83 C8.88,42.57 9.27,42.38 9.73,42.38 C10.39,42.38 10.98,42.78 10.98,43.58 C10.98,44.3 10.43,44.76 9.75,44.76 C9,44.76 8.49,44.24 8.44,43.55 L7.31,43.84 Z" id="Path"></path>
                                <path d="M15.48,45.63 L15.48,39.15 L14.44,39.15 C14.3,39.83 13.66,40.35 12.73,40.37 L12.73,41.19 L14.3,41.19 L14.3,45.63 L15.48,45.63 Z" id="Path"></path>
                                <path d="M17.89,41.58 C17.88,41.47 17.86,41.35 17.86,41.25 C17.86,40.58 18.23,40.05 18.99,40.05 C19.72,40.05 20.08,40.53 20.08,41.06 C20.08,41.53 19.83,41.92 19.25,42.28 L18.18,42.95 C17.05,43.65 16.66,44.52 16.64,45.63 L21.33,45.63 L21.33,44.57 L18.12,44.57 C18.21,44.25 18.47,44.02 18.78,43.83 L20.04,43.05 C20.82,42.57 21.29,41.88 21.29,41.04 C21.29,39.93 20.44,39 19.01,39 C17.54,39 16.7,40.01 16.7,41.13 C16.7,41.26 16.72,41.41 16.73,41.5 L17.89,41.58 Z" id="Path"></path>
                            </g>
                            <path d="M189,111.087912 C190.577956,111.087912 191.857143,112.367099 191.857143,113.945055 L191.857143,116.142857 C191.857143,117.720814 190.577956,119 189,119 C187.422044,119 186.142857,117.720814 186.142857,116.142857 L186.142857,113.945055 C186.142857,112.367099 187.422044,111.087912 189,111.087912 Z M171.857143,95.9230769 C173.435099,95.9230769 174.714286,97.2022634 174.714286,98.7802198 L174.714286,116.142857 C174.714286,117.720814 173.435099,119 171.857143,119 C170.279186,119 169,117.720814 169,116.142857 L169,98.7802198 C169,97.2022634 170.279186,95.9230769 171.857143,95.9230769 Z M206.142857,95.9230769 C207.720814,95.9230769 209,97.2022634 209,98.7802198 L209,116.142857 C209,117.720814 207.720814,119 206.142857,119 C204.564901,119 203.285714,117.720814 203.285714,116.142857 L203.285714,98.7802198 C203.285714,97.2022634 204.564901,95.9230769 206.142857,95.9230769 Z M197.571429,103.835165 C199.149385,103.835165 200.428571,105.114351 200.428571,106.692308 L200.428571,116.142857 C200.428571,117.720814 199.149385,119 197.571429,119 C195.993472,119 194.714286,117.720814 194.714286,116.142857 L194.714286,106.692308 C194.714286,105.114351 195.993472,103.835165 197.571429,103.835165 Z M180.428571,89 C182.006528,89 183.285714,90.2791864 183.285714,91.8571429 L183.285714,116.142857 C183.285714,117.720814 182.006528,119 180.428571,119 C178.850615,119 177.571429,117.720814 177.571429,116.142857 L177.571429,91.8571429 C177.571429,90.2791864 178.850615,89 180.428571,89 Z" id="Rectangle-Copy-6" fill="#FFFFFF" transform="translate(189, 104) scale(-1, 1) translate(-189, -104)"></path>
                            <path d="M0,139 L254,139 L254,141 C254,145.418278 250.418278,149 246,149 L8,149 C3.581722,149 5.41083001e-16,145.418278 0,141 L0,139 L0,139 Z" id="Rectangle" stroke="#222222" stroke-width="1.4" fill="#FFFFFF" stroke-linejoin="round"></path>
                        </g>
                        <g id="X" transform="translate(0, 13)">
                            <g id="BAse">
                                <circle id="Oval" fill="#95A3BF" opacity="0.25" cx="35" cy="35" r="35"></circle>
                                <path d="M35,10 C48.8071187,10 60,21.1928813 60,35 C60,48.8071187 48.8071187,60 35,60 C21.1928813,60 10,48.8071187 10,35 C10,21.1928813 21.1928813,10 35,10 Z M35,19.8837209 C26.6515096,19.8837209 19.8837209,26.6515096 19.8837209,35 C19.8837209,43.3484904 26.6515096,50.1162791 35,50.1162791 C43.3484904,50.1162791 50.1162791,43.3484904 50.1162791,35 C50.1162791,26.6515096 43.3484904,19.8837209 35,19.8837209 Z" id="Oval-3" fill="#95A3BF" opacity="0.25"></path>
                                <path d="M25.9383632,25.9383632 C27.1895142,24.6872123 29.2180307,24.6872123 30.4691816,25.9383632 L35,30.469 L39.5308184,25.9383632 C40.7819693,24.6872123 42.8104858,24.6872123 44.0616368,25.9383632 C45.3127877,27.1895142 45.3127877,29.2180307 44.0616368,30.4691816 L39.531,35 L44.0616368,39.5308184 C45.2664488,40.7356304 45.3110715,42.6612917 44.1955048,43.9195 L44.0616368,44.0616368 C42.8104858,45.3127877 40.7819693,45.3127877 39.5308184,44.0616368 L35,39.531 L30.4691816,44.0616368 C29.2180307,45.3127877 27.1895142,45.3127877 25.9383632,44.0616368 C24.6872123,42.8104858 24.6872123,40.7819693 25.9383632,39.5308184 L30.469,35 L25.9383632,30.4691816 C24.7335512,29.2643696 24.6889285,27.3387083 25.8044952,26.0805 Z" id="Rectangle-3" stroke="#222222" stroke-width="1.4" fill="#ED474A" stroke-linejoin="round"></path>
                            </g>
                            <g id="Top" transform="translate(24, 50)" stroke-linejoin="round">
                                <g id="Path">
                                    <use fill="#FFFFFF" xlink:href="#path-4"></use>
                                    <use stroke="#222222" stroke-width="1.4" fill="url(#linearGradient-3)" xlink:href="#path-4"></use>
                                </g>
                                <path d="M10,24 L10,36 C10,45.9411255 18.0588745,54 28,54 L28,54 L28,54" id="Path-4" stroke="#222222" stroke-width="1.4"></path>
                            </g>
                        </g>
                        <g id="Top" transform="translate(211, 0)">
                            <rect id="Rectangle" stroke="#95A3BF" stroke-width="1.4" fill-opacity="0.9" fill="#FFFFFF" x="0" y="0" width="88" height="67" rx="4"></rect>
                            <path d="M5.94594595,8 C7.04056437,8 7.92792793,7.1045695 7.92792793,6 C7.92792793,4.8954305 7.04056437,4 5.94594595,4 C4.85132752,4 3.96396396,4.8954305 3.96396396,6 C3.96396396,7.1045695 4.85132752,8 5.94594595,8 Z M11.8918919,8 C12.9865103,8 13.8738739,7.1045695 13.8738739,6 C13.8738739,4.8954305 12.9865103,4 11.8918919,4 C10.7972735,4 9.90990991,4.8954305 9.90990991,6 C9.90990991,7.1045695 10.7972735,8 11.8918919,8 Z M17.8378378,8 C18.9324563,8 19.8198198,7.1045695 19.8198198,6 C19.8198198,4.8954305 18.9324563,4 17.8378378,4 C16.7432194,4 15.8558559,4.8954305 15.8558559,6 C15.8558559,7.1045695 16.7432194,8 17.8378378,8 Z" id="Oval-4" fill="#95A3BF" opacity="0.33"></path>
                        </g>
                        <g id="Group" transform="translate(70, 34)">
                            <path d="M45.1055557,10 L45.1055557,55 C58.9018661,68.7640244 69.5332973,79.370576 76.9998493,86.8196548 C68.8365868,94.9636113 57.5606067,100 45.1055557,100 C20.1944452,100 0,79.8528137 0,55 C0,30.1471863 20.1944452,10 45.1055557,10 Z" id="Oval-2" stroke="#222222" stroke-width="1.4" fill="#FFFFFF" stroke-linejoin="round"></path>
                            <path d="M88.1844548,0 L88.1844548,45 L50,25.3629398 C56.8758557,10.3493516 71.3906665,0 88.1844548,0 Z" id="Oval-5" fill="#95A3BF" opacity="0.2" transform="translate(69.0922, 22.5) scale(-1, 1) translate(-69.0922, -22.5)"></path>
                            <path d="M55.8434235,30.2581738 L94.4264069,50 L63.0764519,79.3208591 C56.1959843,71.3221718 52,60.6808225 52,49 C52,42.3115889 53.3757291,35.9639878 55.8434235,30.2581738 Z" id="Oval-5" stroke="#222222" stroke-width="1.4" stroke-linecap="round" stroke-linejoin="round" stroke-dasharray="2,4" transform="translate(73.2132, 54.7895) scale(-1, 1) translate(-73.2132, -54.7895)"></path>
                        </g>
                        <g id="Group-2" transform="translate(221, 17)" fill="#95A3BF">
                            <rect id="Rectangle" x="4" y="0" width="2" height="40" rx="1"></rect>
                            <circle id="Oval" stroke="#222222" stroke-width="1.4" cx="5" cy="13" r="5"></circle>
                        </g>
                        <g id="Group-2-Copy" transform="translate(240, 17)" fill="#95A3BF">
                            <rect id="Rectangle" x="4" y="0" width="2" height="40" rx="1"></rect>
                            <circle id="Oval" stroke="#222222" stroke-width="1.4" cx="5" cy="25" r="5"></circle>
                        </g>
                        <g id="Group-2-Copy-2" transform="translate(260, 17)" fill="#95A3BF">
                            <rect id="Rectangle" x="4" y="0" width="2" height="40" rx="1"></rect>
                            <circle id="Oval" stroke="#222222" stroke-width="1.4" cx="5" cy="20" r="5"></circle>
                        </g>
                        <g id="Group-2-Copy-3" transform="translate(279, 17)" fill="#95A3BF">
                            <rect id="Rectangle" x="4" y="0" width="2" height="40" rx="1"></rect>
                            <circle id="Oval" stroke="#222222" stroke-width="1.4" cx="5" cy="5" r="5"></circle>
                        </g>
                    </g>
                </g>
            </g>
        </g>
    </g>
</svg>