<?xml version="1.0" encoding="UTF-8"?>
<svg width="300px" height="165px" viewBox="0 0 300 165" version="1.1" xmlns="http://www.w3.org/2000/svg" xmlns:xlink="http://www.w3.org/1999/xlink">
    <title>A84B8A2A-F149-4822-9084-B43F3D4C6C8F</title>
    <defs>
        <linearGradient x1="50%" y1="50%" x2="52.9793104%" y2="51.386177%" id="linearGradient-1">
            <stop stop-color="#FFFFFF" stop-opacity="0.7" offset="0%"></stop>
            <stop stop-color="#FFFFFF" stop-opacity="0" offset="100%"></stop>
        </linearGradient>
        <path d="M40,6 L214,6 C216.761424,6 219,8.23857625 219,11 L219,129 L219,129 L35,129 L35,11 C35,8.23857625 37.2385763,6 40,6 Z" id="path-2"></path>
        <linearGradient x1="50%" y1="49.8604439%" x2="50%" y2="50.731762%" id="linearGradient-3">
            <stop stop-color="#000000" stop-opacity="0" offset="0%"></stop>
            <stop stop-color="#000000" stop-opacity="0.07" offset="100%"></stop>
        </linearGradient>
        <path d="M1.25,18 C1.25,18.6627417 1.80964406,19.2 2.5,19.2 L5,19.2 L5,22.8 C5,23.4627417 5.55964406,24 6.25,24 L13.75,24 C14.4403559,24 15,23.4627417 15,22.8 L15,19.2 L17.5,19.2 C18.1903559,19.2 18.75,18.6627417 18.75,18 L18.75,9.6 L20,9.6 L20,7.2 L15,7.2 L15,0 L12.5,0 L12.5,7.2 L7.5,7.2 L7.5,0 L5,0 L5,7.2 L0,7.2 L0,9.6 L1.25,9.6 L1.25,18 Z" id="path-4"></path>
    </defs>
    <g id="Nuevo-UI-Menu/Head" stroke="none" stroke-width="1" fill="none" fill-rule="evenodd">
        <g id="Mockup---No-data-screens" transform="translate(-631, -2954)">
            <g id="Plugins" transform="translate(601, 2924)">
                <g id="Top" transform="translate(30, 30)">
                    <g id="No-Plugin-found" transform="translate(0, 1)">
                        <g id="Base" transform="translate(23, 14)">
                            <path d="M225,103 L238,103 C245.179702,103 251,108.820298 251,116 C251,123.179702 245.179702,129 238,129 L225,129 L225,129" id="Path-5" stroke="#222222" stroke-width="1.4" stroke-linejoin="round"></path>
                            <path d="M38.8461538,0 L214.846154,0 C220.369001,-1.01453063e-15 224.846154,4.4771525 224.846154,10 L224.846154,140 L224.846154,140 L28.8461538,140 L28.8461538,10 C28.8461538,4.4771525 33.3233063,1.01453063e-15 38.8461538,0 Z" id="Rectangle" stroke="#222222" stroke-width="1.4" fill="#FFFFFF" stroke-linejoin="round"></path>
                            <g id="Rectangle">
                                <use fill="#D0E7FD" xlink:href="#path-2"></use>
                                <use fill="url(#linearGradient-1)" xlink:href="#path-2"></use>
                            </g>
                            <path d="M189,111.087912 C190.577956,111.087912 191.857143,112.367099 191.857143,113.945055 L191.857143,116.142857 C191.857143,117.720814 190.577956,119 189,119 C187.422044,119 186.142857,117.720814 186.142857,116.142857 L186.142857,113.945055 C186.142857,112.367099 187.422044,111.087912 189,111.087912 Z M171.857143,95.9230769 C173.435099,95.9230769 174.714286,97.2022634 174.714286,98.7802198 L174.714286,116.142857 C174.714286,117.720814 173.435099,119 171.857143,119 C170.279186,119 169,117.720814 169,116.142857 L169,98.7802198 C169,97.2022634 170.279186,95.9230769 171.857143,95.9230769 Z M206.142857,95.9230769 C207.720814,95.9230769 209,97.2022634 209,98.7802198 L209,116.142857 C209,117.720814 207.720814,119 206.142857,119 C204.564901,119 203.285714,117.720814 203.285714,116.142857 L203.285714,98.7802198 C203.285714,97.2022634 204.564901,95.9230769 206.142857,95.9230769 Z M197.571429,103.835165 C199.149385,103.835165 200.428571,105.114351 200.428571,106.692308 L200.428571,116.142857 C200.428571,117.720814 199.149385,119 197.571429,119 C195.993472,119 194.714286,117.720814 194.714286,116.142857 L194.714286,106.692308 C194.714286,105.114351 195.993472,103.835165 197.571429,103.835165 Z M180.428571,89 C182.006528,89 183.285714,90.2791864 183.285714,91.8571429 L183.285714,116.142857 C183.285714,117.720814 182.006528,119 180.428571,119 C178.850615,119 177.571429,117.720814 177.571429,116.142857 L177.571429,91.8571429 C177.571429,90.2791864 178.850615,89 180.428571,89 Z" id="Rectangle-Copy-6" fill="#FFFFFF" transform="translate(189, 104) scale(-1, 1) translate(-189, -104)"></path>
                            <path d="M0,139 L254,139 L254,141 C254,145.418278 250.418278,149 246,149 L8,149 C3.581722,149 5.41083001e-16,145.418278 0,141 L0,139 L0,139 Z" id="Rectangle" stroke="#222222" stroke-width="1.4" fill="#FFFFFF" stroke-linejoin="round"></path>
                        </g>
                        <g id="X" transform="translate(0, 13)">
                            <g id="BAse">
                                <circle id="Oval" fill="#95A3BF" opacity="0.25" cx="35" cy="35" r="35"></circle>
                                <path d="M35,10 C48.8071187,10 60,21.1928813 60,35 C60,48.8071187 48.8071187,60 35,60 C21.1928813,60 10,48.8071187 10,35 C10,21.1928813 21.1928813,10 35,10 Z M35,19.8837209 C26.6515096,19.8837209 19.8837209,26.6515096 19.8837209,35 C19.8837209,43.3484904 26.6515096,50.1162791 35,50.1162791 C43.3484904,50.1162791 50.1162791,43.3484904 50.1162791,35 C50.1162791,26.6515096 43.3484904,19.8837209 35,19.8837209 Z" id="Oval-3" fill="#95A3BF" opacity="0.25"></path>
                                <path d="M25.9383632,25.9383632 C27.1895142,24.6872123 29.2180307,24.6872123 30.4691816,25.9383632 L35,30.469 L39.5308184,25.9383632 C40.7819693,24.6872123 42.8104858,24.6872123 44.0616368,25.9383632 C45.3127877,27.1895142 45.3127877,29.2180307 44.0616368,30.4691816 L39.531,35 L44.0616368,39.5308184 C45.2664488,40.7356304 45.3110715,42.6612917 44.1955048,43.9195 L44.0616368,44.0616368 C42.8104858,45.3127877 40.7819693,45.3127877 39.5308184,44.0616368 L35,39.531 L30.4691816,44.0616368 C29.2180307,45.3127877 27.1895142,45.3127877 25.9383632,44.0616368 C24.6872123,42.8104858 24.6872123,40.7819693 25.9383632,39.5308184 L30.469,35 L25.9383632,30.4691816 C24.7335512,29.2643696 24.6889285,27.3387083 25.8044952,26.0805 Z" id="Rectangle-3" stroke="#222222" stroke-width="1.4" fill="#ED474A" stroke-linejoin="round"></path>
                            </g>
                            <g id="Top" transform="translate(24, 50)" stroke-linejoin="round">
                                <g id="Path">
                                    <use fill="#FFFFFF" xlink:href="#path-4"></use>
                                    <use stroke="#222222" stroke-width="1.4" fill="url(#linearGradient-3)" xlink:href="#path-4"></use>
                                </g>
                                <path d="M10,24 L10,36 C10,45.9411255 18.0588745,54 28,54 L28,54 L28,54" id="Path-4" stroke="#222222" stroke-width="1.4"></path>
                            </g>
                        </g>
                        <g id="Top" transform="translate(211, 0)">
                            <rect id="Rectangle-Copy-8" stroke="#95A3BF" stroke-width="1.4" fill-opacity="0.9" fill="#FFFFFF" x="20" y="34" width="68" height="50" rx="4"></rect>
                            <rect id="Rectangle" stroke="#95A3BF" stroke-width="1.4" x="0" y="0" width="70.3603604" height="54" rx="4"></rect>
                            <path d="M5.94594595,8 C7.04056437,8 7.92792793,7.1045695 7.92792793,6 C7.92792793,4.8954305 7.04056437,4 5.94594595,4 C4.85132752,4 3.96396396,4.8954305 3.96396396,6 C3.96396396,7.1045695 4.85132752,8 5.94594595,8 Z M11.8918919,8 C12.9865103,8 13.8738739,7.1045695 13.8738739,6 C13.8738739,4.8954305 12.9865103,4 11.8918919,4 C10.7972735,4 9.90990991,4.8954305 9.90990991,6 C9.90990991,7.1045695 10.7972735,8 11.8918919,8 Z M17.8378378,8 C18.9324563,8 19.8198198,7.1045695 19.8198198,6 C19.8198198,4.8954305 18.9324563,4 17.8378378,4 C16.7432194,4 15.8558559,4.8954305 15.8558559,6 C15.8558559,7.1045695 16.7432194,8 17.8378378,8 Z" id="Oval-4" fill="#95A3BF" opacity="0.33"></path>
                        </g>
                        <g id="Group" transform="translate(75, 32)">
                            <path d="M36.5277777,50 L46.2962963,50 C48.3417954,50 50,48.2780183 50,46.1538462 L50,37.0913462 C49.997871,36.4503405 49.6844882,35.8537078 49.1666667,35.5048077 C48.655685,35.1385347 47.9979818,35.0747881 47.4305555,35.3365385 C46.7745727,35.6056844 46.0756971,35.7443119 45.3703704,35.7451923 C42.3148148,35.7451923 39.8148148,33.0769231 39.8148148,29.8076923 C39.8148148,26.5384615 42.3148148,23.8701923 45.3703704,23.8701923 C46.0756971,23.8710728 46.7745727,24.0097002 47.4305555,24.2788462 C47.9979818,24.5405965 48.655685,24.4768499 49.1666667,24.1105769 C49.6844882,23.7616768 49.997871,23.1650442 50,22.5240385 L50,13.4615385 C50,11.3373663 48.3417954,9.61538462 46.2962963,9.61538462 L37.9166666,9.61538462 C37.9398148,9.30288462 37.9629629,8.96634615 37.9629629,8.65384615 C37.9629629,3.8744589 34.2320025,0 29.6296296,0 C25.0272566,0 21.2962962,3.8744589 21.2962962,8.65384615 C21.2962962,8.96634615 21.3194443,9.30288462 21.3425925,9.61538462 L12.9629628,9.61538462 C10.9174638,9.61538462 9.25925912,11.3373663 9.25925912,13.4615385 L9.25925912,21.2019231 L8.33333319,21.1538462 C3.73096032,21.1538463 0,25.0283051 0,29.8076923 C0,34.5870795 3.73096032,38.4615384 8.33333319,38.4615385 L9.25925912,38.4134615 L9.25925912,46.1538462 C9.25925912,48.2780183 10.9174638,50 12.9629628,50 L22.7314814,50 L36.5277777,50 Z" id="Path" stroke="#95A3BF" stroke-width="1.4"></path>
                            <path d="M86.5277777,100 L96.2962963,100 C98.3417954,100 100,98.2780183 100,96.1538462 L100,87.0913462 C99.997871,86.4503405 99.6844882,85.8537078 99.1666667,85.5048077 C98.655685,85.1385347 97.9979818,85.0747881 97.4305555,85.3365385 C96.7745727,85.6056844 96.0756971,85.7443119 95.3703704,85.7451923 C92.3148148,85.7451923 89.8148148,83.0769231 89.8148148,79.8076923 C89.8148148,76.5384615 92.3148148,73.8701923 95.3703704,73.8701923 C96.0756971,73.8710728 96.7745727,74.0097002 97.4305555,74.2788462 C97.9979818,74.5405965 98.655685,74.4768499 99.1666667,74.1105769 C99.6844882,73.7616768 99.997871,73.1650442 100,72.5240385 L100,63.4615385 C100,61.3373663 98.3417954,59.6153846 96.2962963,59.6153846 L87.9166666,59.6153846 C87.9398148,59.3028846 87.9629629,58.9663462 87.9629629,58.6538462 C87.9629629,53.8744589 84.2320025,50 79.6296296,50 C75.0272566,50 71.2962962,53.8744589 71.2962962,58.6538462 C71.2962962,58.9663462 71.3194443,59.3028846 71.3425925,59.6153846 L62.9629628,59.6153846 C60.9174638,59.6153846 59.2592591,61.3373663 59.2592591,63.4615385 L59.2592591,71.2019231 L58.3333332,71.1538462 C53.7309603,71.1538463 50,75.0283051 50,79.8076923 C50,84.5870795 53.7309603,88.4615384 58.3333332,88.4615385 L59.2592591,88.4134615 L59.2592591,96.1538462 C59.2592591,98.2780183 60.9174638,100 62.9629628,100 L72.7314814,100 L86.5277777,100 Z" id="Path-Copy-3" stroke="#95A3BF" stroke-width="1.4" transform="translate(75, 75) scale(-1, -1) translate(-75, -75)"></path>
                            <path d="M86.2962963,50 C88.3417954,50 90,48.2780183 90,46.1538462 L90,37.0913462 C89.997871,36.4503405 89.6844882,35.8537078 89.1666667,35.5048077 C88.655685,35.1385347 87.9979818,35.0747881 87.4305555,35.3365385 C86.7745727,35.6056844 86.0756971,35.7443119 85.3703704,35.7451923 C82.3148148,35.7451923 79.8148148,33.0769231 79.8148148,29.8076923 C79.8148148,26.5384615 82.3148148,23.8701923 85.3703704,23.8701923 C86.0756971,23.8710728 86.7745727,24.0097002 87.4305555,24.2788462 C87.9979818,24.5405965 88.655685,24.4768499 89.1666667,24.1105769 C89.6844882,23.7616768 89.997871,23.1650442 90,22.5240385 L90,13.4615385 C90,11.3373663 88.3417954,9.61538462 86.2962963,9.61538462 L77.9166666,9.61538462 C77.9398148,9.30288462 77.9629629,8.96634615 77.9629629,8.65384615 C77.9629629,3.8744589 74.2320025,0 69.6296296,0 C65.0272566,0 61.2962962,3.8744589 61.2962962,8.65384615 C61.2962962,8.96634615 61.3194443,9.30288462 61.3425925,9.61538462 L52.9629628,9.61538462 C50.9174638,9.61538462 49.2592591,11.3373663 49.2592591,13.4615385 L49.2592591,21.2019231 L48.3333332,21.1538462 C43.7309603,21.1538463 40,25.0283051 40,29.8076923 C40,34.5870795 43.7309603,38.4615384 48.3333332,38.4615385 L49.2592591,38.4134615 L49.2592591,46.1538462 C49.2592591,48.2780183 50.9174638,50 52.9629628,50 L86.2962963,50 Z" id="Path-Copy" stroke="#222222" stroke-width="1.4" fill="#FFFFFF" stroke-linejoin="round"></path>
                            <polygon id="Star" fill="#95A3BF" opacity="0.2" points="65 35 57.946577 38.7082039 59.2936609 30.854102 53.5873218 25.2917961 61.4732885 24.145898 65 17 68.5267115 24.145898 76.4126782 25.2917961 70.7063391 30.854102 72.053423 38.7082039"></polygon>
                            <path d="M46.5277777,100 L56.2962963,100 C58.3417954,100 60,98.2780183 60,96.1538462 L60,87.0913462 C59.997871,86.4503405 59.6844882,85.8537078 59.1666667,85.5048077 C58.655685,85.1385347 57.9979818,85.0747881 57.4305555,85.3365385 C56.7745727,85.6056844 56.0756971,85.7443119 55.3703704,85.7451923 C52.3148148,85.7451923 49.8148148,83.0769231 49.8148148,79.8076923 C49.8148148,76.5384615 52.3148148,73.8701923 55.3703704,73.8701923 C56.0756971,73.8710728 56.7745727,74.0097002 57.4305555,74.2788462 C57.9979818,74.5405965 58.655685,74.4768499 59.1666667,74.1105769 C59.6844882,73.7616768 59.997871,73.1650442 60,72.5240385 L60,63.4615385 C60,61.3373663 58.3417954,59.6153846 56.2962963,59.6153846 L47.9166666,59.6153846 C47.9398148,59.3028846 47.9629629,58.9663462 47.9629629,58.6538462 C47.9629629,53.8744589 44.2320025,50 39.6296296,50 C35.0272566,50 31.2962962,53.8744589 31.2962962,58.6538462 C31.2962962,58.9663462 31.3194443,59.3028846 31.3425925,59.6153846 L22.9629628,59.6153846 C20.9174638,59.6153846 19.2592591,61.3373663 19.2592591,63.4615385 L19.2592591,71.2019231 L18.3333332,71.1538462 C13.7309603,71.1538463 10,75.0283051 10,79.8076923 C10,84.5870795 13.7309603,88.4615384 18.3333332,88.4615385 L19.2592591,88.4134615 L19.2592591,96.1538462 C19.2592591,98.2780183 20.9174638,100 22.9629628,100 C25.0662296,100 26.6436797,100 27.6953131,100 C28.8144616,100 30.4931844,100 32.7314814,100 L46.5277777,100 Z" id="Path-Copy-2" stroke="#95A3BF" stroke-width="1.4" fill="#F0F7FE" transform="translate(35, 75) scale(-1, -1) translate(-35, -75)"></path>
                            <path d="M16.9459459,59 C18.0405644,59 18.9279279,58.1045695 18.9279279,57 C18.9279279,55.8954305 18.0405644,55 16.9459459,55 C15.8513275,55 14.963964,55.8954305 14.963964,57 C14.963964,58.1045695 15.8513275,59 16.9459459,59 Z M22.8918919,59 C23.9865103,59 24.8738739,58.1045695 24.8738739,57 C24.8738739,55.8954305 23.9865103,55 22.8918919,55 C21.7972735,55 20.9099099,55.8954305 20.9099099,57 C20.9099099,58.1045695 21.7972735,59 22.8918919,59 Z M28.8378378,59 C29.9324563,59 30.8198198,58.1045695 30.8198198,57 C30.8198198,55.8954305 29.9324563,55 28.8378378,55 C27.7432194,55 26.8558559,55.8954305 26.8558559,57 C26.8558559,58.1045695 27.7432194,59 28.8378378,59 Z" id="Oval-4" fill="#95A3BF"></path>
                        </g>
                    </g>
                </g>
            </g>
        </g>
    </g>
</svg>