<?xml version="1.0" encoding="UTF-8"?>
<svg width="300px" height="165px" viewBox="0 0 300 165" version="1.1" xmlns="http://www.w3.org/2000/svg" xmlns:xlink="http://www.w3.org/1999/xlink">
    <title>D3A9E7AB-A2B9-4073-9525-28AED9DF6D51</title>
    <defs>
        <linearGradient x1="50%" y1="50%" x2="52.9793104%" y2="51.386177%" id="linearGradient-1">
            <stop stop-color="#FFFFFF" stop-opacity="0.7" offset="0%"></stop>
            <stop stop-color="#FFFFFF" stop-opacity="0" offset="100%"></stop>
        </linearGradient>
        <path d="M40,6 L214,6 C216.761424,6 219,8.23857625 219,11 L219,129 L219,129 L35,129 L35,11 C35,8.23857625 37.2385763,6 40,6 Z" id="path-2"></path>
        <linearGradient x1="50%" y1="49.8604439%" x2="50%" y2="50.731762%" id="linearGradient-3">
            <stop stop-color="#000000" stop-opacity="0" offset="0%"></stop>
            <stop stop-color="#000000" stop-opacity="0.07" offset="100%"></stop>
        </linearGradient>
        <path d="M1.25,18 C1.25,18.6627417 1.80964406,19.2 2.5,19.2 L5,19.2 L5,22.8 C5,23.4627417 5.55964406,24 6.25,24 L13.75,24 C14.4403559,24 15,23.4627417 15,22.8 L15,19.2 L17.5,19.2 C18.1903559,19.2 18.75,18.6627417 18.75,18 L18.75,9.6 L20,9.6 L20,7.2 L15,7.2 L15,0 L12.5,0 L12.5,7.2 L7.5,7.2 L7.5,0 L5,0 L5,7.2 L0,7.2 L0,9.6 L1.25,9.6 L1.25,18 Z" id="path-4"></path>
    </defs>
    <g id="Nuevo-UI-Menu/Head" stroke="none" stroke-width="1" fill="none" fill-rule="evenodd">
        <g id="Mockup---No-data-screens" transform="translate(-631, -1512)">
            <g id="Servicios" transform="translate(601, 1482)">
                <g id="Top" transform="translate(30, 30)">
                    <g id="No-Service-found" transform="translate(0, 1)">
                        <g id="Base" transform="translate(23, 14)">
                            <path d="M225,103 L238,103 C245.179702,103 251,108.820298 251,116 C251,123.179702 245.179702,129 238,129 L225,129 L225,129" id="Path-5" stroke="#222222" stroke-width="1.4" stroke-linejoin="round"></path>
                            <path d="M38.8461538,0 L214.846154,0 C220.369001,-1.01453063e-15 224.846154,4.4771525 224.846154,10 L224.846154,140 L224.846154,140 L28.8461538,140 L28.8461538,10 C28.8461538,4.4771525 33.3233063,1.01453063e-15 38.8461538,0 Z" id="Rectangle" stroke="#222222" stroke-width="1.4" fill="#FFFFFF" stroke-linejoin="round"></path>
                            <g id="Rectangle">
                                <use fill="#D0E7FD" xlink:href="#path-2"></use>
                                <use fill="url(#linearGradient-1)" xlink:href="#path-2"></use>
                            </g>
                            <path d="M0,139 L254,139 L254,141 C254,145.418278 250.418278,149 246,149 L8,149 C3.581722,149 5.41083001e-16,145.418278 0,141 L0,139 L0,139 Z" id="Rectangle" stroke="#222222" stroke-width="1.4" fill="#FFFFFF" stroke-linejoin="round"></path>
                            <path d="M189,111.087912 C190.577956,111.087912 191.857143,112.367099 191.857143,113.945055 L191.857143,116.142857 C191.857143,117.720814 190.577956,119 189,119 C187.422044,119 186.142857,117.720814 186.142857,116.142857 L186.142857,113.945055 C186.142857,112.367099 187.422044,111.087912 189,111.087912 Z M171.857143,95.9230769 C173.435099,95.9230769 174.714286,97.2022634 174.714286,98.7802198 L174.714286,116.142857 C174.714286,117.720814 173.435099,119 171.857143,119 C170.279186,119 169,117.720814 169,116.142857 L169,98.7802198 C169,97.2022634 170.279186,95.9230769 171.857143,95.9230769 Z M206.142857,95.9230769 C207.720814,95.9230769 209,97.2022634 209,98.7802198 L209,116.142857 C209,117.720814 207.720814,119 206.142857,119 C204.564901,119 203.285714,117.720814 203.285714,116.142857 L203.285714,98.7802198 C203.285714,97.2022634 204.564901,95.9230769 206.142857,95.9230769 Z M197.571429,103.835165 C199.149385,103.835165 200.428571,105.114351 200.428571,106.692308 L200.428571,116.142857 C200.428571,117.720814 199.149385,119 197.571429,119 C195.993472,119 194.714286,117.720814 194.714286,116.142857 L194.714286,106.692308 C194.714286,105.114351 195.993472,103.835165 197.571429,103.835165 Z M180.428571,89 C182.006528,89 183.285714,90.2791864 183.285714,91.8571429 L183.285714,116.142857 C183.285714,117.720814 182.006528,119 180.428571,119 C178.850615,119 177.571429,117.720814 177.571429,116.142857 L177.571429,91.8571429 C177.571429,90.2791864 178.850615,89 180.428571,89 Z" id="Rectangle-Copy-6" fill="#FFFFFF" transform="translate(189, 104) scale(-1, 1) translate(-189, -104)"></path>
                            <g id="IMG" transform="translate(59, 19.6322)" stroke-linejoin="round" stroke-width="1.4">
                                <g id="Group" transform="translate(0.3047, 0)" stroke="#95A3BF" stroke-linecap="round">
                                    <polygon id="Polygon" fill="#FFFFFF" points="9.6 0 19.2 6 19.2 18 9.89959798 24 6.1284311e-15 18 0 6"></polygon>
                                    <path d="M0.0128647192,6 C6.60402022,9.78378378 9.89959798,11.6756757 9.89959798,11.6756757 C9.89959798,11.6756757 12.9954437,9.78378378 19.1871353,6" id="Path-100"></path>
                                    <line x1="9.89959798" y1="11.6756757" x2="9.89959798" y2="24" id="Path-33"></line>
                                </g>
                                <g id="Group" transform="translate(67, 0.3678)" stroke="#95A3BF" stroke-linecap="round">
                                    <polygon id="Polygon" points="9.6 0 19.2 6 19.2 18 9.89959798 24 6.1284311e-15 18 0 6"></polygon>
                                    <path d="M0.0128647192,6 C6.60402022,9.78378378 9.89959798,11.6756757 9.89959798,11.6756757 C9.89959798,11.6756757 12.9954437,9.78378378 19.1871353,6" id="Path-100"></path>
                                    <line x1="9.89959798" y1="11.6756757" x2="9.89959798" y2="24" id="Path-33"></line>
                                </g>
                                <g id="Group-2" transform="translate(0, 17.8678)">
                                    <g id="Lines" transform="translate(19.25, 0)" stroke="#95A3BF" stroke-linecap="round">
                                        <path d="M0.25,0 C0.25,0 4.75,2.75 13.75,8.25 L13.75,31.5" id="Path-34"></path>
                                        <path d="M34.75,0.25 C34.75,0.25 39.0833333,2.91666667 47.75,8.25 L47.75,31.5" id="Path-34-Copy" stroke-dasharray="2,3" transform="translate(41.25, 15.875) scale(-1, 1) translate(-41.25, -15.875)"></path>
                                        <path d="M0,37.25 L13.75,45.5 L13.75,68.75" id="Path-34" stroke-dasharray="2,3" transform="translate(6.875, 53) scale(1, -1) translate(-6.875, -53)"></path>
                                        <polyline id="Path-34-Copy" transform="translate(41.2523, 52.8486) scale(-1, -1) translate(-41.2523, -52.8486)" points="34.75 37.25 47.7545747 45.1972401 47.7545747 68.4472401"></polyline>
                                    </g>
                                    <g id="Group-Copy" transform="translate(0, 57.5)" stroke="#95A3BF" stroke-linecap="round">
                                        <polygon id="Polygon" points="9.6 0 19.2 6 19.2 18 9.89959798 24 6.1284311e-15 18 0 6"></polygon>
                                        <path d="M0.0128647192,6 C6.60402022,9.78378378 9.89959798,11.6756757 9.89959798,11.6756757 C9.89959798,11.6756757 12.9954437,9.78378378 19.1871353,6" id="Path-100"></path>
                                        <line x1="9.89959798" y1="11.6756757" x2="9.89959798" y2="24" id="Path-33"></line>
                                    </g>
                                    <g id="Group-Copy-2" transform="translate(67, 57.5)" stroke="#95A3BF" stroke-linecap="round">
                                        <polygon id="Polygon" fill="#FFFFFF" points="9.6 0 19.2 6 19.2 18 9.89959798 24 6.1284311e-15 18 0 6"></polygon>
                                        <path d="M0.0128647192,6 C6.60402022,9.78378378 9.89959798,11.6756757 9.89959798,11.6756757 C9.89959798,11.6756757 12.9954437,9.78378378 19.1871353,6" id="Path-100"></path>
                                        <line x1="9.89959798" y1="11.6756757" x2="9.89959798" y2="24" id="Path-33"></line>
                                    </g>
                                    <path d="M47.56625,9.9125 C46.224,5.3625 39.776,5.3625 38.43375,9.9125 L38.10875,11.0175 C37.7025586,12.3971504 36.6941172,13.5190382 35.3654092,14.0694578 C34.0367012,14.6198775 32.5303258,14.539757 31.2675,13.8515 L30.26,13.299 C26.09025,11.0305 21.5305,15.59025 23.80225,19.75675 L24.3515,20.7675 C25.801,23.4325 24.42625,26.75075 21.5175,27.60875 L20.4125,27.93375 C15.8625,29.276 15.8625,35.724 20.4125,37.06625 L21.5175,37.39125 C22.8971504,37.7974414 24.0190382,38.8058828 24.5694578,40.1345908 C25.1198775,41.4632988 25.039757,42.9696742 24.3515,44.2325 L23.799,45.24 C21.5305,49.40975 26.09025,53.9695 30.25675,51.69775 L31.2675,51.1485 C32.5303258,50.460243 34.0367012,50.3801225 35.3654092,50.9305422 C36.6941172,51.4809618 37.7025586,52.6028496 38.10875,53.9825 L38.43375,55.0875 C39.776,59.6375 46.224,59.6375 47.56625,55.0875 L47.89125,53.9825 C48.2974414,52.6028496 49.3058828,51.4809618 50.6345908,50.9305422 C51.9632988,50.3801225 53.4696742,50.460243 54.7325,51.1485 L55.74,51.701 C59.90975,53.9695 64.4695,49.40975 62.19775,45.24325 L61.6485,44.2325 C60.960243,42.9696742 60.8801225,41.4632988 61.4305422,40.1345908 C61.9809618,38.8058828 63.1028496,37.7974414 64.4825,37.39125 L65.5875,37.06625 C70.1375,35.724 70.1375,29.276 65.5875,27.93375 L64.4825,27.60875 C63.1028496,27.2025586 61.9809618,26.1941172 61.4305422,24.8654092 C60.8801225,23.5367012 60.960243,22.0303258 61.6485,20.7675 L62.201,19.76 C64.4695,15.59025 59.90975,11.0305 55.74325,13.30225 L54.7325,13.8515 C53.4696742,14.539757 51.9632988,14.6198775 50.6345908,14.0694578 C49.3058828,13.5190382 48.2974414,12.3971504 47.89125,11.0175 L47.56625,9.9125 L47.56625,9.9125 Z M42.5016215,41.5 C37.2540209,41.5 33,37.2467051 33,32 C33,26.7532949 37.2540209,22.5 42.5016215,22.5 C47.7474311,22.5 52,26.7518433 52,31.9967577 C52,37.2416721 47.7474311,41.4935153 42.5016215,41.4935154 L42.5016215,41.5 Z" id="Shape" stroke="#222222" fill="#FFFFFF"></path>
                                </g>
                            </g>
                        </g>
                        <g id="X" transform="translate(0, 13)">
                            <g id="BAse">
                                <circle id="Oval" fill="#95A3BF" opacity="0.25" cx="35" cy="35" r="35"></circle>
                                <path d="M35,10 C48.8071187,10 60,21.1928813 60,35 C60,48.8071187 48.8071187,60 35,60 C21.1928813,60 10,48.8071187 10,35 C10,21.1928813 21.1928813,10 35,10 Z M35,19.8837209 C26.6515096,19.8837209 19.8837209,26.6515096 19.8837209,35 C19.8837209,43.3484904 26.6515096,50.1162791 35,50.1162791 C43.3484904,50.1162791 50.1162791,43.3484904 50.1162791,35 C50.1162791,26.6515096 43.3484904,19.8837209 35,19.8837209 Z" id="Oval-3" fill="#95A3BF" opacity="0.25"></path>
                                <path d="M25.9383632,25.9383632 C27.1895142,24.6872123 29.2180307,24.6872123 30.4691816,25.9383632 L35,30.469 L39.5308184,25.9383632 C40.7819693,24.6872123 42.8104858,24.6872123 44.0616368,25.9383632 C45.3127877,27.1895142 45.3127877,29.2180307 44.0616368,30.4691816 L39.531,35 L44.0616368,39.5308184 C45.2664488,40.7356304 45.3110715,42.6612917 44.1955048,43.9195 L44.0616368,44.0616368 C42.8104858,45.3127877 40.7819693,45.3127877 39.5308184,44.0616368 L35,39.531 L30.4691816,44.0616368 C29.2180307,45.3127877 27.1895142,45.3127877 25.9383632,44.0616368 C24.6872123,42.8104858 24.6872123,40.7819693 25.9383632,39.5308184 L30.469,35 L25.9383632,30.4691816 C24.7335512,29.2643696 24.6889285,27.3387083 25.8044952,26.0805 Z" id="Rectangle-3" stroke="#222222" stroke-width="1.4" fill="#ED474A" stroke-linejoin="round"></path>
                            </g>
                            <g id="Top" transform="translate(24, 50)" stroke-linejoin="round">
                                <g id="Path">
                                    <use fill="#FFFFFF" xlink:href="#path-4"></use>
                                    <use stroke="#222222" stroke-width="1.4" fill="url(#linearGradient-3)" xlink:href="#path-4"></use>
                                </g>
                                <path d="M10,24 L10,36 C10,45.9411255 18.0588745,54 28,54 L28,54 L28,54" id="Path-4" stroke="#222222" stroke-width="1.4"></path>
                            </g>
                        </g>
                        <g id="Top" transform="translate(211, 0)">
                            <rect id="Rectangle-Copy-8" stroke="#95A3BF" stroke-width="1.4" x="20" y="34" width="68" height="50" rx="4"></rect>
                            <rect id="Rectangle" stroke="#95A3BF" stroke-width="1.4" fill-opacity="0.8" fill="#FFFFFF" x="0" y="0" width="70.3603604" height="54" rx="4"></rect>
                            <path d="M5.94594595,8 C7.04056437,8 7.92792793,7.1045695 7.92792793,6 C7.92792793,4.8954305 7.04056437,4 5.94594595,4 C4.85132752,4 3.96396396,4.8954305 3.96396396,6 C3.96396396,7.1045695 4.85132752,8 5.94594595,8 Z M11.8918919,8 C12.9865103,8 13.8738739,7.1045695 13.8738739,6 C13.8738739,4.8954305 12.9865103,4 11.8918919,4 C10.7972735,4 9.90990991,4.8954305 9.90990991,6 C9.90990991,7.1045695 10.7972735,8 11.8918919,8 Z M17.8378378,8 C18.9324563,8 19.8198198,7.1045695 19.8198198,6 C19.8198198,4.8954305 18.9324563,4 17.8378378,4 C16.7432194,4 15.8558559,4.8954305 15.8558559,6 C15.8558559,7.1045695 16.7432194,8 17.8378378,8 Z" id="Oval-4" fill="#95A3BF" opacity="0.33"></path>
                        </g>
                    </g>
                </g>
            </g>
        </g>
    </g>
</svg>