<?xml version="1.0" encoding="UTF-8"?>
<svg width="299px" height="164px" viewBox="0 0 299 164" version="1.1" xmlns="http://www.w3.org/2000/svg" xmlns:xlink="http://www.w3.org/1999/xlink">
    <title>E456EC32-2047-44E1-9548-F616AC208D65</title>
    <defs>
        <linearGradient x1="50%" y1="50%" x2="52.9793104%" y2="51.386177%" id="linearGradient-1">
            <stop stop-color="#FFFFFF" stop-opacity="0.7" offset="0%"></stop>
            <stop stop-color="#FFFFFF" stop-opacity="0" offset="100%"></stop>
        </linearGradient>
        <path d="M40,6 L214,6 C216.761424,6 219,8.23857625 219,11 L219,129 L219,129 L35,129 L35,11 C35,8.23857625 37.2385763,6 40,6 Z" id="path-2"></path>
        <linearGradient x1="50%" y1="49.8604439%" x2="50%" y2="50.731762%" id="linearGradient-3">
            <stop stop-color="#000000" stop-opacity="0" offset="0%"></stop>
            <stop stop-color="#000000" stop-opacity="0.07" offset="100%"></stop>
        </linearGradient>
        <path d="M1.25,18 C1.25,18.6627417 1.80964406,19.2 2.5,19.2 L5,19.2 L5,22.8 C5,23.4627417 5.55964406,24 6.25,24 L13.75,24 C14.4403559,24 15,23.4627417 15,22.8 L15,19.2 L17.5,19.2 C18.1903559,19.2 18.75,18.6627417 18.75,18 L18.75,9.6 L20,9.6 L20,7.2 L15,7.2 L15,0 L12.5,0 L12.5,7.2 L7.5,7.2 L7.5,0 L5,0 L5,7.2 L0,7.2 L0,9.6 L1.25,9.6 L1.25,18 Z" id="path-4"></path>
    </defs>
    <g id="Nuevo-UI-Menu/Head" stroke="none" stroke-width="1" fill="none" fill-rule="evenodd">
        <g id="Mockup---No-data-screens" transform="translate(-631, -1951)">
            <g id="Consolas-visuales" transform="translate(601, 1920)">
                <g id="Top" transform="translate(30, 30)">
                    <g id="No-Visual-Console-found" transform="translate(0, 1)">
                        <g id="Base" transform="translate(23, 14)">
                            <path d="M225,103 L238,103 C245.179702,103 251,108.820298 251,116 C251,123.179702 245.179702,129 238,129 L225,129 L225,129" id="Path-5" stroke="#222222" stroke-width="1.4" stroke-linejoin="round"></path>
                            <path d="M38.8461538,0 L214.846154,0 C220.369001,-1.01453063e-15 224.846154,4.4771525 224.846154,10 L224.846154,140 L224.846154,140 L28.8461538,140 L28.8461538,10 C28.8461538,4.4771525 33.3233063,1.01453063e-15 38.8461538,0 Z" id="Rectangle" stroke="#222222" stroke-width="1.4" fill="#FFFFFF" stroke-linejoin="round"></path>
                            <g id="Rectangle">
                                <use fill="#D0E7FD" xlink:href="#path-2"></use>
                                <use fill="url(#linearGradient-1)" xlink:href="#path-2"></use>
                            </g>
                            <path d="M0,139 L254,139 L254,141 C254,145.418278 250.418278,149 246,149 L8,149 C3.581722,149 5.41083001e-16,145.418278 0,141 L0,139 L0,139 Z" id="Rectangle" stroke="#222222" stroke-width="1.4" fill="#FFFFFF" stroke-linejoin="round"></path>
                        </g>
                        <g id="X" transform="translate(0, 13)">
                            <g id="BAse">
                                <circle id="Oval" fill="#95A3BF" opacity="0.25" cx="35" cy="35" r="35"></circle>
                                <path d="M35,10 C48.8071187,10 60,21.1928813 60,35 C60,48.8071187 48.8071187,60 35,60 C21.1928813,60 10,48.8071187 10,35 C10,21.1928813 21.1928813,10 35,10 Z M35,19.8837209 C26.6515096,19.8837209 19.8837209,26.6515096 19.8837209,35 C19.8837209,43.3484904 26.6515096,50.1162791 35,50.1162791 C43.3484904,50.1162791 50.1162791,43.3484904 50.1162791,35 C50.1162791,26.6515096 43.3484904,19.8837209 35,19.8837209 Z" id="Oval-3" fill="#95A3BF" opacity="0.25"></path>
                                <path d="M25.9383632,25.9383632 C27.1895142,24.6872123 29.2180307,24.6872123 30.4691816,25.9383632 L35,30.469 L39.5308184,25.9383632 C40.7819693,24.6872123 42.8104858,24.6872123 44.0616368,25.9383632 C45.3127877,27.1895142 45.3127877,29.2180307 44.0616368,30.4691816 L39.531,35 L44.0616368,39.5308184 C45.2664488,40.7356304 45.3110715,42.6612917 44.1955048,43.9195 L44.0616368,44.0616368 C42.8104858,45.3127877 40.7819693,45.3127877 39.5308184,44.0616368 L35,39.531 L30.4691816,44.0616368 C29.2180307,45.3127877 27.1895142,45.3127877 25.9383632,44.0616368 C24.6872123,42.8104858 24.6872123,40.7819693 25.9383632,39.5308184 L30.469,35 L25.9383632,30.4691816 C24.7335512,29.2643696 24.6889285,27.3387083 25.8044952,26.0805 Z" id="Rectangle-3" stroke="#222222" stroke-width="1.4" fill="#ED474A" stroke-linejoin="round"></path>
                            </g>
                            <g id="Top" transform="translate(24, 50)" stroke-linejoin="round">
                                <g id="Path">
                                    <use fill="#FFFFFF" xlink:href="#path-4"></use>
                                    <use stroke="#222222" stroke-width="1.4" fill="url(#linearGradient-3)" xlink:href="#path-4"></use>
                                </g>
                                <path d="M10,24 L10,36 C10,45.9411255 18.0588745,54 28,54 L28,54 L28,54" id="Path-4" stroke="#222222" stroke-width="1.4"></path>
                            </g>
                        </g>
                        <g id="Screen" transform="translate(64, 25)">
                            <rect id="Rectangle" stroke="#95A3BF" stroke-width="1.4" x="0" y="0" width="172" height="15" rx="3"></rect>
                            <rect id="Rectangle" stroke="#95A3BF" stroke-width="1.4" x="0" y="23" width="70" height="46" rx="3"></rect>
                            <rect id="Rectangle-Copy-2" stroke="#95A3BF" stroke-width="1.4" x="0" y="77" width="52" height="36" rx="3"></rect>
                            <rect id="Rectangle-Copy-3" stroke="#95A3BF" stroke-width="1.4" x="60" y="77" width="52" height="36" rx="3"></rect>
                            <rect id="Rectangle-Copy-4" stroke="#95A3BF" stroke-width="1.4" x="120" y="77" width="52" height="36" rx="3"></rect>
                            <rect id="Rectangle-Copy" stroke="#222222" stroke-width="1.4" fill="#FFFFFF" stroke-linejoin="round" x="78" y="23" width="94" height="46" rx="3"></rect>
                            <path d="M8,89 C10.209139,89 12,87.209139 12,85 C12,82.790861 10.209139,81 8,81 C5.790861,81 4,82.790861 4,85 C4,87.209139 5.790861,89 8,89 Z M8,99 C10.209139,99 12,97.209139 12,95 C12,92.790861 10.209139,91 8,91 C5.790861,91 4,92.790861 4,95 C4,97.209139 5.790861,99 8,99 Z M20,99 C22.209139,99 24,97.209139 24,95 C24,92.790861 22.209139,91 20,91 C17.790861,91 16,92.790861 16,95 C16,97.209139 17.790861,99 20,99 Z M32,99 C34.209139,99 36,97.209139 36,95 C36,92.790861 34.209139,91 32,91 C29.790861,91 28,92.790861 28,95 C28,97.209139 29.790861,99 32,99 Z M32,109 C34.209139,109 36,107.209139 36,105 C36,102.790861 34.209139,101 32,101 C29.790861,101 28,102.790861 28,105 C28,107.209139 29.790861,109 32,109 Z" id="Oval-2" stroke="#222222" stroke-width="1.4" fill="#FFFFFF" stroke-linejoin="round"></path>
                            <path d="M148.78,90.95 C148.77,90.84 148.75,90.72 148.75,90.62 C148.75,89.95 149.12,89.42 149.88,89.42 C150.61,89.42 150.97,89.9 150.97,90.43 C150.97,90.9 150.72,91.29 150.14,91.65 L149.07,92.32 C147.94,93.02 147.55,93.89 147.53,95 L152.22,95 L152.22,93.94 L149.01,93.94 C149.1,93.62 149.36,93.39 149.67,93.2 L150.93,92.42 C151.71,91.94 152.18,91.25 152.18,90.41 C152.18,89.3 151.33,88.37 149.9,88.37 C148.43,88.37 147.59,89.38 147.59,90.5 C147.59,90.63 147.61,90.78 147.62,90.87 L148.78,90.95 Z M155.65,95 L155.65,88.52 L154.61,88.52 C154.47,89.2 153.83,89.72 152.9,89.74 L152.9,90.56 L154.47,90.56 L154.47,95 L155.65,95 Z M158.1,91.76 C158.1,90.94 158.24,90.31 158.56,89.91 C158.78,89.62 159.09,89.43 159.56,89.43 C160.03,89.43 160.33,89.62 160.56,89.91 C160.87,90.31 161.01,90.94 161.01,91.76 C161.01,92.58 160.87,93.21 160.56,93.61 C160.33,93.9 160.03,94.09 159.56,94.09 C159.09,94.09 158.78,93.9 158.56,93.61 C158.25,93.21 158.1,92.58 158.1,91.76 Z M156.91,91.76 C156.91,92.62 157.05,93.43 157.49,94.09 C157.91,94.72 158.59,95.15 159.56,95.15 C160.53,95.15 161.2,94.72 161.62,94.09 C162.06,93.43 162.2,92.62 162.2,91.76 C162.2,90.9 162.06,90.09 161.62,89.43 C161.2,88.8 160.53,88.37 159.56,88.37 C158.59,88.37 157.91,88.8 157.49,89.43 C157.05,90.09 156.91,90.9 156.91,91.76 Z M164.21,90.95 C164.2,90.84 164.18,90.72 164.18,90.62 C164.18,89.95 164.55,89.42 165.31,89.42 C166.04,89.42 166.4,89.9 166.4,90.43 C166.4,90.9 166.15,91.29 165.57,91.65 L164.5,92.32 C163.37,93.02 162.98,93.89 162.96,95 L167.65,95 L167.65,93.94 L164.44,93.94 C164.53,93.62 164.79,93.39 165.1,93.2 L166.36,92.42 C167.14,91.94 167.61,91.25 167.61,90.41 C167.61,89.3 166.76,88.37 165.33,88.37 C163.86,88.37 163.02,89.38 163.02,90.5 C163.02,90.63 163.04,90.78 163.05,90.87 L164.21,90.95 Z M149.76,108 L149.76,101.52 L148.72,101.52 C148.58,102.2 147.94,102.72 147.01,102.74 L147.01,103.56 L148.58,103.56 L148.58,108 L149.76,108 Z M152.73,105.06 C152.83,105.01 153.03,104.95 153.34,104.95 C153.89,104.95 154.49,105.27 154.49,106.02 C154.49,106.61 154.05,107.12 153.26,107.12 C152.54,107.12 152,106.61 151.97,105.86 L150.8,106.1 C150.88,107.18 151.77,108.15 153.27,108.15 C154.81,108.15 155.7,107.14 155.7,106.03 C155.7,104.78 154.73,104.08 153.76,104.06 L155.52,102.52 L155.52,101.52 L151.02,101.52 L151.02,102.57 L153.97,102.57 L152.18,104.17 L152.73,105.06 Z M157.67,104.76 C157.67,103.94 157.81,103.31 158.13,102.91 C158.35,102.62 158.66,102.43 159.13,102.43 C159.6,102.43 159.9,102.62 160.13,102.91 C160.44,103.31 160.58,103.94 160.58,104.76 C160.58,105.58 160.44,106.21 160.13,106.61 C159.9,106.9 159.6,107.09 159.13,107.09 C158.66,107.09 158.35,106.9 158.13,106.61 C157.82,106.21 157.67,105.58 157.67,104.76 Z M156.48,104.76 C156.48,105.62 156.62,106.43 157.06,107.09 C157.48,107.72 158.16,108.15 159.13,108.15 C160.1,108.15 160.77,107.72 161.19,107.09 C161.63,106.43 161.77,105.62 161.77,104.76 C161.77,103.9 161.63,103.09 161.19,102.43 C160.77,101.8 160.1,101.37 159.13,101.37 C158.16,101.37 157.48,101.8 157.06,102.43 C156.62,103.09 156.48,103.9 156.48,104.76 Z M167.51,101.69 C167.23,101.51 166.73,101.37 166.13,101.37 C164.12,101.37 162.65,102.79 162.65,105.14 C162.65,106.8 163.59,108.15 165.24,108.15 C166.6,108.15 167.7,107.25 167.7,105.9 C167.7,104.57 166.79,103.71 165.5,103.71 C164.81,103.71 164.19,103.96 163.85,104.48 C163.96,103.22 164.84,102.41 166.06,102.41 C166.59,102.41 166.93,102.54 167.17,102.67 L167.51,101.69 Z M163.98,105.92 C163.98,105.16 164.56,104.71 165.24,104.71 C165.92,104.71 166.5,105.16 166.5,105.92 C166.5,106.67 165.92,107.13 165.24,107.13 C164.58,107.13 163.98,106.66 163.98,105.92 Z" id="Path-2" fill="#95A3BF" fill-rule="nonzero"></path>
                            <g id="Group-2" transform="translate(79, 29)" stroke="#95A3BF" stroke-width="1.4">
                                <path d="M0,9 L17,9 C19.7614237,9 22,11.2385763 22,14 L22,22 C22,24.7614237 24.2385763,27 27,27 L52,27 C54.7614237,27 57,24.7614237 57,22 L57,19 C57,16.2385763 59.2385763,14 62,14 C72,14 82,14 92,14" id="Path-101"></path>
                                <path d="M0,34 L5.125,34 C8.4387085,34 11.125,31.3137085 11.125,28 L11.125,6 C11.125,2.6862915 13.8112915,3.27325364e-15 17.125,2.66453526e-15 L30.3537234,-8.8817842e-16 C33.6674319,-1.4968968e-15 36.3537234,2.6862915 36.3537234,6 L36.3537234,14.2258852 C36.3537234,17.299438 38.8453302,19.7910448 41.918883,19.7910448 C44.9924357,19.7910448 47.4840426,17.299438 47.4840426,14.2258852 L47.4840426,10.0597015 C47.4840426,6.74599299 50.1703341,4.05970149 53.4840426,4.05970149 L68.4441489,4.05970149 C71.7578574,4.05970149 74.4441489,6.74599299 74.4441489,10.0597015 L74.4441489,28 C74.4441489,31.3137085 77.1304404,34 80.4441489,34 L92,34 L92,34" id="Path-102"></path>
                            </g>
                        </g>
                    </g>
                </g>
            </g>
        </g>
    </g>
</svg>