<?xml version="1.0" encoding="UTF-8"?>
<svg width="300px" height="165px" viewBox="0 0 300 165" version="1.1" xmlns="http://www.w3.org/2000/svg" xmlns:xlink="http://www.w3.org/1999/xlink">
    <title>4960C5A6-9E07-4510-BA7E-097B9AE32028</title>
    <defs>
        <linearGradient x1="50%" y1="50%" x2="52.9793104%" y2="51.386177%" id="linearGradient-1">
            <stop stop-color="#FFFFFF" stop-opacity="0.7" offset="0%"></stop>
            <stop stop-color="#FFFFFF" stop-opacity="0" offset="100%"></stop>
        </linearGradient>
        <path d="M40,6 L214,6 C216.761424,6 219,8.23857625 219,11 L219,129 L219,129 L35,129 L35,11 C35,8.23857625 37.2385763,6 40,6 Z" id="path-2"></path>
        <linearGradient x1="50%" y1="49.8604439%" x2="50%" y2="50.731762%" id="linearGradient-3">
            <stop stop-color="#000000" stop-opacity="0" offset="0%"></stop>
            <stop stop-color="#000000" stop-opacity="0.07" offset="100%"></stop>
        </linearGradient>
        <path d="M1.25,18 C1.25,18.6627417 1.80964406,19.2 2.5,19.2 L5,19.2 L5,22.8 C5,23.4627417 5.55964406,24 6.25,24 L13.75,24 C14.4403559,24 15,23.4627417 15,22.8 L15,19.2 L17.5,19.2 C18.1903559,19.2 18.75,18.6627417 18.75,18 L18.75,9.6 L20,9.6 L20,7.2 L15,7.2 L15,0 L12.5,0 L12.5,7.2 L7.5,7.2 L7.5,0 L5,0 L5,7.2 L0,7.2 L0,9.6 L1.25,9.6 L1.25,18 Z" id="path-4"></path>
    </defs>
    <g id="Nuevo-UI-Menu/Head" stroke="none" stroke-width="1" fill="none" fill-rule="evenodd">
        <g id="Mockup---No-data-screens" transform="translate(-631, -176)">
            <g id="VMware" transform="translate(601, 146)">
                <g id="Body" transform="translate(30, 30)">
                    <g id="No-VMWare-found" transform="translate(0, 1)">
                        <g id="Base" transform="translate(23, 14)">
                            <path d="M225,103 L238,103 C245.179702,103 251,108.820298 251,116 C251,123.179702 245.179702,129 238,129 L225,129 L225,129" id="Path-5" stroke="#222222" stroke-width="1.4" stroke-linejoin="round"></path>
                            <path d="M38.8461538,0 L214.846154,0 C220.369001,-1.01453063e-15 224.846154,4.4771525 224.846154,10 L224.846154,140 L224.846154,140 L28.8461538,140 L28.8461538,10 C28.8461538,4.4771525 33.3233063,1.01453063e-15 38.8461538,0 Z" id="Rectangle" stroke="#222222" stroke-width="1.4" fill="#FFFFFF" stroke-linejoin="round"></path>
                            <g id="Rectangle">
                                <use fill="#D0E7FD" xlink:href="#path-2"></use>
                                <use fill="url(#linearGradient-1)" xlink:href="#path-2"></use>
                            </g>
                            <path d="M0,139 L254,139 L254,141 C254,145.418278 250.418278,149 246,149 L8,149 C3.581722,149 5.41083001e-16,145.418278 0,141 L0,139 L0,139 Z" id="Rectangle" stroke="#222222" stroke-width="1.4" fill="#FFFFFF" stroke-linejoin="round"></path>
                            <path d="M189,111.087912 C190.577956,111.087912 191.857143,112.367099 191.857143,113.945055 L191.857143,116.142857 C191.857143,117.720814 190.577956,119 189,119 C187.422044,119 186.142857,117.720814 186.142857,116.142857 L186.142857,113.945055 C186.142857,112.367099 187.422044,111.087912 189,111.087912 Z M171.857143,95.9230769 C173.435099,95.9230769 174.714286,97.2022634 174.714286,98.7802198 L174.714286,116.142857 C174.714286,117.720814 173.435099,119 171.857143,119 C170.279186,119 169,117.720814 169,116.142857 L169,98.7802198 C169,97.2022634 170.279186,95.9230769 171.857143,95.9230769 Z M206.142857,95.9230769 C207.720814,95.9230769 209,97.2022634 209,98.7802198 L209,116.142857 C209,117.720814 207.720814,119 206.142857,119 C204.564901,119 203.285714,117.720814 203.285714,116.142857 L203.285714,98.7802198 C203.285714,97.2022634 204.564901,95.9230769 206.142857,95.9230769 Z M197.571429,103.835165 C199.149385,103.835165 200.428571,105.114351 200.428571,106.692308 L200.428571,116.142857 C200.428571,117.720814 199.149385,119 197.571429,119 C195.993472,119 194.714286,117.720814 194.714286,116.142857 L194.714286,106.692308 C194.714286,105.114351 195.993472,103.835165 197.571429,103.835165 Z M180.428571,89 C182.006528,89 183.285714,90.2791864 183.285714,91.8571429 L183.285714,116.142857 C183.285714,117.720814 182.006528,119 180.428571,119 C178.850615,119 177.571429,117.720814 177.571429,116.142857 L177.571429,91.8571429 C177.571429,90.2791864 178.850615,89 180.428571,89 Z" id="Rectangle-Copy-6" fill="#FFFFFF"></path>
                        </g>
                        <g id="X" transform="translate(0, 13)">
                            <g id="BAse">
                                <circle id="Oval" fill="#95A3BF" opacity="0.25" cx="35" cy="35" r="35"></circle>
                                <path d="M35,10 C48.8071187,10 60,21.1928813 60,35 C60,48.8071187 48.8071187,60 35,60 C21.1928813,60 10,48.8071187 10,35 C10,21.1928813 21.1928813,10 35,10 Z M35,19.8837209 C26.6515096,19.8837209 19.8837209,26.6515096 19.8837209,35 C19.8837209,43.3484904 26.6515096,50.1162791 35,50.1162791 C43.3484904,50.1162791 50.1162791,43.3484904 50.1162791,35 C50.1162791,26.6515096 43.3484904,19.8837209 35,19.8837209 Z" id="Oval-3" fill="#D2D7E3"></path>
                                <path d="M25.9383632,25.9383632 C27.1895142,24.6872123 29.2180307,24.6872123 30.4691816,25.9383632 L35,30.469 L39.5308184,25.9383632 C40.7819693,24.6872123 42.8104858,24.6872123 44.0616368,25.9383632 C45.3127877,27.1895142 45.3127877,29.2180307 44.0616368,30.4691816 L39.531,35 L44.0616368,39.5308184 C45.2664488,40.7356304 45.3110715,42.6612917 44.1955048,43.9195 L44.0616368,44.0616368 C42.8104858,45.3127877 40.7819693,45.3127877 39.5308184,44.0616368 L35,39.531 L30.4691816,44.0616368 C29.2180307,45.3127877 27.1895142,45.3127877 25.9383632,44.0616368 C24.6872123,42.8104858 24.6872123,40.7819693 25.9383632,39.5308184 L30.469,35 L25.9383632,30.4691816 C24.7335512,29.2643696 24.6889285,27.3387083 25.8044952,26.0805 Z" id="Rectangle-3" stroke="#222222" stroke-width="1.4" fill="#ED474A" stroke-linejoin="round"></path>
                            </g>
                            <g id="Top" transform="translate(24, 50)" stroke-linejoin="round">
                                <g id="Path">
                                    <use fill="#FFFFFF" xlink:href="#path-4"></use>
                                    <use stroke="#222222" stroke-width="1.4" fill="url(#linearGradient-3)" xlink:href="#path-4"></use>
                                </g>
                                <path d="M10,24 L10,36 C10,45.9411255 18.0588745,54 28,54 L28,54 L28,54" id="Path-4" stroke="#222222" stroke-width="1.4"></path>
                            </g>
                        </g>
                        <g id="Center-logo" transform="translate(80, 71)" fill="#95A3BF" opacity="0.66">
                            <path d="M63.170036,19.4676428 L56.9358069,2.27982515 C56.8552735,2.04058424 56.7368421,1.72628736 56.7368421,1.45420946 C56.7368421,0.708340737 57.3716344,0 58.2859249,0 C59.0817839,0 59.5981449,0.516009808 59.8350077,1.25718753 L64.9986169,16.066669 L70.2001242,1.21496855 C70.436987,0.51131881 70.9154499,0 71.7065717,0 L71.8676384,0 C72.7013955,0 73.2224937,0.516009808 73.4593565,1.21496855 L78.6182285,16.066669 L83.8671084,1.17744056 C84.0660731,0.548846796 84.5019007,0 85.3356578,0 C86.1694149,0 86.8421053,0.666121753 86.8421053,1.41668147 C86.8421053,1.68875937 86.7236739,2.00774725 86.6431405,2.24698817 L80.366276,19.4723338 C80.0441426,20.3730054 79.4093503,20.8421053 78.6987619,20.8421053 L78.5755932,20.8421053 C77.7844714,20.8421053 77.1875771,20.3730054 76.9033418,19.4723338 L71.7871051,4.86456519 L66.6234958,19.4723338 C66.3487349,20.3730054 65.7471034,20.8421053 64.9559816,20.8421053 L64.8754483,20.8421053 C64.1222245,20.8421053 63.4874322,20.3730054 63.170036,19.4723338 M108.842105,1.53760921 C108.842105,0.707862774 109.510212,0 110.338288,0 C111.208708,0 111.88152,0.665672278 111.88152,1.53760921 L111.88152,5.02535691 C113.382408,1.64074153 116.708826,0.0421904965 118.91546,0.0421904965 C119.823521,0.0421904965 120.421053,0.712550607 120.421053,1.57511187 C120.421053,2.43767313 119.865865,2.99083742 119.075429,3.11272107 C115.123249,3.5861922 111.88152,6.53483912 111.88152,12.4086938 L111.88152,19.3091839 C111.88152,20.1342425 111.251053,20.8421053 110.380633,20.8421053 C109.510212,20.8421053 108.842105,20.1717452 108.842105,19.3091839 L108.842105,1.53760921 M130.829416,22 C125.098198,22 120.421053,17.5588235 120.421053,11.0392157 L120.421053,10.9558824 C120.421053,4.89215686 124.656957,0 130.427397,0 C136.594953,0 140.105263,5.08823529 140.105263,10.6764706 C140.105263,11.5294118 139.413987,12.1421569 138.654074,12.1421569 L123.568565,12.1421569 C124.004903,16.7058824 127.191637,19.2696078 130.907859,19.2696078 C133.491565,19.2696078 135.383994,18.254902 136.918529,16.8235294 C137.15876,16.622549 137.443115,16.4607843 137.805912,16.4607843 C138.565826,16.4607843 139.178659,17.0735294 139.178659,17.8088235 C139.178659,18.1715686 139.021774,18.5392157 138.688392,18.8235294 C136.712617,20.7352941 134.374045,22 130.824513,22 M136.996972,9.81372549 C136.673396,5.98529412 134.491709,2.64705882 130.339149,2.64705882 C126.706273,2.64705882 123.960779,5.70098039 123.563663,9.81372549 L136.992069,9.81372549 L136.996972,9.81372549 Z M86.8469793,15.3788792 L86.8469793,15.2953784 C86.8469793,10.8158071 90.5171492,8.42866711 95.863997,8.42866711 C98.5544801,8.42866711 100.469987,8.80196472 102.35625,9.33244028 L102.35625,8.59075687 C102.35625,4.76445635 100.021573,2.78990846 96.0687077,2.78990846 C93.9436159,2.78990846 92.7104779,3.06496986 91.1556516,3.76244697 C90.9509409,3.84594776 90.7462302,3.88524224 90.5853861,3.88524224 C89.8494025,3.88524224 89.1914039,3.2663541 89.1914039,2.5295825 C89.1914039,1.87139987 89.4789737,1.46863139 90.0541132,1.20830543 C92.1304643,0.299620451 93.6950387,0 96.3903959,0 C99.3684487,0 101.654385,0.776066086 103.204337,2.34293369 C104.632437,3.78209422 105.368421,5.84014289 105.368421,8.55146238 L105.368421,20.2857781 C105.368421,21.1895512 104.715297,21.8477339 103.852587,21.8477339 C102.989878,21.8477339 102.351376,21.1895512 102.351376,20.364367 L102.351376,18.3357892 C100.879408,20.2710426 98.4326285,22 94.7234661,22 C90.804719,22 86.8421053,19.7356553 86.8421053,15.3788792 M102.390368,13.7334226 L102.390368,11.6802858 C100.840416,11.2283992 98.7543167,10.7716008 96.1856852,10.7716008 C92.2328196,10.7716008 90.0248688,12.50547 90.0248688,15.1725832 L90.0248688,15.2560839 C90.0248688,17.928109 92.4716487,19.4900647 95.32785,19.4900647 C99.2027306,19.4900647 102.385494,17.1029248 102.385494,13.7334226 M5.70076123,1.74885346 C5.01557935,0.259445294 3.32675079,-0.422799738 1.74890239,0.283468006 C0.171053991,0.980126665 -0.412798169,2.72417558 0.301335052,4.22319284 L6.93119346,18.5695567 C7.97344195,20.8180826 9.07359313,22 11.133964,22 C13.3342663,22 14.2993112,20.7123826 15.3367345,18.5695567 C15.3367345,18.5695567 21.1221786,6.02970081 21.1752561,5.9047827 C21.237984,5.77025551 21.4213425,5.36667395 22.0100199,5.36667395 C22.507018,5.37147849 22.9268126,5.76545097 22.9268126,6.29395064 L22.9268126,18.5599476 C22.9268126,20.4481328 23.9787115,22 26.0053058,22 C28.0319,22 29.1224008,20.4481328 29.1224008,18.5599476 L29.1224008,8.5280629 C29.1224008,6.59183228 30.5168906,5.33784669 32.4132039,5.33784669 C34.3095171,5.33784669 35.5737259,6.63507316 35.5737259,8.5280629 L35.5737259,18.5599476 C35.5737259,20.4481328 36.63045,22 38.6522191,22 C40.6739881,22 41.7741393,20.4481328 41.7741393,18.5599476 L41.7741393,8.5280629 C41.7741393,6.59183228 43.163804,5.33784669 45.0601172,5.33784669 C46.9564304,5.33784669 48.2206392,6.63507316 48.2206392,8.5280629 L48.2206392,18.5599476 C48.2206392,20.4481328 49.2725381,22 51.2991324,22 C53.3257267,22 54.4210526,20.4481328 54.4210526,18.5599476 L54.4210526,7.13955012 C54.4210526,2.94038 51.0337451,0 46.9564304,0 C42.8791157,0 40.3313972,2.81065735 40.3313972,2.81065735 C38.9755091,1.06180389 37.1081473,0.00480454248 33.9428,0.00480454248 C30.6037447,0.00480454248 27.6844839,2.81065735 27.6844839,2.81065735 C26.3237706,1.06180389 24.0173133,0.00480454248 22.1065244,0.00480454248 C19.1486618,0.00480454248 16.7987775,1.29722647 15.3705111,4.56431535 L11.133964,14.5001092 L5.70076123,1.74885346" id="Path-3"></path>
                        </g>
                        <g id="Top" transform="translate(211, 0)">
                            <rect id="Rectangle-Copy-8" stroke="#95A3BF" stroke-width="1.4" fill-opacity="0.9" fill="#FFFFFF" x="20" y="34" width="68" height="50" rx="4"></rect>
                            <rect id="Rectangle" stroke="#95A3BF" stroke-width="1.4" x="0" y="0" width="70.3603604" height="54" rx="4"></rect>
                            <path d="M5.94594595,8 C7.04056437,8 7.92792793,7.1045695 7.92792793,6 C7.92792793,4.8954305 7.04056437,4 5.94594595,4 C4.85132752,4 3.96396396,4.8954305 3.96396396,6 C3.96396396,7.1045695 4.85132752,8 5.94594595,8 Z M11.8918919,8 C12.9865103,8 13.8738739,7.1045695 13.8738739,6 C13.8738739,4.8954305 12.9865103,4 11.8918919,4 C10.7972735,4 9.90990991,4.8954305 9.90990991,6 C9.90990991,7.1045695 10.7972735,8 11.8918919,8 Z M17.8378378,8 C18.9324563,8 19.8198198,7.1045695 19.8198198,6 C19.8198198,4.8954305 18.9324563,4 17.8378378,4 C16.7432194,4 15.8558559,4.8954305 15.8558559,6 C15.8558559,7.1045695 16.7432194,8 17.8378378,8 Z" id="Oval-4" fill="#95A3BF" opacity="0.33"></path>
                        </g>
                    </g>
                </g>
            </g>
        </g>
    </g>
</svg>