<?xml version="1.0" encoding="UTF-8"?>
<svg width="1946px" height="456px" viewBox="0 0 1946 456" version="1.1" xmlns="http://www.w3.org/2000/svg" xmlns:xlink="http://www.w3.org/1999/xlink">
    <title>BB0CC5B6-76D4-4142-933D-B9E12CF76BA1</title>
    <defs>
        <linearGradient x1="50%" y1="0%" x2="50%" y2="100%" id="linearGradient-1">
            <stop stop-color="#EDEFFA" offset="0%"></stop>
            <stop stop-color="#FFFFFF" offset="100%"></stop>
        </linearGradient>
        <linearGradient x1="50%" y1="0%" x2="50%" y2="52.0331512%" id="linearGradient-2">
            <stop stop-color="#FFFFFF" offset="0%"></stop>
            <stop stop-color="#F5F6FB" offset="100%"></stop>
        </linearGradient>
    </defs>
    <g id="Get-Pandora-RC-now!" stroke="none" stroke-width="1" fill="none" fill-rule="evenodd">
        <g id="Mockup---Pandora-RC-marketing-screen-alt" transform="translate(-122, -137)" fill-rule="nonzero">
            <g id="eHorus-banner-top-white" transform="translate(305, 138)">
                <g id="PRC-Banner-v2" transform="translate(-183, -1)">
                    <rect id="Rectangle" fill="url(#linearGradient-1)" x="0" y="0" width="1946" height="456"></rect>
                    <g id="Group-99" transform="translate(1275, 173)" fill="#FFFFFF">
                        <path d="M3.52543376,49.9958775 C5.47217889,49.9958775 7.05086752,51.5640999 7.05086752,53.4979388 C7.05086752,55.4317776 5.47217889,57 3.52543376,57 C1.57868863,57 0,55.4317776 0,53.4979388 C0,51.5640999 1.57868863,49.9958775 3.52543376,49.9958775 Z M32.5168287,49.9958775 C34.4635738,49.9958775 36.0422624,51.5640999 36.0422624,53.4979388 C36.0422624,55.4317776 34.4635738,57 32.5168287,57 C30.5700835,57 28.9913949,55.4317776 28.9913949,53.4979388 C28.9913949,51.5640999 30.5700835,49.9958775 32.5168287,49.9958775 Z M61.508325,49.9958775 C63.4550701,49.9958775 65.0337587,51.5640999 65.0337587,53.4979388 C65.0337587,55.4317776 63.4550701,57 61.508325,57 C59.5615798,57 57.9828912,55.4317776 57.9828912,53.4979388 C57.9828912,51.5640999 59.5615798,49.9958775 61.508325,49.9958775 Z M90.4998213,49.9958775 C92.4465664,49.9958775 94.025255,51.5640999 94.025255,53.4979388 C94.025255,55.4317776 92.4465664,57 90.4998213,57 C88.5530762,57 86.9743875,55.4317776 86.9743875,53.4979388 C86.9743875,51.5640999 88.5530762,49.9958775 90.4998213,49.9958775 Z M119.491216,49.9958775 C121.437961,49.9958775 123.01665,51.5640999 123.01665,53.4979388 C123.01665,55.4317776 121.437961,57 119.491216,57 C117.544471,57 115.965782,55.4317776 115.965782,53.4979388 C115.965782,51.5640999 117.544471,49.9958775 119.491216,49.9958775 Z M148.517389,49.9958775 C150.464134,49.9958775 152.042823,51.5640999 152.042823,53.4979388 C152.042823,55.4317776 150.464134,57 148.517389,57 L148.500946,57 C148.494838,57 148.488726,57 148.482611,57 C146.535866,57 144.957177,55.4317776 144.957177,53.4979388 C144.957177,51.5640999 146.535866,49.9958775 148.482611,49.9958775 L148.517389,49.9958775 L148.517389,49.9958775 Z M177.508784,49.9958775 C179.455529,49.9958775 181.034218,51.5640999 181.034218,53.4979388 C181.034218,55.4317776 179.455529,57 177.508784,57 C175.562039,57 173.98335,55.4317776 173.98335,53.4979388 C173.98335,51.5640999 175.562039,49.9958775 177.508784,49.9958775 Z M206.50028,49.9958775 C208.447025,49.9958775 210.025714,51.5640999 210.025714,53.4979388 C210.025714,55.4317776 208.447025,57 206.50028,57 C204.553535,57 202.974846,55.4317776 202.974846,53.4979388 C202.974846,51.5640999 204.553535,49.9958775 206.50028,49.9958775 Z M235.491776,49.9958775 C237.438522,49.9958775 239.01721,51.5640999 239.01721,53.4979388 C239.01721,55.4317776 237.438522,57 235.491776,57 C233.545031,57 231.966343,55.4317776 231.966343,53.4979388 C231.966343,51.5640999 233.545031,49.9958775 235.491776,49.9958775 Z M264.483171,49.9958775 C266.429916,49.9958775 268.008605,51.5640999 268.008605,53.4979388 C268.008605,55.4317776 266.429916,57 264.483171,57 C262.536426,57 260.957738,55.4317776 260.957738,53.4979388 C260.957738,51.5640999 262.536426,49.9958775 264.483171,49.9958775 Z M293.474566,49.9958775 C295.421311,49.9958775 297,51.5640999 297,53.4979388 C297,55.4317776 295.421311,57 293.474566,57 C291.527821,57 289.949132,55.4317776 289.949132,53.4979388 C289.949132,51.5640999 291.527821,49.9958775 293.474566,49.9958775 Z M148.517389,24.9225493 C150.464134,24.9225493 152.042823,26.4907717 152.042823,28.4246105 L152.042005,28.4992464 C152.042549,28.5245623 152.042823,28.5499442 152.042823,28.5753895 C152.042823,30.5092283 150.464134,32.0774507 148.517389,32.0774507 L148.482611,32.0774507 L148.482611,32.0774507 C146.535866,32.0774507 144.957177,30.5092283 144.957177,28.5753895 L144.957973,28.4997409 C144.957443,28.4747609 144.957177,28.4497165 144.957177,28.4246105 C144.957177,26.4907717 146.535866,24.9225493 148.482611,24.9225493 L148.517389,24.9225493 L148.517389,24.9225493 Z M177.508784,24.9225493 C179.455529,24.9225493 181.034218,26.4907717 181.034218,28.4246105 L181.0334,28.4992464 C181.033944,28.5245623 181.034218,28.5499442 181.034218,28.5753895 C181.034218,30.5092283 179.455529,32.0774507 177.508784,32.0774507 C175.562039,32.0774507 173.98335,30.5092283 173.98335,28.5753895 L173.984146,28.4997409 C173.983616,28.4747609 173.98335,28.4497165 173.98335,28.4246105 C173.98335,26.4907717 175.562039,24.9225493 177.508784,24.9225493 Z M206.50028,24.9225493 C208.447025,24.9225493 210.025714,26.4907717 210.025714,28.4246105 L210.024897,28.4992464 C210.02544,28.5245623 210.025714,28.5499442 210.025714,28.5753895 C210.025714,30.5092283 208.447025,32.0774507 206.50028,32.0774507 C204.553535,32.0774507 202.974846,30.5092283 202.974846,28.5753895 L202.975642,28.4997409 C202.975112,28.4747609 202.974846,28.4497165 202.974846,28.4246105 C202.974846,26.4907717 204.553535,24.9225493 206.50028,24.9225493 Z M3.52543376,24.9225493 C5.47217889,24.9225493 7.05086752,26.4907717 7.05086752,28.4246105 L7.05005033,28.4992464 C7.05059421,28.5245623 7.05086752,28.5499442 7.05086752,28.5753895 C7.05086752,30.5092283 5.47217889,32.0774507 3.52543376,32.0774507 C1.57868863,32.0774507 0,30.5092283 0,28.5753895 L0.00081719798,28.5007536 C0.000273318961,28.4754377 0,28.4500558 0,28.4246105 C0,26.4907717 1.57868863,24.9225493 3.52543376,24.9225493 Z M61.508325,24.9225493 C63.4550701,24.9225493 65.0337587,26.4907717 65.0337587,28.4246105 L65.0329415,28.4992464 C65.0334854,28.5245623 65.0337587,28.5499442 65.0337587,28.5753895 C65.0337587,30.5092283 63.4550701,32.0774507 61.508325,32.0774507 C59.5615798,32.0774507 57.9828912,30.5092283 57.9828912,28.5753895 L57.9836868,28.4997409 C57.9831573,28.4747609 57.9828912,28.4497165 57.9828912,28.4246105 C57.9828912,26.4907717 59.5615798,24.9225493 61.508325,24.9225493 Z M119.491216,24.9225493 C121.437961,24.9225493 123.01665,26.4907717 123.01665,28.4246105 L123.015833,28.4992464 C123.016376,28.5245623 123.01665,28.5499442 123.01665,28.5753895 C123.01665,30.5092283 121.437961,32.0774507 119.491216,32.0774507 C117.544471,32.0774507 115.965782,30.5092283 115.965782,28.5753895 L115.966578,28.4997409 C115.966048,28.4747609 115.965782,28.4497165 115.965782,28.4246105 C115.965782,26.4907717 117.544471,24.9225493 119.491216,24.9225493 Z M235.491776,24.9225493 C237.438522,24.9225493 239.01721,26.4907717 239.01721,28.4246105 L239.016393,28.4992464 C239.016936,28.5245623 239.01721,28.5499442 239.01721,28.5753895 C239.01721,30.5092283 237.438522,32.0774507 235.491776,32.0774507 C233.545031,32.0774507 231.966343,30.5092283 231.966343,28.5753895 L231.967139,28.4997409 C231.966608,28.4747609 231.966343,28.4497165 231.966343,28.4246105 C231.966343,26.4907717 233.545031,24.9225493 235.491776,24.9225493 Z M264.483171,24.9225493 C266.429916,24.9225493 268.008605,26.4907717 268.008605,28.4246105 L268.007788,28.4992464 C268.008331,28.5245623 268.008605,28.5499442 268.008605,28.5753895 C268.008605,30.5092283 266.429916,32.0774507 264.483171,32.0774507 C262.536426,32.0774507 260.957738,30.5092283 260.957738,28.5753895 L260.958533,28.4997409 C260.958003,28.4747609 260.957738,28.4497165 260.957738,28.4246105 C260.957738,26.4907717 262.536426,24.9225493 264.483171,24.9225493 Z M32.5168287,24.9225493 C34.4635738,24.9225493 36.0422624,26.4907717 36.0422624,28.4246105 L36.0414452,28.4992464 C36.0419891,28.5245623 36.0422624,28.5499442 36.0422624,28.5753895 C36.0422624,30.5092283 34.4635738,32.0774507 32.5168287,32.0774507 C30.5700835,32.0774507 28.9913949,30.5092283 28.9913949,28.5753895 L28.9921905,28.4997409 C28.991661,28.4747609 28.9913949,28.4497165 28.9913949,28.4246105 C28.9913949,26.4907717 30.5700835,24.9225493 32.5168287,24.9225493 Z M293.474566,24.9225493 C295.421311,24.9225493 297,26.4907717 297,28.4246105 L296.999183,28.4992464 C296.999726,28.5245623 297,28.5499442 297,28.5753895 C297,30.5092283 295.421311,32.0774507 293.474566,32.0774507 C291.527821,32.0774507 289.949132,30.5092283 289.949132,28.5753895 L289.949928,28.4997409 C289.949398,28.4747609 289.949132,28.4497165 289.949132,28.4246105 C289.949132,26.4907717 291.527821,24.9225493 293.474566,24.9225493 Z M90.4998213,24.9225493 C92.4465664,24.9225493 94.025255,26.4907717 94.025255,28.4246105 L94.0244378,28.4992464 C94.0249817,28.5245623 94.025255,28.5499442 94.025255,28.5753895 C94.025255,30.5092283 92.4465664,32.0774507 90.4998213,32.0774507 C88.5530762,32.0774507 86.9743875,30.5092283 86.9743875,28.5753895 L86.9751832,28.4997409 C86.9746536,28.4747609 86.9743875,28.4497165 86.9743875,28.4246105 C86.9743875,26.4907717 88.5530762,24.9225493 90.4998213,24.9225493 Z M32.5168287,0 C34.4635738,0 36.0422624,1.56822242 36.0422624,3.50206124 C36.0422624,5.43590006 34.4635738,7.00412248 32.5168287,7.00412248 C30.5700835,7.00412248 28.9913949,5.43590006 28.9913949,3.50206124 C28.9913949,1.56822242 30.5700835,0 32.5168287,0 Z M61.508325,0 C63.4550701,0 65.0337587,1.56822242 65.0337587,3.50206124 C65.0337587,5.43590006 63.4550701,7.00412248 61.508325,7.00412248 C59.5615798,7.00412248 57.9828912,5.43590006 57.9828912,3.50206124 C57.9828912,1.56822242 59.5615798,0 61.508325,0 Z M90.4998213,0 C92.4465664,0 94.025255,1.56822242 94.025255,3.50206124 C94.025255,5.43590006 92.4465664,7.00412248 90.4998213,7.00412248 C88.5530762,7.00412248 86.9743875,5.43590006 86.9743875,3.50206124 C86.9743875,1.56822242 88.5530762,0 90.4998213,0 Z M119.491216,0 C121.437961,0 123.01665,1.56822242 123.01665,3.50206124 C123.01665,5.43590006 121.437961,7.00412248 119.491216,7.00412248 C117.544471,7.00412248 115.965782,5.43590006 115.965782,3.50206124 C115.965782,1.56822242 117.544471,0 119.491216,0 Z M148.517389,0 C150.464134,0 152.042823,1.56822242 152.042823,3.50206124 C152.042823,5.43590006 150.464134,7.00412248 148.517389,7.00412248 L148.500946,7.00412248 C148.494838,7.00412248 148.488726,7.00412248 148.482611,7.00412248 C146.535866,7.00412248 144.957177,5.43590006 144.957177,3.50206124 C144.957177,1.56822242 146.535866,0 148.482611,0 L148.517389,0 L148.517389,0 Z M177.508784,0 C179.455529,0 181.034218,1.56822242 181.034218,3.50206124 C181.034218,5.43590006 179.455529,7.00412248 177.508784,7.00412248 C175.562039,7.00412248 173.98335,5.43590006 173.98335,3.50206124 C173.98335,1.56822242 175.562039,0 177.508784,0 Z M206.50028,0 C208.447025,0 210.025714,1.56822242 210.025714,3.50206124 C210.025714,5.43590006 208.447025,7.00412248 206.50028,7.00412248 C204.553535,7.00412248 202.974846,5.43590006 202.974846,3.50206124 C202.974846,1.56822242 204.553535,0 206.50028,0 Z M235.491776,0 C237.438522,0 239.01721,1.56822242 239.01721,3.50206124 C239.01721,5.43590006 237.438522,7.00412248 235.491776,7.00412248 C233.545031,7.00412248 231.966343,5.43590006 231.966343,3.50206124 C231.966343,1.56822242 233.545031,0 235.491776,0 Z M264.483171,0 C266.429916,0 268.008605,1.56822242 268.008605,3.50206124 C268.008605,5.43590006 266.429916,7.00412248 264.483171,7.00412248 C262.536426,7.00412248 260.957738,5.43590006 260.957738,3.50206124 C260.957738,1.56822242 262.536426,0 264.483171,0 Z M293.474566,0 C295.421311,0 297,1.56822242 297,3.50206124 C297,5.43590006 295.421311,7.00412248 293.474566,7.00412248 C291.527821,7.00412248 289.949132,5.43590006 289.949132,3.50206124 C289.949132,1.56822242 291.527821,0 293.474566,0 Z M3.52543376,0 C5.47217889,0 7.05086752,1.56822242 7.05086752,3.50206124 C7.05086752,5.43590006 5.47217889,7.00412248 3.52543376,7.00412248 C1.57868863,7.00412248 0,5.43590006 0,3.50206124 C0,1.56822242 1.57868863,0 3.52543376,0 Z" id="Fill-6"></path>
                    </g>
                    <path d="M1275.71755,0 C1213.58213,102.072006 1101.25571,170.234899 973.01014,170.234899 C844.754427,170.234899 732.428015,102.072006 670.302729,0 L535,0 C606.849156,170.954644 775.90659,291 973.01014,291 C1170.10355,291 1339.16098,170.954644 1411,0 L1275.71755,0 Z" id="Fill-97" fill="url(#linearGradient-2)"></path>
                    <g id="Group-3" transform="translate(183, 268)" fill="#F5F6FB">
                        <path d="M0,74.7461467 L113.382098,188 L0,188 L0,74.7461467 Z M79.6179023,-2.84217094e-14 L193,113.253853 L79.6179023,113.253853 L79.6179023,-2.84217094e-14 Z" id="Fill-4"></path>
                    </g>
                </g>
            </g>
        </g>
    </g>
</svg>