<?xml version="1.0" encoding="UTF-8"?>
<svg width="210px" height="182px" viewBox="0 0 210 182" version="1.1" xmlns="http://www.w3.org/2000/svg" xmlns:xlink="http://www.w3.org/1999/xlink">
    <title>0092E94F-D2F7-4474-84D1-25A07223CAB4</title>
    <defs>
        <rect id="path-1" x="0" y="0" width="210" height="149.333333" rx="4"></rect>
        <polygon id="path-3" points="0 0 7.46546108 0 7.46546108 7.46666667 0 7.46666667"></polygon>
        <rect id="path-5" x="0" y="0" width="210" height="149.333333" rx="4"></rect>
    </defs>
    <g id="Get-Pandora-RC-now!" stroke="none" stroke-width="1" fill="none" fill-rule="evenodd">
        <g id="Mockup---Pandora-RC-marketing-screen-alt" transform="translate(-1260, -577)">
            <g id="Perks" transform="translate(430, 515)">
                <g id="4" transform="translate(810, 42)">
                    <g id="OS-compatible" transform="translate(20, 20)">
                        <rect id="Rectangle" fill="#C0CCDC" x="46" y="0" width="118" height="182" rx="59"></rect>
                        <g id="Group" transform="translate(0, 26)">
                            <mask id="mask-2" fill="white">
                                <use xlink:href="#path-1"></use>
                            </mask>
                            <use id="Mask" fill="#F6F7FB" xlink:href="#path-1"></use>
                            <g id="Group-4" mask="url(#mask-2)" fill="#95A3BF" fill-rule="nonzero">
                                <g transform="translate(30, 38)">
                                    <path d="M13.7793824,62.2956522 C12.0954073,61.0043478 10.2911483,60.0652174 8.24632147,59.3608696 C10.0505805,60.4173913 11.8548395,61.3565217 13.2982467,62.7652174 C13.1779627,64.0565217 11.4939877,64.8782609 9.56944474,64.7608696 C9.44916081,64.6434783 9.68972867,64.6434783 9.68972867,64.4086957 C9.20859294,64.2913043 8.60717327,64.4086957 8.24632147,64.173913 C8.24632147,64.0565217 8.48688934,64.0565217 8.36660541,63.9391304 C8.00575361,63.7043478 7.52461787,63.5869565 7.16376607,63.3521739 C7.16376607,63.2347826 7.40433394,63.2347826 7.52461787,63.1173913 C7.16376607,62.8826087 6.68263034,62.7652174 6.32177854,62.4130435 C6.44206247,62.2956522 6.56234641,62.4130435 6.68263034,62.1782609 C6.32177854,61.9434783 5.96092674,61.7086957 5.72035887,61.3565217 C5.84064281,61.2391304 5.96092674,61.3565217 6.08121067,61.2391304 C5.96092674,60.8869565 5.47979101,60.6521739 5.35950707,60.3 C5.60007494,60.3 5.72035887,60.4173913 5.96092674,60.1826087 C5.72035887,59.8304348 5.23922314,59.7130435 5.11893921,59.2434783 C5.23922314,59.126087 5.47979101,59.2434783 5.60007494,59.126087 C5.60007494,58.773913 5.35950707,58.5391304 5.23922314,58.1869565 C5.60007494,58.0695652 6.08121067,58.1869565 6.44206247,58.0695652 C6.44206247,57.9521739 6.32177854,57.8347826 6.32177854,57.7173913 C6.80291427,57.4826087 7.28405001,57.7173913 7.76518574,57.8347826 C7.88546967,57.6 7.64490181,57.6 7.76518574,57.3652174 C8.12603754,57.3652174 8.48688934,57.6 8.96802507,57.6 C9.08830901,57.3652174 8.72745721,57.3652174 8.72745721,57.1304348 C9.20859294,57.1304348 9.56944474,57.3652174 9.93029654,57.6 C10.0505805,57.4826087 9.93029654,57.3652174 10.0505805,57.1304348 C10.4114323,57.2478261 10.6520001,57.4826087 11.0128519,57.7173913 C11.2534198,57.7173913 11.1331359,57.4826087 11.2534198,57.3652174 C11.6142716,57.4826087 11.8548395,57.8347826 12.0954073,57.9521739 C12.3359752,57.9521739 12.2156913,57.7173913 12.3359752,57.6 C12.696827,57.8347826 12.9373949,58.1869565 13.1779627,58.4217391 C13.4185306,58.4217391 13.2982467,58.1869565 13.5388145,58.1869565 C14.2605181,59.0086957 14.9822217,59.9478261 14.8619378,61.1217391 C14.8619378,61.7086957 14.3808021,62.0608696 13.7793824,62.2956522 L13.7793824,62.2956522 Z M25.4469239,63.1173913 C25.5672079,63.2347826 25.6874918,63.2347826 25.8077757,63.2347826 C25.4469239,63.5869565 24.9657882,63.5869565 24.4846525,63.8217391 C24.4846525,63.9391304 24.6049364,63.9391304 24.6049364,64.0565217 C24.2440846,64.2913043 23.6426649,64.173913 23.2818131,64.2913043 C23.1615292,64.4086957 23.4020971,64.526087 23.2818131,64.6434783 C22.8006774,64.7608696 22.3195417,64.6434783 21.718122,64.526087 C20.6355666,64.2913043 19.7935791,63.8217391 19.4327273,62.7652174 C20.8761345,61.2391304 22.6803935,60.3 24.4846525,59.3608696 C22.4398256,60.0652174 20.6355666,61.0043478 18.9515915,62.1782609 C18.2298879,61.9434783 17.8690361,61.3565217 17.8690361,60.6521739 C17.8690361,59.8304348 18.5907397,58.5391304 19.3124433,57.9521739 L19.5530112,58.3043478 C19.913863,58.0695652 20.1544309,57.6 20.5152827,57.4826087 C20.6355666,57.6 20.5152827,57.8347826 20.7558505,57.8347826 C20.9964184,57.7173913 21.2369863,57.3652174 21.5978381,57.2478261 C21.718122,57.3652174 21.5978381,57.4826087 21.8384059,57.6 C22.1992577,57.6 22.4398256,57.2478261 22.9209613,57.1304348 C22.9209613,57.2478261 22.8006774,57.3652174 22.9209613,57.6 C23.2818131,57.3652174 23.6426649,57.1304348 24.1238007,57.1304348 C24.1238007,57.2478261 23.8832328,57.3652174 24.0035167,57.6 C24.3643685,57.6 24.7252203,57.3652174 25.2063561,57.3652174 C25.2063561,57.4826087 25.0860721,57.6 25.2063561,57.8347826 C25.6874918,57.7173913 26.1686275,57.6 26.6497633,57.7173913 C26.6497633,57.8347826 26.5294793,57.9521739 26.5294793,58.0695652 C26.8903311,58.1869565 27.3714669,58.0695652 27.7323187,58.1869565 C27.6120347,58.5391304 27.2511829,58.773913 27.2511829,59.126087 C27.3714669,59.2434783 27.6120347,59.126087 27.7323187,59.2434783 C27.6120347,59.7130435 27.130899,59.8304348 27.0106151,60.1826087 C27.130899,60.4173913 27.3714669,60.1826087 27.4917508,60.3 C27.3714669,60.6521739 26.8903311,60.8869565 26.6497633,61.2391304 C26.7700472,61.473913 26.8903311,61.3565217 27.0106151,61.3565217 C26.7700472,61.7086957 26.4091954,61.826087 26.1686275,62.1782609 C26.2889115,62.2956522 26.4091954,62.2956522 26.5294793,62.4130435 C26.2889115,62.7652174 25.8077757,62.8826087 25.4469239,63.1173913 L25.4469239,63.1173913 Z M19.0718755,86.4782609 C19.3124433,86.5956522 19.6732951,86.7130435 19.913863,86.8304348 C20.595472,87.1630435 20.7406294,87.4956522 20.2480057,88.1249396 L20.1544309,88.2391304 C20.1544309,88.2391304 20.1544309,88.2391304 20.0341469,88.3565217 C19.1921594,89.4130435 17.9893201,90 16.4256289,90 C14.9822217,90 13.7793824,89.4130435 12.696827,88.3565217 C12.2156913,87.8869565 12.2156913,87.4173913 12.8171109,87.0652174 C13.6590985,86.5956522 14.501086,86.3608696 15.4633575,86.2434783 C16.6661968,86.126087 17.8690361,86.126087 19.0718755,86.4782609 Z M7.64490181,79.6695652 C9.68972867,80.2565217 11.6142716,82.6043478 11.7345555,84.7173913 C11.7345555,86.0086957 11.1331359,86.5956522 9.81001261,86.3608696 C8.00575361,86.126087 6.80291427,85.1869565 6.08121067,83.6608696 C5.60007494,82.9565217 5.47979101,82.2521739 5.47979101,81.4304348 L5.47979101,81.0782609 C5.60007494,79.7869565 6.32177854,79.3173913 7.64490181,79.6695652 Z M27.0106151,79.7869565 C27.4917508,80.9608696 27.6120347,82.1347826 27.0106151,83.3086957 C26.2889115,84.9521739 24.9657882,86.0086957 23.1615292,86.3608696 L22.5601095,86.3608696 C21.4775541,86.4782609 20.9964184,86.0086957 20.9964184,84.4826087 C21.1167023,83.3086957 21.5978381,82.1347826 22.5601095,81.0782609 C23.1615292,80.4913043 23.7629489,79.9043478 24.3643685,79.4347826 C24.7252203,79.2 25.0860721,79.0826087 25.4469239,78.9652174 C26.1686275,78.8478261 26.7700472,79.0826087 27.0106151,79.7869565 Z M16.5459129,77.5565217 C17.7487522,77.5565217 18.9515915,78.026087 19.7935791,78.9652174 C21.2369863,80.4913043 21.1167023,82.7217391 19.5530112,84.0130435 C17.9893201,85.3043478 15.4633575,85.4217391 13.8996663,84.1304348 C12.696827,83.1913043 12.2156913,82.0173913 12.4562591,80.4913043 C12.8171109,78.9652174 13.8996663,78.1434783 15.3430735,77.673913 C15.7039253,77.673913 16.0647771,77.5565217 16.5459129,77.5565217 Z M27.6120347,72.626087 C28.8148741,73.3304348 29.5365777,74.6217391 29.5365777,76.2652174 C29.5365777,77.2043478 29.1757259,78.2608696 28.4540223,79.0826087 C28.0931705,79.4347826 27.8526026,79.4347826 27.4917508,79.0826087 C27.130899,78.6130435 26.8903311,78.026087 26.7700472,77.4391304 C26.4091954,76.2652174 26.2889115,74.973913 26.4091954,73.6826087 C26.4091954,73.4478261 26.5294793,73.0956522 26.6497633,72.8608696 C26.8903311,72.3913043 27.130899,72.273913 27.6120347,72.626087 Z M6.44206247,73.3304348 C6.44206247,73.6826087 6.56234641,74.1521739 6.56234641,74.5043478 C6.56234641,75.7956522 6.32177854,76.9695652 5.84064281,78.1434783 C5.72035887,78.4956522 5.60007494,78.7304348 5.35950707,78.9652174 C4.99865527,79.4347826 4.75808741,79.4347826 4.39723561,79.0826087 C2.71326054,77.4391304 2.95382841,74.2695652 4.99865527,72.8608696 C5.72035887,72.273913 6.20149461,72.3913043 6.44206247,73.3304348 Z M15.7039253,73.5652174 C15.7039253,75.6782609 14.0199503,77.7913043 11.8548395,78.2608696 C9.68972867,78.7304348 7.76518574,77.2043478 7.64490181,75.0913043 C7.52461787,72.9782609 9.08830901,70.8652174 11.1331359,70.3956522 C13.6590985,69.6913043 15.7039253,71.2173913 15.7039253,73.5652174 Z M22.0789738,70.1608696 C24.0035167,70.8652174 25.32664,72.7434783 25.32664,74.6217391 C25.32664,77.0869565 23.1615292,78.6130435 20.7558505,77.9086957 C18.5907397,77.2043478 17.0270486,74.973913 17.3879004,72.7434783 C17.7487522,70.6304348 19.913863,69.3391304 22.0789738,70.1608696 Z M25.2063561,67.3434783 C26.4091954,68.2826087 27.130899,70.1608696 26.7700472,71.2173913 C26.5294793,71.3347826 26.1686275,71.2173913 25.9280597,70.9826087 C25.0860721,70.5130435 24.2440846,69.926087 23.522381,69.3391304 C22.6803935,68.6347826 21.9586899,67.9304348 21.2369863,67.226087 C21.1167023,66.9913043 20.8761345,66.7565217 20.8761345,66.5217391 C21.5978381,66.1695652 24.0035167,66.2869565 25.2063561,67.3434783 Z M12.2156913,66.2869565 C12.2156913,66.6391304 11.9751234,66.873913 11.8548395,67.1086957 C11.0128519,68.1652174 9.93029654,68.9869565 8.96802507,69.8086957 C8.36660541,70.2782609 7.76518574,70.6304348 7.16376607,70.9826087 C6.68263034,71.1 6.44206247,71.3347826 6.20149461,71.1 C6.08121067,69.573913 6.56234641,68.1652174 7.88546967,67.226087 C9.20859294,66.2869565 10.6520001,66.0521739 12.2156913,66.2869565 Z M19.5530112,66.6391304 C19.6732951,66.7565217 19.7935791,66.873913 19.913863,66.9913043 C20.5152827,67.6956522 20.3949987,68.4 19.6732951,68.9869565 C19.0718755,69.4565217 18.3501719,69.573913 17.6284683,69.6913043 C17.2676165,69.8086957 16.9067647,69.8086957 16.6661968,69.8086957 C15.7039253,69.8086957 14.7416539,69.6913043 13.8996663,69.2217391 C12.3359752,68.4 12.3359752,67.3434783 13.6590985,66.4043478 C15.4633575,65.1130435 17.8690361,65.2304348 19.5530112,66.6391304 Z" id="Path-4"></path>
                                    <path d="M81.4465584,18.5869565 C83.8486272,18.5869565 87.3268229,18.0782609 87.3268229,15.1630435 C87.3268229,14.9400163 87.3074206,14.7174273 87.2691733,14.4978261 L85.8471485,8.15869565 C85.5204672,6.76956522 85.2322189,6.12391304 82.83015,4.91086957 C80.9661446,3.9326087 76.9114524,2.34782609 75.7008097,2.34782609 C74.5670332,2.34782609 74.2403518,3.81521739 72.9144098,3.81521739 C71.6269009,3.81521739 70.6852899,2.71956522 69.4746472,2.71956522 C68.3216542,2.71956522 67.5722087,3.52173913 66.9957122,5.16521739 C66.9957122,5.16521739 65.3815219,9.80217391 65.1701399,10.4869565 C65.1383878,10.6080747 65.1254204,10.7335008 65.1317068,10.8586957 C65.1124902,12.6586957 72.0880981,18.5673913 81.4465584,18.5869565 M87.6919374,16.3565217 C88.0186188,17.9608696 88.0186188,18.1369565 88.0186188,18.3326087 C88.0186188,21.0717391 85.0016203,22.5978261 81.0237943,22.5978261 C72.0304485,22.5978261 64.1708792,17.2369565 64.1708792,13.6956522 C64.1699968,13.2045028 64.2681025,12.7183922 64.4591275,12.2673913 C61.230747,12.423913 57.0415389,13.0108696 57.0415389,16.7673913 C57.0415389,22.9304348 71.3770858,30.5217391 82.7148507,30.5217391 C91.4199482,30.5217391 93.610635,26.5108696 93.610635,23.3413043 C93.610635,20.8565217 91.4968144,18.0391304 87.6919374,16.3565217" id="path8"></path>
                                    <path d="M80.961538,88.9642663 C81.1028632,89.1656556 81.12001,89.429248 81.0059696,89.6473008 C80.8919292,89.8653536 80.6658133,90.0013241 80.420046,89.9996503 L70.6075555,89.9996503 C70.3617883,90.0013241 70.1356723,89.8653536 70.0216319,89.6473008 C69.9075915,89.429248 69.9247383,89.1656556 70.0660636,88.9642663 C71.2853179,87.1470832 73.3278303,86.0571056 75.5138008,86.0571056 C77.6997713,86.0571056 79.7422837,87.1470832 80.961538,88.9642663 L80.961538,88.9642663 Z M92.218007,89.5887742 C91.960352,89.8557153 91.6041509,90.0043637 91.2334761,89.9996347 L84.8012081,89.9996347 C84.5214614,89.9959648 84.2731795,89.8192791 84.177672,89.5559054 C82.8799988,85.8781225 79.4084101,83.4191365 75.5138008,83.4191365 C71.6191915,83.4191365 68.1476027,85.8781225 66.8499296,89.5559054 C66.7544221,89.8192791 66.5061402,89.9959648 66.2263934,89.9996347 L59.7941254,89.9996347 C59.4226828,90.0083994 59.0649292,89.8591031 58.8095946,89.5887742 C58.406027,89.1680771 58.332194,88.5294351 58.6290973,88.0275044 C58.6783238,87.9453323 63.699431,78.9885739 63.699431,68.9635782 C63.7037463,65.8123968 64.96113,62.7927279 67.1935714,60.5722274 C69.4260128,58.351727 72.4496124,57.1133111 75.595845,57.1306137 C82.0937484,57.1800996 87.3117617,62.5377203 87.3281706,69.0457503 C87.3609883,79.0378771 92.3492777,87.9453323 92.3985043,88.0275044 C92.6954075,88.5294351 92.6215746,89.1680771 92.218007,89.5887742 L92.218007,89.5887742 Z M68.950262,70.9357085 C68.950262,72.0248859 69.8318409,72.9078388 70.9193236,72.9078388 C72.0068063,72.9078388 72.8883853,72.0248859 72.8883853,70.9357085 C72.8883853,69.846531 72.0068063,68.9635782 70.9193236,68.9635782 C69.8318409,68.9635782 68.950262,69.846531 68.950262,70.9357085 L68.950262,70.9357085 Z M81.9460688,76.2604603 C81.6105362,75.617778 80.8273487,75.3563086 80.1739133,75.6688212 L75.5138008,78.0189431 L70.8536882,75.6688212 C70.4316015,75.4574489 69.9289869,75.4876644 69.5351745,75.7480858 C69.1413622,76.0085072 68.9161816,76.4595703 68.944456,76.931364 C68.9727305,77.4031577 69.2501645,77.8240053 69.6722513,78.0353775 L74.9230823,80.6648846 C75.2974471,80.8401851 75.7301545,80.8401851 76.1045193,80.6648846 L81.3553503,78.0353775 C81.9970325,77.6993221 82.258095,76.914914 81.9460688,76.2604603 Z M82.0773396,70.9357085 C82.0773396,69.846531 81.1957606,68.9635782 80.1082779,68.9635782 C79.0207952,68.9635782 78.1392163,69.846531 78.1392163,70.9357085 C78.1392163,72.0248859 79.0207952,72.9078388 80.1082779,72.9078388 C81.1957606,72.9078388 82.0773396,72.0248859 82.0773396,70.9357085 Z" id="Shape"></path>
                                    <path d="M144.49872,83.1521739 L144.686288,83.1572402 C146.487089,83.2547676 147.917306,84.7481445 147.917306,86.576087 C147.917306,88.4670619 146.386753,90 144.49872,90 C142.610653,90 141.080135,88.4670132 141.080135,86.576087 C141.080135,84.6850772 142.610653,83.1521739 144.49872,83.1521739 Z M150.652174,74.25 C150.49318,77.460838 149.20253,80.3755108 147.207799,82.6315652 C146.436447,82.0984178 145.504599,81.7826087 144.49872,81.7826087 C141.86,81.7826087 139.712701,83.9332541 139.712701,86.576087 C139.712701,86.7135951 139.741912,86.8429951 139.753263,86.9775776 C138.856886,87.1626494 137.928877,87.2608696 136.977832,87.2608696 C134.730714,87.2608696 132.616048,86.7077438 130.745758,85.7457713 L134.174526,79.7977255 C135.031843,80.1853398 135.976127,80.4130435 136.977832,80.4130435 C140.51969,80.4130435 143.398363,77.7055942 143.746064,74.25 L150.652174,74.25 Z M129.561438,62.0691953 L132.992543,68.0212535 C131.271566,69.2648462 130.140662,71.2774817 130.140662,73.5652174 C130.140662,75.8529531 131.271566,77.8655886 132.992543,79.1091812 L129.561439,85.0612395 C126.881905,83.3235368 124.845777,80.6792828 123.896903,77.554795 C125.185716,76.6948878 126.038359,75.2289415 126.038359,73.5652174 C126.038359,71.9014933 125.185716,70.4355469 123.896903,69.5756398 C124.845777,66.4511519 126.881822,63.806898 129.561438,62.0691953 Z M121.25234,70.1413043 L121.439911,70.1463705 C123.240741,70.2438958 124.670925,71.7372413 124.670925,73.5652174 C124.670925,75.4561436 123.140407,76.9891304 121.25234,76.9891304 C119.364307,76.9891304 117.833754,75.4561923 117.833754,73.5652174 C117.833754,71.6742424 119.364307,70.1413043 121.25234,70.1413043 Z M136.977832,59.8695652 C137.928877,59.8695652 138.856886,59.9677854 139.753263,60.1528572 C139.741912,60.2874397 139.712701,60.4168396 139.712701,60.5543478 C139.712701,63.1971807 141.86,65.3478261 144.49872,65.3478261 C145.504599,65.3478261 146.436531,65.0320169 147.207882,64.4988696 C149.20253,66.7548404 150.49318,69.6695968 150.652174,72.8804348 L143.746064,72.8804348 C143.398363,69.4248405 140.51969,66.7173913 136.977832,66.7173913 C135.976127,66.7173913 135.031843,66.9450949 134.174526,67.3327093 L130.745758,61.3845799 C132.616048,60.4226074 134.730714,59.8695652 136.977832,59.8695652 Z M144.49872,57.1304348 L144.686288,57.1355011 C146.487089,57.2330285 147.917306,58.7264054 147.917306,60.5543478 C147.917306,62.4453228 146.386753,63.9782609 144.49872,63.9782609 C142.610653,63.9782609 141.080135,62.4452741 141.080135,60.5543478 C141.080135,58.663338 142.610653,57.1304348 144.49872,57.1304348 Z" id="XMLID_1320_-2"></path>
                                    <path d="M18.6468293,0 L32.8184196,0 L32.8184196,14.1936759 L18.6468293,14.1936759 Z M0,0 L14.1715903,0 L14.1715903,14.1936759 L0,14.1936759 Z M0,18.6758893 L14.1715903,18.6758893 L14.1715903,32.8695652 L0,32.8695652 Z M18.6468293,18.6758893 L32.8184196,18.6758893 L32.8184196,32.8695652 L18.6468293,32.8695652 Z" id="Rectangle-3"></path>
                                    <path d="M143.044426,17.4662418 C143.003795,13.3026179 146.374869,11.3056552 146.525597,11.2047715 C144.631006,8.38069607 141.67935,7.99319578 140.628839,7.94910091 C138.118883,7.68920847 135.728854,9.45634345 134.455526,9.45634345 C133.18482,9.45634345 131.217486,7.98718284 129.136123,8.02459666 C126.398108,8.06601911 123.87439,9.64808928 122.465407,12.1467981 C119.621882,17.1756166 121.737978,24.6283163 124.50876,28.7097634 C125.86335,30.7047218 127.478766,32.9495511 129.598139,32.8673743 C131.640837,32.7851975 132.411518,31.5204767 134.880843,31.5204767 C137.350168,31.5204767 138.043518,32.8673743 140.204178,32.8252838 C142.400881,32.7845294 143.793481,30.7922434 145.13693,28.7892677 C146.692054,26.4716151 147.332322,24.2274539 147.370332,24.1138762 C147.322492,24.0911607 143.088334,22.4376034 143.044426,17.4662418 Z M138.984588,5.2479566 C140.108498,3.85696416 140.870004,1.9241394 140.662917,0 C139.040947,0.066810396 137.077546,1.09903101 135.913005,2.48868725 C134.869702,3.72200716 133.957467,5.6855647 134.201909,7.5749627 C136.011306,7.71793694 137.856746,6.63627663 138.984588,5.2479566 Z" id="Path-5"></path>
                                </g>
                            </g>
                            <g id="Header" mask="url(#mask-2)">
                                <path d="M205.533333,-0.5 C206.775974,-0.5 207.900974,0.00367965644 208.715314,0.818019485 C209.529654,1.63235931 210.033333,2.75735931 210.033333,4 L210.033333,16.3666667 L-0.0333333333,16.3666667 L-0.0333333333,4 C-0.0333333333,2.75735931 0.470346323,1.63235931 1.28468615,0.818019485 C2.09902598,0.00367965644 3.22402598,-0.5 4.46666667,-0.5 Z" id="Rectangle" stroke="#C1CCDC" fill="#FFFFFF"></path>
                                <g id="Group-2" transform="translate(177.8, 5.6)">
                                    <g id="Group-9">
                                        <path d="M2.30716034,0 L2.23865946,0.000407105756 C0.908235168,0.0164477356 0,0.472727172 0,1.36617435 L0,3.30049231 C0,4.21047714 0.941881806,4.66666667 2.30716034,4.66666667 L2.37566122,4.66625956 C3.70608551,4.65021893 4.61432068,4.1939395 4.61432068,3.30049231 L4.61432068,1.36617435 C4.61432068,0.456189523 3.67243887,0 2.30716034,0 Z M2.30716034,0.466666667 C3.44903523,0.466666667 4.15288861,0.807569885 4.15288861,1.36617435 L4.15288861,3.30049231 C4.15288861,3.56254921 3.99849757,3.77670724 3.71598566,3.93023048 C3.37850112,3.52373501 2.87251475,3.26666667 2.30716034,3.26666667 C1.74180593,3.26666667 1.23581956,3.52373501 0.897249123,3.92859809 C0.616147407,3.77643325 0.461432068,3.56238899 0.461432068,3.30049231 L0.461432068,1.36617435 C0.461432068,0.81880636 1.13501285,0.480412659 2.24277991,0.467053074 L2.30716034,0.466666667 Z M2.30716033,1.16666667 C1.79747655,1.16666667 1.3842962,1.58453424 1.3842962,2.1 C1.3842962,2.61546576 1.79747655,3.03333333 2.30716033,3.03333333 C2.81684412,3.03333333 3.23002447,2.61546577 3.23002447,2.1 C3.23002447,1.58453423 2.81684412,1.16666667 2.30716033,1.16666667 Z" id="Mask" fill="#3F3F3F"></path>
                                        <g id="(admin)" transform="translate(6.5521, 1.0075)" fill="#8A96A6" fill-rule="nonzero">
                                            <path d="M0.283268019,1.56385185 C0.283268019,1.80202469 0.312705676,2.03401852 0.37158099,2.25983333 C0.430456304,2.48564815 0.516547565,2.69966667 0.629854772,2.90188889 C0.648739307,2.93896296 0.653738155,2.96761111 0.644851315,2.98783333 C0.635964475,3.00805556 0.622078788,3.02434568 0.603194253,3.0367037 L0.458227678,3.12601852 C0.374913555,2.99682099 0.30409655,2.86846605 0.245776664,2.7409537 C0.187456778,2.61344136 0.140245441,2.48536728 0.104142654,2.35673148 C0.0680398674,2.22809568 0.0416570617,2.09805556 0.024994237,1.96661111 C0.00833141233,1.83516667 0,1.70091358 0,1.56385185 C0,1.42566667 0.00833141233,1.29085185 0.024994237,1.15940741 C0.0416570617,1.02796296 0.0680398674,0.89792284 0.104142654,0.769287037 C0.140245441,0.640651235 0.187456778,0.51257716 0.245776664,0.385064815 C0.30409655,0.257552469 0.374913555,0.129197531 0.458227678,0 L0.603194253,0.0893148148 C0.622078788,0.10167284 0.635964475,0.117962963 0.644851315,0.138185185 C0.653738155,0.158407407 0.648739307,0.187055556 0.629854772,0.22412963 C0.516547565,0.426351852 0.430456304,0.640651235 0.37158099,0.867027778 C0.312705676,1.09340432 0.283268019,1.32567901 0.283268019,1.56385185 Z" id="Path"></path>
                                            <path d="M1.82791187,1.86212963 C1.69572012,1.86662346 1.58352377,1.87701543 1.49132281,1.89330556 C1.39912184,1.90959568 1.32413913,1.93122222 1.26637467,1.95818519 C1.20861022,1.98514815 1.16695315,2.0168858 1.14140349,2.05339815 C1.11585383,2.08991049 1.10307899,2.1306358 1.10307899,2.17557407 C1.10307899,2.21826543 1.11002184,2.25505864 1.12390752,2.2859537 C1.13779321,2.31684877 1.15667775,2.34212654 1.18056113,2.36178704 C1.20444451,2.38144753 1.2324936,2.3957716 1.26470839,2.40475926 C1.29692319,2.41374691 1.33191512,2.41824074 1.36968419,2.41824074 C1.41967266,2.41824074 1.46549543,2.41318519 1.50715249,2.40307407 C1.54880955,2.39296296 1.58796719,2.37863889 1.62462541,2.36010185 C1.66128362,2.34156481 1.69627555,2.31881481 1.7296012,2.29185185 C1.76292685,2.26488889 1.79569707,2.23399383 1.82791187,2.19916667 L1.82791187,1.86212963 Z M0.874798295,1.1492963 C0.969220968,1.0582963 1.07169734,0.99032716 1.18222741,0.945388889 C1.29275748,0.900450617 1.41411839,0.877981481 1.54631013,0.877981481 C1.64295451,0.877981481 1.72849035,0.893990741 1.80291763,0.926009259 C1.87734491,0.958027778 1.94010822,1.00268519 1.99120755,1.05998148 C2.04230688,1.11727778 2.08090909,1.18580864 2.10701418,1.26557407 C2.13311927,1.34533951 2.14617182,1.43353086 2.14617182,1.53014815 L2.14617182,2.62214815 L2.00120524,2.62214815 C1.96899045,2.62214815 1.94455164,2.61681173 1.92788881,2.60613889 C1.91122599,2.59546605 1.89789573,2.57552469 1.88789804,2.54631481 L1.8529061,2.39633333 C1.80958276,2.43677778 1.76681484,2.47244753 1.72460235,2.50334259 C1.68238986,2.53423765 1.63823338,2.56063889 1.5921329,2.5825463 C1.54603242,2.6044537 1.49687708,2.62102469 1.4446669,2.63225926 C1.39245671,2.64349383 1.33469226,2.64911111 1.27137352,2.64911111 C1.20472222,2.64911111 1.14223663,2.63984259 1.08391674,2.62130556 C1.02559686,2.60276852 0.974775243,2.57440123 0.931451899,2.5362037 C0.888128555,2.49800617 0.853969764,2.45025926 0.828975527,2.39296296 C0.80398129,2.33566667 0.791484172,2.26882099 0.791484172,2.19242593 C0.791484172,2.12501852 0.809535565,2.06013889 0.845638352,1.99778704 C0.881741139,1.93543519 0.940616453,1.87954321 1.02226429,1.83011111 C1.10391213,1.78067901 1.21055421,1.74023457 1.34219053,1.70877778 C1.47382684,1.67732099 1.63573396,1.65934568 1.82791187,1.65485185 L1.82791187,1.53014815 C1.82791187,1.40095062 1.80069592,1.30433333 1.74626403,1.2402963 C1.69183213,1.17625926 1.61185057,1.14424074 1.50631935,1.14424074 C1.43522463,1.14424074 1.37551618,1.1532284 1.32719398,1.1712037 C1.27887179,1.18917901 1.23721473,1.20912037 1.2022228,1.23102778 C1.16723087,1.25293519 1.13668236,1.27287654 1.11057726,1.29085185 C1.08447217,1.30882716 1.05753394,1.31781481 1.02976256,1.31781481 C1.00754546,1.31781481 0.988383217,1.3116358 0.972275819,1.29927778 C0.956168422,1.28691975 0.943115876,1.27231481 0.933118181,1.25546296 L0.874798295,1.1492963 Z" id="Shape"></path>
                                            <path d="M3.67415284,1.32455556 C3.6208318,1.25377778 3.56334506,1.20434568 3.5016926,1.17625926 C3.44004015,1.14817284 3.37088943,1.13412963 3.29424044,1.13412963 C3.14538587,1.13412963 3.03013467,1.18833642 2.94848683,1.29675 C2.86683898,1.40516358 2.82601506,1.56329012 2.82601506,1.77112963 C2.82601506,1.88010494 2.83517962,1.97307099 2.85350872,2.05002778 C2.87183783,2.12698457 2.89849835,2.18989815 2.93349028,2.23876852 C2.96848221,2.28763889 3.01152785,2.32358951 3.06262717,2.34662037 C3.1137265,2.36965123 3.17149096,2.38116667 3.23592055,2.38116667 C3.33034322,2.38116667 3.41199106,2.35982099 3.48086407,2.31712963 C3.54973708,2.27443827 3.61416667,2.21433333 3.67415284,2.13681481 L3.67415284,1.32455556 Z M4.0007442,0.134814815 L4.0007442,2.62214815 L3.80412287,2.62214815 C3.75857782,2.62214815 3.73025102,2.60024074 3.71914247,2.55642593 L3.69081566,2.35925926 C3.61861009,2.44576543 3.53668454,2.51513889 3.445039,2.56737963 C3.35339346,2.61962037 3.24758453,2.64574074 3.12761219,2.64574074 C3.03096781,2.64574074 2.94348798,2.62664198 2.8651727,2.58844444 C2.78685743,2.55024691 2.71992841,2.49435494 2.66438566,2.42076852 C2.60884292,2.3471821 2.566075,2.25590123 2.53608191,2.14692593 C2.50608883,2.03795062 2.49109229,1.91268519 2.49109229,1.77112963 C2.49109229,1.64417901 2.50775511,1.52621605 2.54108076,1.41724074 C2.57440641,1.30826543 2.6227286,1.21389506 2.68604734,1.13412963 C2.74936607,1.0543642 2.82601506,0.991731481 2.91599432,0.946231481 C3.00597357,0.900731481 3.1076168,0.877981481 3.22092401,0.877981481 C3.32312267,0.877981481 3.41004707,0.894833333 3.48169721,0.928537037 C3.55334736,0.962240741 3.61749924,1.00998765 3.67415284,1.07177778 L3.67415284,0.134814815 L4.0007442,0.134814815 Z" id="Shape"></path>
                                            <path d="M4.45563932,2.62214815 L4.45563932,0.91 L4.65059437,0.91 C4.69613942,0.91 4.72446622,0.931907407 4.73557477,0.975722222 L4.75890273,1.13918519 C4.8211106,1.06391358 4.89026133,1.00240432 4.96635489,0.954657407 C5.04244846,0.906910494 5.13159457,0.883037037 5.23379323,0.883037037 C5.34598958,0.883037037 5.43707969,0.914212963 5.50706355,0.976564815 C5.57704742,1.03891667 5.62814675,1.12345679 5.66036154,1.23018519 C5.68480035,1.16951852 5.71645972,1.11727778 5.75533964,1.07346296 C5.79421956,1.02964815 5.83754291,0.993697531 5.88530967,0.965611111 C5.93307644,0.937524691 5.98389805,0.916740741 6.03777452,0.903259259 C6.09165099,0.889777778 6.14636059,0.883037037 6.20190334,0.883037037 C6.2918826,0.883037037 6.37214187,0.897361111 6.44268116,0.926009259 C6.51322045,0.954657407 6.5729289,0.996506173 6.62180652,1.05155556 C6.67068414,1.10660494 6.70789778,1.17457407 6.73344745,1.25546296 C6.75899711,1.33635185 6.77177195,1.42847531 6.77177195,1.53183333 L6.77177195,2.62214815 L6.44518058,2.62214815 L6.44518058,1.53183333 C6.44518058,1.40375926 6.41768692,1.30714198 6.3626996,1.24198148 C6.30771228,1.17682099 6.22745301,1.14424074 6.12192178,1.14424074 C6.07526587,1.14424074 6.03083168,1.1523858 5.98861919,1.16867593 C5.9464067,1.18496605 5.90947077,1.20940123 5.8778114,1.24198148 C5.84615204,1.27456173 5.8211578,1.31500617 5.80282869,1.36331481 C5.78449958,1.41162346 5.77533503,1.4677963 5.77533503,1.53183333 L5.77533503,2.62214815 L5.44874367,2.62214815 L5.44874367,1.53183333 C5.44874367,1.39926543 5.42263857,1.30152469 5.37042839,1.23861111 C5.31821821,1.17569753 5.24156921,1.14424074 5.14048141,1.14424074 C5.07049755,1.14424074 5.00551253,1.16277778 4.94552636,1.19985185 C4.88554019,1.23692593 4.83055287,1.28748148 4.7805644,1.35151852 L4.7805644,2.62214815 L4.45563932,2.62214815 Z" id="Path"></path>
                                            <path d="M8.02580186,0.91 L8.02580186,2.62214815 L7.30089479,2.62214815 L7.30089479,0.91 L8.02580186,0.91 Z M8.16334833,0.380851852 C8.16334833,0.411185185 8.14971759,0.440114198 8.12245613,0.467638889 C8.09519467,0.49516358 8.05863953,0.519317901 8.0127907,0.540101852 C7.96694188,0.560885802 7.91303854,0.577175926 7.85108067,0.588972222 C7.7891228,0.600768519 7.72468662,0.606666667 7.65777212,0.606666667 C7.59085762,0.606666667 7.52766059,0.600768519 7.46818104,0.588972222 C7.40870149,0.577175926 7.3560373,0.560885802 7.31018847,0.540101852 C7.26433965,0.519317901 7.22840409,0.49516358 7.20238178,0.467638889 C7.17635948,0.440114198 7.16334833,0.411185185 7.16334833,0.380851852 C7.16334833,0.349395062 7.17635948,0.319904321 7.20238178,0.29237963 C7.22840409,0.264854938 7.26433965,0.240700617 7.31018847,0.219916667 C7.3560373,0.199132716 7.40870149,0.182842593 7.46818104,0.171046296 C7.52766059,0.15925 7.59085762,0.153351852 7.65777212,0.153351852 C7.72468662,0.153351852 7.7891228,0.15925 7.85108067,0.171046296 C7.91303854,0.182842593 7.96694188,0.199132716 8.0127907,0.219916667 C8.05863953,0.240700617 8.09519467,0.264854938 8.12245613,0.29237963 C8.14971759,0.319904321 8.16334833,0.349395062 8.16334833,0.380851852 Z" id="Shape"></path>
                                            <path d="M8.32641349,1.14761111 C8.3630717,1.10829012 8.4013962,1.07233951 8.44138698,1.03975926 C8.48137776,1.00717901 8.52386796,0.979373457 8.56885759,0.956342593 C8.61384721,0.933311728 8.6621694,0.91533642 8.71382416,0.902416667 C8.76547892,0.889496914 8.82074395,0.883037037 8.87961927,0.883037037 C8.97293108,0.883037037 9.05485664,0.898765432 9.12539593,0.930222222 C9.19593522,0.961679012 9.25508825,1.00577469 9.30285501,1.06250926 C9.35062178,1.11924383 9.38672456,1.18749383 9.41116337,1.26725926 C9.43560218,1.34702469 9.44782159,1.43521605 9.44782159,1.53183333 L9.44782159,2.62214815 L9.12123022,2.62214815 L9.12123022,1.53183333 C9.12123022,1.40937654 9.09345885,1.31416358 9.0379161,1.24619444 C8.98237335,1.17822531 8.89739295,1.14424074 8.78297488,1.14424074 C8.69966076,1.14424074 8.6216232,1.1641821 8.5488622,1.20406481 C8.4761012,1.24394753 8.40861676,1.29815432 8.34640888,1.36668519 L8.34640888,2.62214815 L8.0214838,2.62214815 L8.0214838,0.91 L8.21643884,0.91 C8.2619839,0.91 8.2903107,0.931907407 8.30141925,0.975722222 L8.32641349,1.14761111 Z" id="Path"></path>
                                            <path d="M10.0693449,1.56385185 C10.0693449,1.32567901 10.0396296,1.09340432 9.98019884,0.867027778 C9.92076809,0.640651235 9.83439912,0.426351852 9.72109191,0.22412963 C9.70220738,0.187055556 9.69748624,0.158407407 9.70692851,0.138185185 C9.71637078,0.117962963 9.73053418,0.10167284 9.74941871,0.0893148148 L9.89438529,0 C9.97769941,0.129197531 10.0482387,0.257552469 10.1060032,0.385064815 C10.1637676,0.51257716 10.210979,0.640651235 10.2476372,0.769287037 C10.2842954,0.89792284 10.3109559,1.02796296 10.3276187,1.15940741 C10.3442816,1.29085185 10.352613,1.42566667 10.352613,1.56385185 C10.352613,1.70091358 10.3442816,1.83516667 10.3276187,1.96661111 C10.3109559,2.09805556 10.2842954,2.22809568 10.2476372,2.35673148 C10.210979,2.48536728 10.1637676,2.61344136 10.1060032,2.7409537 C10.0482387,2.86846605 9.97769941,2.99682099 9.89438529,3.12601852 L9.74941871,3.0367037 C9.73053418,3.02434568 9.71637078,3.00805556 9.70692851,2.98783333 C9.69748624,2.96761111 9.70220738,2.93896296 9.72109191,2.90188889 C9.83439912,2.69966667 9.92076809,2.48564815 9.98019884,2.25983333 C10.0396296,2.03401852 10.0693449,1.80202469 10.0693449,1.56385185 Z" id="Path"></path>
                                        </g>
                                    </g>
                                    <path d="M22.7249388,0 C23.3620435,-1.17034241e-16 23.878519,0.516475434 23.878519,1.15358017 L23.878519,3.5130865 C23.878519,4.15019123 23.3620435,4.66666667 22.7249388,4.66666667 C22.0878341,4.66666667 21.5713586,4.15019123 21.5713586,3.5130865 L21.5713586,1.15358017 C21.5713586,0.516475434 22.0878341,1.17034241e-16 22.7249388,0 Z M23.878519,2.56666667 L22.9582721,2.56666667 C22.8294057,2.56666667 22.7249388,2.46219977 22.7249388,2.33333333 C22.7249388,2.20446689 22.8294057,2.1 22.9582721,2.1 L23.878519,2.1 L23.8783586,2.102 L25.4027658,2.10203713 L24.6337742,1.34289404 C24.5496613,1.25972461 24.5431911,1.12885531 24.6143636,1.03834744 L24.6337742,1.01661229 C24.7178872,0.933442862 24.8502411,0.927045213 24.9417757,0.997419346 L24.9637574,1.01661229 L26.1304241,2.17019246 C26.214537,2.25336189 26.2210072,2.38423119 26.1498347,2.47473906 L26.1304241,2.49647421 L24.9637574,3.65005437 C24.8726351,3.74015459 24.7248966,3.74015459 24.6337742,3.65005437 C24.5496613,3.56688494 24.5431911,3.43601565 24.6143636,3.34550777 L24.6337742,3.32377263 L25.4017658,2.56403713 L23.8783586,2.564 Z" id="Rectangle-2" fill="#3F3F3F"></path>
                                </g>
                                <rect id="Rectangle" fill="#C1CCDC" x="47.6" y="0" width="1" height="15.8666667"></rect>
                                <g id="Pandora-RC" transform="translate(4.2, 4.2)">
                                    <ellipse id="Oval" fill="#FFFFFF" fill-rule="nonzero" cx="3.68015688" cy="3.73334385" rx="3.4698622" ry="3.47043231"></ellipse>
                                    <g id="Fill-1-Clipped">
                                        <mask id="mask-4" fill="white">
                                            <use xlink:href="#path-3"></use>
                                        </mask>
                                        <g id="path-1"></g>
                                        <path d="M5.72148733,5.29913981 C5.49925842,5.48917227 5.20631794,5.65212484 4.89071819,5.73678236 C4.53747571,5.83164083 4.14064965,5.85787942 3.7623821,5.80766331 C3.05006144,5.71390905 2.40976672,5.26443549 1.97887293,4.84277796 C2.02797673,4.72651848 2.04259222,4.68403197 2.09295778,4.56966545 C2.1776014,4.65763566 2.3279621,4.77499937 2.39478322,4.82111405 C2.85737894,5.14297035 3.46171328,5.42007912 4.26219998,5.3737541 C4.66754297,5.35161696 5.04354985,5.21095928 5.31030865,4.99684412 C5.5689711,4.78982757 5.78531175,4.49252721 5.7804224,4.07880961 C5.77537533,3.64100931 5.56055932,3.28387028 5.32623847,3.04462078 C5.24595847,2.96238205 5.15910677,2.87435926 5.07141389,2.80952529 C4.93272455,2.70704237 4.77852598,2.6275905 4.6235388,2.55250297 C4.46576522,2.47489148 4.30373318,2.39722741 4.11572972,2.35663387 C4.42580923,2.15955537 5.25820815,1.91799226 5.35683635,1.97425533 C5.41850527,2.00927515 5.48501096,2.06538047 5.5362177,2.10713082 C5.70639867,2.24326641 5.85165973,2.43503408 5.97615418,2.61281488 C6.15437891,2.86946912 6.30463447,3.16640141 6.35957395,3.50050939 C6.4932688,4.32568355 6.15516753,4.9297491 5.72148733,5.29913981 M0.751435461,3.9272674 L0.751435461,3.92626834 C1.13154309,3.32756617 1.57042809,2.78581066 2.09143315,2.32566289 C2.45056388,2.0075925 2.87383451,1.72401612 3.34242362,1.51805123 C3.42107384,1.48292624 3.49730565,1.4387571 3.5822647,1.41136172 C3.66627743,1.38365085 3.7539703,1.3561503 3.84360841,1.32638871 C4.1862836,1.21344192 4.65776426,1.15654786 5.03582152,1.19819305 C5.31856271,1.23084666 5.60004214,1.31213891 5.78783529,1.45810739 C5.85165973,1.50695636 5.92804927,1.56043256 5.96884643,1.61900925 C5.99260974,1.65297743 6.02583629,1.73106216 6.00701491,1.77743975 C5.98367222,1.83370281 5.89766168,1.83922396 5.82647693,1.83785682 C5.58327114,1.8328615 5.36088452,1.80735908 5.1257225,1.83570095 C4.792458,1.8765574 4.51649881,1.97010132 4.27849781,2.06984996 C3.77578838,2.2792327 3.34394826,2.62422523 3.00348117,2.97242527 C2.66017511,3.32251827 2.34305074,3.76363126 2.09064455,4.21652267 C1.80963828,4.72083959 1.59766124,5.25255188 1.4226435,5.81087082 C1.02087552,5.28625715 0.771939192,4.63781212 0.751435461,3.9272674 M3.7326254,0 C1.67089637,0 0,1.67106575 0,3.73302835 C0,5.79525389 1.67089637,7.46668769 3.7326254,7.46668769 C5.79451215,7.46668769 7.46546108,5.79525389 7.46546108,3.73302835 C7.46546108,1.67106575 5.79451215,0 3.7326254,0" id="Fill-1" fill="#82B92E" fill-rule="nonzero" mask="url(#mask-4)"></path>
                                    </g>
                                    <path d="M9.85401434,3.95832777 L10.5711718,3.95832777 C10.7911926,3.95832777 10.9582191,3.92130983 11.0721463,3.84727393 C11.186126,3.77329063 11.2431158,3.63047709 11.2431158,3.41893846 C11.2431158,3.20734726 11.186126,3.0645337 11.0721463,2.99055039 C10.9582191,2.91656709 10.7911926,2.87949655 10.5711718,2.87949655 L9.85401434,2.87949655 L9.85401434,3.95832777 Z M9.11330391,4.95655029 L9.11330391,2.51010585 C9.11330391,2.45899584 9.13102124,2.41508961 9.16640331,2.37843975 C9.20173283,2.34173731 9.24494837,2.32338608 9.29604998,2.32338608 L10.7951356,2.32338608 C11.5875785,2.32338608 11.9838263,2.68862278 11.9838263,3.41893846 C11.9838263,4.14925413 11.5875785,4.51443825 10.7951356,4.51443825 L9.85401434,4.51443825 L9.85401434,4.95655029 C9.85401434,5.0076603 9.83598157,5.05125104 9.80002118,5.08721733 C9.76395564,5.1232888 9.72042464,5.14127195 9.66932303,5.14127195 L9.29999301,5.14127195 C9.2488914,5.14127195 9.20499238,5.1232888 9.16834854,5.08721733 C9.13165211,5.05125104 9.11330391,5.0076603 9.11330391,4.95655029 L9.11330391,4.95655029 Z" id="Fill-4" fill="#181818" fill-rule="nonzero"></path>
                                    <path d="M13.0880153,3.90525644 L14.3395315,3.90525644 L14.3395315,2.87953337 L13.7795693,2.87953337 C13.6538657,2.87953337 13.5441444,2.91518417 13.4505107,2.98659095 C13.3568245,3.05799772 13.2936309,3.15396044 13.2608775,3.27447908 L13.0880153,3.90525644 Z M12.0545746,4.96047819 L12.5477157,3.08975744 C12.6813054,2.58018229 13.1161422,2.32468486 13.8522787,2.32342289 L14.9112701,2.32342289 C14.9597431,2.32342289 14.999962,2.3417741 15.032137,2.37842398 C15.0641544,2.41512643 15.0802419,2.4577181 15.0802419,2.50614641 L15.0802419,4.96047819 C15.0802419,5.0115882 15.0618937,5.05449537 15.0252498,5.08919969 C14.9885008,5.12390401 14.9446544,5.14125617 14.8936054,5.14125617 L14.5241702,5.14125617 C14.4704925,5.14125617 14.426278,5.12390401 14.3915794,5.08919969 C14.3568808,5.05449537 14.3395315,5.01027365 14.3395315,4.9565871 L14.3395315,4.46136693 L12.9425965,4.46136693 L12.810952,4.9565871 C12.7978086,5.01027365 12.7683674,5.05449537 12.7225757,5.08919969 C12.6766789,5.12390401 12.6282585,5.14125617 12.5771569,5.14125617 L12.1901096,5.14125617 C12.139008,5.14125617 12.1023641,5.12653313 12.0800729,5.09708703 C12.0577816,5.06758836 12.047004,5.04171787 12.0476875,5.01942297 C12.0483184,4.99718065 12.0506316,4.97751487 12.0545746,4.96047819 L12.0545746,4.96047819 Z" id="Fill-6" fill="#181818" fill-rule="nonzero"></path>
                                    <path d="M15.642102,4.95656608 L15.642102,2.51006905 C15.642102,2.45895904 15.6598192,2.4151054 15.6952014,2.37840294 C15.730531,2.34175308 15.7737464,2.32340185 15.8248481,2.32340185 L16.402475,2.32340185 C16.4483193,2.32340185 16.4967921,2.34175308 16.5478937,2.37840294 C16.5989428,2.4151054 16.640844,2.45895904 16.6735974,2.51006905 L17.8602903,4.33556903 L17.8602903,2.50612537 C17.8602903,2.45506796 17.8782704,2.41179271 17.9143359,2.3764574 C17.9502964,2.3410695 17.99388,2.32340185 18.0449815,2.32340185 L18.3829251,2.32340185 C18.4339741,2.32340185 18.4775577,2.3410695 18.5135707,2.3764574 C18.5495837,2.41179271 18.5676164,2.45638251 18.5676164,2.51006905 L18.5676164,4.95656608 C18.5676164,5.00767608 18.5495837,5.05121423 18.5135707,5.0872331 C18.4775577,5.12325199 18.4339741,5.14128772 18.3829251,5.14128772 L17.7306435,5.14128772 C17.679542,5.14128772 17.627126,5.12325199 17.5734483,5.0872331 C17.519718,5.05121423 17.4771333,5.00767608 17.4457469,4.95656608 L16.3592594,3.27056695 L16.3592594,4.95656608 C16.3592594,5.00767608 16.3412266,5.05121423 16.3052137,5.0872331 C16.2692008,5.12325199 16.2256697,5.14128772 16.1745681,5.14128772 L15.8287911,5.14128772 C15.7776895,5.14128772 15.7337905,5.12325199 15.6971466,5.0872331 C15.6604502,5.05121423 15.642102,5.00767608 15.642102,4.95656608" id="Fill-8" fill="#181818" fill-rule="nonzero"></path>
                                    <path d="M19.8721742,4.5851562 L20.3947565,4.5851562 C20.7471578,4.5851562 20.9868412,4.52100578 21.1139116,4.39259978 C21.2409296,4.2641938 21.3044387,4.04445234 21.3044387,3.73332282 C21.3044387,3.4221933 21.2409296,3.20208376 21.1139116,3.07304677 C20.9868412,2.94406237 20.7471578,2.8794913 20.3947565,2.8794913 L19.8721742,2.8794913 L19.8721742,4.5851562 Z M19.1314638,4.96048872 L19.1314638,2.51399168 C19.1314638,2.46030515 19.149812,2.41508436 19.1865084,2.37843449 C19.2231523,2.34173205 19.2670512,2.32338082 19.3181529,2.32338082 L20.4164168,2.32338082 C20.9848433,2.32338082 21.3984404,2.43706376 21.6571554,2.6643245 C21.9158179,2.89163782 22.0451491,3.24793553 22.0451491,3.73332282 C22.0451491,4.21871009 21.9158179,4.57469233 21.6571554,4.80132207 C21.3984404,5.02795182 20.9848433,5.14126668 20.4164168,5.14126668 L19.3181529,5.14126668 C19.2670512,5.14126668 19.2231523,5.12391452 19.1865084,5.0892102 C19.149812,5.05450588 19.1314638,5.01159871 19.1314638,4.96048872 L19.1314638,4.96048872 Z" id="Fill-10" fill="#181818" fill-rule="nonzero"></path>
                                    <path d="M24.5109278,3.03081793 C24.3785473,2.87359683 24.1647828,2.79498628 23.8694239,2.79498628 C23.5740651,2.79498628 23.3598799,2.87359683 23.2269211,3.03081793 C23.0940149,3.18803902 23.0275091,3.42218804 23.0275091,3.73331756 C23.0275091,4.04444707 23.0940149,4.27833317 23.2269211,4.43481812 C23.3598799,4.59140824 23.5740651,4.66965072 23.8694239,4.66965072 C24.1647828,4.66965072 24.3785473,4.59140824 24.5109278,4.43481812 C24.6432032,4.27833317 24.7093408,4.04444707 24.7093408,3.73331756 C24.7093408,3.42218804 24.6432032,3.18803902 24.5109278,3.03081793 M25.0482833,4.84942963 C24.7803678,5.08463028 24.3874322,5.20220433 23.8694239,5.20220433 C23.3513629,5.20220433 22.9581118,5.08463028 22.6895655,4.84942963 C22.4210718,4.61433413 22.2867988,4.24194623 22.2867988,3.73231849 C22.2867988,3.22274336 22.4210718,2.85072352 22.6895655,2.61620643 C22.9581118,2.38168933 23.3513629,2.2644308 23.8694239,2.2644308 C24.3874322,2.2644308 24.7803678,2.38168933 25.0482833,2.61620643 C25.3160935,2.85072352 25.4500512,3.22274336 25.4500512,3.73231849 C25.4500512,4.24194623 25.3160935,4.61433413 25.0482833,4.84942963" id="Fill-12" fill="#181818" fill-rule="nonzero"></path>
                                    <path d="M26.593497,3.55548419 L27.4304698,3.55548419 C27.5653738,3.55548419 27.684243,3.52866722 27.7870771,3.4749281 C27.8898586,3.42118897 27.9413283,3.33537465 27.9413283,3.21748512 C27.9413283,3.09959558 27.8898586,3.01378125 27.7870771,2.96004215 C27.684243,2.9063556 27.5653738,2.87953862 27.4304698,2.87953862 L26.593497,2.87953862 L26.593497,3.55548419 Z M28.778301,5.05676167 C28.778301,5.11312989 28.7449168,5.14126143 28.6780431,5.14126143 L28.2065623,5.14126143 C28.1567225,5.14126143 28.1020459,5.12327829 28.0425325,5.08720682 C27.982914,5.05124051 27.9373851,5.00764979 27.9059461,4.95659236 L27.5719456,4.43387165 C27.4344128,4.21902033 27.2680698,4.11159468 27.0729163,4.11159468 L26.593497,4.11159468 L26.593497,4.95659236 C26.593497,5.00764979 26.5754642,5.05124051 26.5395039,5.08720682 C26.5034384,5.12327829 26.4599074,5.14126143 26.4088057,5.14126143 L26.0394757,5.14126143 C25.9883741,5.14126143 25.9444751,5.12327829 25.9078312,5.08720682 C25.8711348,5.05124051 25.8527866,5.00764979 25.8527866,4.95659236 L25.8527866,2.51009533 C25.8527866,2.45898533 25.870504,2.41513168 25.905886,2.37842924 C25.9412156,2.34172678 25.9844311,2.32337556 26.0355327,2.32337556 L27.6564315,2.32337556 C27.9563644,2.32337556 28.202304,2.40398423 28.3941977,2.56509643 C28.5860391,2.72620862 28.6820386,2.94368904 28.6820386,3.21748512 C28.6820386,3.59870685 28.4351001,3.8377986 27.9413283,3.9347078 C28.0199258,3.96357548 28.0926352,4.01305544 28.1594038,4.08309507 C28.2262249,4.15318729 28.3028247,4.25503922 28.3892559,4.38865086 L28.746862,4.95659236 C28.7677863,4.99324224 28.778301,5.02668459 28.778301,5.05676167 L28.778301,5.05676167 Z" id="Fill-14" fill="#181818" fill-rule="nonzero"></path>
                                    <path d="M29.9060483,3.90525644 L31.1575645,3.90525644 L31.1575645,2.87953337 L30.5976024,2.87953337 C30.4718987,2.87953337 30.3621775,2.91518417 30.2685437,2.98659095 C30.1748575,3.05799772 30.111664,3.15396044 30.0789105,3.27447908 L29.9060483,3.90525644 Z M28.8726077,4.96047819 L29.3657488,3.08975744 C29.4993383,2.58018229 29.9341752,2.32468486 30.6703118,2.32342289 L31.7293031,2.32342289 C31.7777761,2.32342289 31.8179949,2.3417741 31.8501701,2.37842398 C31.8821875,2.41512643 31.898275,2.4577181 31.898275,2.50614641 L31.898275,4.96047819 C31.898275,5.0115882 31.8799267,5.05449537 31.8432828,5.08919969 C31.8065338,5.12390401 31.7626875,5.14125617 31.7116385,5.14125617 L31.3422032,5.14125617 C31.2885255,5.14125617 31.244311,5.12390401 31.2096124,5.08919969 C31.1749139,5.05449537 31.1575645,5.01027365 31.1575645,4.9565871 L31.1575645,4.46136693 L29.7606295,4.46136693 L29.628985,4.9565871 C29.6158416,5.01027365 29.5864004,5.05449537 29.5406087,5.08919969 C29.494712,5.12390401 29.4462915,5.14125617 29.39519,5.14125617 L29.0081426,5.14125617 C28.957041,5.14125617 28.9203972,5.12653313 28.8981059,5.09708703 C28.8758146,5.06758836 28.8650371,5.04171787 28.8657206,5.01942297 C28.8663514,4.99718065 28.8686647,4.97751487 28.8726077,4.96047819 L28.8726077,4.96047819 Z" id="Fill-16" fill="#181818" fill-rule="nonzero"></path>
                                    <path d="M33.200835,3.55548419 L34.0378077,3.55548419 C34.1727119,3.55548419 34.2915809,3.52866722 34.394415,3.4749281 C34.4971965,3.42118897 34.5486661,3.33537465 34.5486661,3.21748512 C34.5486661,3.09959558 34.4971965,3.01378125 34.394415,2.96004215 C34.2915809,2.9063556 34.1727119,2.87953862 34.0378077,2.87953862 L33.200835,2.87953862 L33.200835,3.55548419 Z M35.3856388,5.05676167 C35.3856388,5.11312989 35.3522546,5.14126143 35.2853809,5.14126143 L34.8139002,5.14126143 C34.7640604,5.14126143 34.7093837,5.12327829 34.6498704,5.08720682 C34.5902519,5.05124051 34.5447231,5.00764979 34.513284,4.95659236 L34.1792836,4.43387165 C34.0417507,4.21902033 33.8754077,4.11159468 33.6802543,4.11159468 L33.200835,4.11159468 L33.200835,4.95659236 C33.200835,5.00764979 33.1828021,5.05124051 33.1468417,5.08720682 C33.1107762,5.12327829 33.0672453,5.14126143 33.0161436,5.14126143 L32.6468135,5.14126143 C32.595712,5.14126143 32.5518129,5.12327829 32.5151692,5.08720682 C32.4784728,5.05124051 32.4601245,5.00764979 32.4601245,4.95659236 L32.4601245,2.51009533 C32.4601245,2.45898533 32.4778418,2.41513168 32.5132238,2.37842924 C32.5485534,2.34172678 32.591769,2.32337556 32.6428705,2.32337556 L34.2637693,2.32337556 C34.5637022,2.32337556 34.8096418,2.40398423 35.0015357,2.56509643 C35.193377,2.72620862 35.2893765,2.94368904 35.2893765,3.21748512 C35.2893765,3.59870685 35.042438,3.8377986 34.5486661,3.9347078 C34.6272637,3.96357548 34.6999731,4.01305544 34.7667416,4.08309507 C34.8335628,4.15318729 34.9101627,4.25503922 34.9965937,4.38865086 L35.3541999,4.95659236 C35.3751241,4.99324224 35.3856388,5.02668459 35.3856388,5.05676167 L35.3856388,5.05676167 Z" id="Fill-18" fill="#82B92E" fill-rule="nonzero"></path>
                                    <path d="M35.9151557,4.80916734 C35.6721601,4.57727938 35.5506623,4.21872062 35.5506623,3.73333333 C35.5506623,3.24794605 35.6721601,2.88901921 35.9151557,2.65650025 C36.1580985,2.4239287 36.5225918,2.30766922 37.0085302,2.30766922 L37.4466793,2.30766922 C37.7439833,2.30766922 38.0069043,2.38496521 38.2354945,2.5395572 C38.4640323,2.69414919 38.5783274,2.90574039 38.5783274,3.17427824 C38.5783274,3.25157423 38.5554054,3.30689082 38.5096136,3.34028058 C38.4637169,3.37372293 38.4191869,3.39044411 38.3759713,3.39044411 L38.1421763,3.39044411 C38.0216249,3.39044411 37.9279912,3.31835376 37.8612226,3.17427824 C37.7642768,2.9672617 37.6031385,2.86377971 37.3778604,2.86377971 L37.0281928,2.86377971 C36.7413509,2.86377971 36.5468283,2.9253536 36.4446251,3.04850136 C36.3424744,3.17164912 36.2913728,3.39959342 36.2913728,3.73233426 C36.2913728,4.06512769 36.3424744,4.29333492 36.4446251,4.41716625 C36.5468283,4.54094499 36.7413509,4.60283437 37.0281928,4.60283437 L37.4191306,4.60283437 C37.6444614,4.60283437 37.8048636,4.49935239 37.9005478,4.29238843 C37.9673164,4.14694576 38.0616335,4.07422443 38.1834466,4.07422443 L38.4172417,4.07422443 C38.4788056,4.07422443 38.5275412,4.09715033 38.5636069,4.14305468 C38.5996198,4.18890644 38.6176,4.2386493 38.6176,4.29238843 C38.6176,4.56092627 38.5036729,4.7721494 38.275766,4.9261104 C38.0478591,5.08001881 37.7852011,5.15699932 37.4878969,5.15699932 L37.0085302,5.15699932 C36.5225918,5.15699932 36.1580985,5.04105532 35.9151557,4.80916734" id="Fill-20" fill="#82B92E" fill-rule="nonzero"></path>
                                </g>
                                <mask id="mask-6" fill="white">
                                    <use xlink:href="#path-5"></use>
                                </mask>
                                <rect stroke="#C1CCDC" x="0.5" y="0.5" width="209" height="148.333333" rx="4"></rect>
                            </g>
                        </g>
                    </g>
                </g>
            </g>
        </g>
    </g>
</svg>