<?xml version="1.0" encoding="UTF-8"?>
<svg width="20px" height="20px" viewBox="0 0 20 20" version="1.1" xmlns="http://www.w3.org/2000/svg" xmlns:xlink="http://www.w3.org/1999/xlink">
    <title>loop v2@svg</title>
    <g id="loop-v2" stroke="none" stroke-width="1" fill="none" fill-rule="evenodd">
        <g id="Group" fill="#3F3F3F">
            <path d="M20,10 C20,14.418278 16.418278,18 12,18 L11,18 L11,16 L12,16 C15.3137085,16 18,13.3137085 18,10 C18,6.92328108 15.6842046,4.38744515 12.7005882,4.04046651 L14,3 L12.7999684,2.03949706 C16.8426417,2.44086199 20,5.85171073 20,10 Z M9,2 L9,4 L8,4 C4.6862915,4 2,6.6862915 2,10 C2,13.0774099 4.31683558,15.6136938 7.30142194,15.9597669 L6,17 L7.19902859,17.9604033 C3.15683607,17.5585739 0,14.1479462 0,10 C0,5.581722 3.581722,2 8,2 L9,2 Z" id="Path-107" transform="translate(10, 10) scale(-1, -1) translate(-10, -10)"></path>
            <polygon id="Path-106" points="8 0 8 6 12 3"></polygon>
            <polygon id="Path-106" transform="translate(10, 17) scale(-1, 1) translate(-10, -17)" points="8 14 8 20 12 17"></polygon>
        </g>
        <path d="M0.292893219,0.292893219 C0.683417511,-0.0976310729 1.31658249,-0.0976310729 1.70710678,0.292893219 L1.79912396,0.384910402 C1.85821492,0.444001355 1.91326052,0.499046961 1.96703474,0.552821173 L2.08705149,0.672837932 C2.1271221,0.712908533 2.1676478,0.753434236 2.20979886,0.795585301 L2.38984567,0.975632111 C2.40603428,0.99182072 2.42257686,1.0083633 2.43951675,1.02530319 L2.94454935,1.53033579 C2.99669098,1.58247741 3.05180882,1.63759526 3.11024963,1.69603607 L4.94491536,3.5307018 C5.06686811,3.65265454 5.19457102,3.78035746 5.32837086,3.91415729 L5.97279454,4.55858098 L6.20710678,4.79289322 C6.53523178,5.12101822 6.84284897,5.42863541 7.13325424,5.71904068 L7.5563652,6.14215164 C7.62486954,6.21065598 7.69240112,6.27818756 7.75901146,6.3447979 L8.33502121,6.92080765 C8.39656754,6.98235397 8.45734711,7.04313354 8.51741142,7.10319786 L8.86962624,7.45541267 C8.92703552,7.51282196 8.98383255,7.56961899 9.04006882,7.62585525 L9.37116928,7.95695572 C9.4253685,8.01115494 9.47910996,8.06489639 9.53244514,8.11823158 L10.9113152,9.49710159 C11.0117027,9.59748917 11.1123192,9.69810562 11.2135765,9.79936295 L11.6749508,10.2607372 C11.7790577,10.3648441 11.8844234,10.4702099 11.99146,10.5772465 L12.4857933,11.0715797 C12.7117455,11.2975319 12.9468529,11.5326393 13.1944115,11.7801979 L14.4035942,12.9893806 C14.7690041,13.3547905 15.1615936,13.7473801 15.5878002,14.1735867 L17.2784931,15.8642796 C17.5881874,16.1739738 17.9127647,16.4985512 18.2536156,16.839402 L19.326379,17.9121655 L19.7071068,18.2928932 C20.0976311,18.6834175 20.0976311,19.3165825 19.7071068,19.7071068 C19.3165825,20.0976311 18.6834175,20.0976311 18.2928932,19.7071068 C18.163987,19.5782005 18.0370949,19.4513084 17.9121655,19.326379 L16.839402,18.2536156 C16.4985512,17.9127647 16.1739738,17.5881874 15.8642796,17.2784931 L14.1735867,15.5878002 C13.7473801,15.1615936 13.3547905,14.7690041 12.9893806,14.4035942 L11.7801979,13.1944115 C11.5326393,12.9468529 11.2975319,12.7117455 11.0715797,12.4857933 L10.5772465,11.99146 C10.4702099,11.8844234 10.3648441,11.7790577 10.2607372,11.6749508 L9.79936295,11.2135765 C9.69810562,11.1123192 9.59748917,11.0117027 9.49710159,10.9113152 L8.11823158,9.53244514 C8.06489639,9.47910996 8.01115494,9.4253685 7.95695572,9.37116928 L7.62585525,9.04006882 C7.56961899,8.98383255 7.51282196,8.92703552 7.45541267,8.86962624 L7.10319786,8.51741142 C7.04313354,8.45734711 6.98235397,8.39656754 6.92080765,8.33502121 L6.3447979,7.75901146 C6.27818756,7.69240112 6.21065598,7.62486954 6.14215164,7.5563652 L5.71904068,7.13325424 C5.42863541,6.84284897 5.12101822,6.53523178 4.79289322,6.20710678 C4.71310598,6.12731955 4.63501635,6.04922991 4.55858098,5.97279454 L3.91415729,5.32837086 C3.78035746,5.19457102 3.65265454,5.06686811 3.5307018,4.94491536 L1.69603607,3.11024963 C1.63759526,3.05180882 1.58247741,2.99669098 1.53033579,2.94454935 L1.02530319,2.43951675 C1.0083633,2.42257686 0.99182072,2.40603428 0.975632111,2.38984567 L0.795585301,2.20979886 C0.753434236,2.1676478 0.712908533,2.1271221 0.672837932,2.08705149 L0.552821173,1.96703474 C0.499046961,1.91326052 0.444001355,1.85821492 0.384910402,1.79912396 L0.292893219,1.70710678 C-0.0976310729,1.31658249 -0.0976310729,0.683417511 0.292893219,0.292893219 Z" id="Path-99" fill="#3F3F3F" fill-rule="nonzero"></path>
    </g>
</svg>