<?xml version="1.0" encoding="UTF-8"?>
<svg width="20px" height="20px" viewBox="0 0 20 20" version="1.1" xmlns="http://www.w3.org/2000/svg" xmlns:xlink="http://www.w3.org/1999/xlink">
    <title>alerta externa</title>
    <g id="alerta-externa" stroke="none" stroke-width="1" fill="none" fill-rule="evenodd">
        <path d="M7,8 C10,8 11,10 11,12 L11,15 L12.9421268,17.4207466 C12.980022,17.4797635 13,17.5469472 13,17.6153698 C13,17.8277953 12.8115134,18 12.5790032,18 L1.42106332,18 C1.34572552,18 1.27176775,17.9815301 1.20690603,17.9465168 C1.00672668,17.838458 0.940330434,17.6025993 1.05860612,17.4197119 L3,15 L3,12 C3,10 4,8 7,8 Z M9,18 C9,19.104 8.1048,20 7,20 C5.8956,20 5,19.104 5,18 L9,18 Z M8,0 C14.6273158,0 20,5.37252632 20,12 L18.1297368,12 C18.1297368,6.40563158 13.5945263,1.87010526 8,1.87010526 Z M8,3.74021053 C12.5617368,3.74021053 16.2596316,7.43826316 16.2596316,12 L14.3895263,12 C14.3895263,8.47105263 11.5287895,5.61031579 8,5.61031579 Z" id="bell" fill="#3F3F3F"></path>
    </g>
</svg>