<?xml version="1.0" encoding="UTF-8"?>
<svg width="200px" height="350px" viewBox="0 0 200 350" version="1.1" xmlns="http://www.w3.org/2000/svg" xmlns:xlink="http://www.w3.org/1999/xlink">
    <title>771F63E3-1B6F-4CAC-94BD-C4F0EC2141AA</title>
    <defs>
        <linearGradient x1="0%" y1="0.656547428%" x2="100%" y2="99.3434526%" id="linearGradient-1">
            <stop stop-color="#82B92E" offset="0%"></stop>
            <stop stop-color="#2EB9A2" offset="100%"></stop>
        </linearGradient>
        <linearGradient x1="0%" y1="0.0223981887%" x2="100%" y2="99.9776018%" id="linearGradient-2">
            <stop stop-color="#82B92E" offset="0%"></stop>
            <stop stop-color="#2EB9A2" offset="100%"></stop>
        </linearGradient>
        <linearGradient x1="0%" y1="0.996684819%" x2="100%" y2="99.0033152%" id="linearGradient-3">
            <stop stop-color="#82B92E" offset="0%"></stop>
            <stop stop-color="#2EB9A2" offset="100%"></stop>
        </linearGradient>
        <linearGradient x1="0.170183383%" y1="0%" x2="99.8298166%" y2="100%" id="linearGradient-4">
            <stop stop-color="#82B92E" offset="0%"></stop>
            <stop stop-color="#2EB9A2" offset="100%"></stop>
        </linearGradient>
    </defs>
    <g id="Pandora-FMS-modules-popups" stroke="none" stroke-width="1" fill="none" fill-rule="evenodd">
        <g id="Mockup-Free-version" transform="translate(-40, -111)">
            <g id="Content" transform="translate(10, 10)">
                <g id="Free-Trial-Pandora-FMS" transform="translate(30, 101)">
                    <g id="Group" fill="#F7B500" fill-opacity="0.08">
                        <rect id="Rectangle" x="40" y="110" width="120" height="130" rx="20"></rect>
                        <rect id="Rectangle" x="80" y="220" width="120" height="130" rx="20"></rect>
                        <rect id="Rectangle-Copy-6" x="0" y="0" width="120" height="130" rx="20"></rect>
                    </g>
                    <g id="Front" transform="translate(0, 5)">
                        <g id="Chart" transform="translate(60, 0)">
                            <g transform="translate(15.6026, 0)">
                                <path d="M26.1725348,7.18557851 L26.1721854,33.9997186 L53.1639594,34.0006985 C51.6774504,45.8390608 41.511618,54.9995448 29.192053,54.9995448 C15.8494386,54.9995448 5.03311258,44.2544677 5.03311258,30.9997434 C5.03311258,18.7608722 14.2550274,8.66170645 26.1725348,7.18557851 Z" id="Oval-2" fill="#B2D3E6"></path>
                                <path d="M33.218543,0 C48.2289842,0 60.397351,12.0882117 60.397351,26.9997765 L33.218543,26.9997765 L33.218543,0 Z M37.2450331,4.34696402 L37.2450331,22.9998096 L56.0205563,22.9988096 L56.0051623,22.905779 C54.3013988,13.4850714 46.8228621,6.05579715 37.3396873,4.36325663 L37.2450331,4.34696402 Z" id="Rectangle" fill="url(#linearGradient-1)" fill-rule="nonzero"></path>
                                <ellipse id="Oval" fill="#B2D3E6" cx="4.52980132" cy="31.4997393" rx="4.52980132" ry="4.49996275"></ellipse>
                            </g>
                            <path d="M22.3377746,29.9997517 L22.3377746,32.9997269 L3.01986755,32.9997269 L3.01986755,71.5014082 L57.8830025,71.5870678 C64.1753674,71.5961989 69.2883486,76.5911277 69.4388417,82.8047321 L69.442247,83.096873 L69.3979976,140 L66.3781309,139.997683 L66.4223805,83.0944012 C66.4265155,78.4019644 62.6021395,74.5938943 57.8784333,74.5870395 L1.50757023,74.4993815 L0,74.4970372 L0,29.9997517 L22.3377746,29.9997517 Z" id="Path-2" fill="#B2D3E6" fill-rule="nonzero"></path>
                        </g>
                        <g id="Module" transform="translate(78, 82.004)">
                            <polygon id="Path-3" fill="#82B92E" fill-rule="nonzero" points="0 17.7703773 1.50218087 17.7704902 66.5917958 17.7753786 66.5915701 20.7788417 3.00413607 20.7729521 3.00413607 84 0 84"></polygon>
                            <path d="M63.4353497,24.027705 C65.9240575,24.027705 67.9415538,22.0106606 67.9415538,19.5225103 C67.9415538,17.03436 65.9240575,15.0173156 63.4353497,15.0173156 C63.309994,15.0173156 63.1440754,15.0173156 62.9375941,15.0173156 C62.9123449,20.3096872 62.9123449,23.3131503 62.9375941,24.027705 C62.9433235,24.1898481 63.4353497,23.9484468 63.4353497,24.027705 Z" id="Oval" fill="#82B92E" transform="translate(65.4301, 19.5512) scale(-1, 1) translate(-65.4301, -19.5512)"></path>
                            <path d="M99.2144989,40.046175 C99.7675451,40.046175 100.215878,40.4944071 100.215878,41.0473294 C100.215878,41.6002517 99.7675451,42.0484838 99.2144989,42.0484838 L98.2131202,42.0484838 C97.660074,42.0484838 97.2117415,41.6002517 97.2117415,41.0473294 C97.2117415,40.4944071 97.660074,40.046175 98.2131202,40.046175 L99.2144989,40.046175 Z M95.2089842,40.046175 C95.7620303,40.046175 96.2103628,40.4944071 96.2103628,41.0473294 C96.2103628,41.6002517 95.7620303,42.0484838 95.2089842,42.0484838 L94.2076055,42.0484838 C93.6545593,42.0484838 93.2062268,41.6002517 93.2062268,41.0473294 C93.2062268,40.4944071 93.6545593,40.046175 94.2076055,40.046175 L95.2089842,40.046175 Z M91.2034694,40.046175 C91.7565156,40.046175 92.2048481,40.4944071 92.2048481,41.0473294 C92.2048481,41.6002517 91.7565156,42.0484838 91.2034694,42.0484838 L90.2020907,42.0484838 C89.6490445,42.0484838 89.200712,41.6002517 89.200712,41.0473294 C89.200712,40.4944071 89.6490445,40.046175 90.2020907,40.046175 L91.2034694,40.046175 Z M87.1979546,40.046175 C87.7510008,40.046175 88.1993333,40.4944071 88.1993333,41.0473294 C88.1993333,41.6002517 87.7510008,42.0484838 87.1979546,42.0484838 L86.1965759,42.0484838 C85.6435298,42.0484838 85.1951972,41.6002517 85.1951972,41.0473294 C85.1951972,40.4944071 85.6435298,40.046175 86.1965759,40.046175 L87.1979546,40.046175 Z M83.1924399,40.046175 C83.745486,40.046175 84.1938185,40.4944071 84.1938185,41.0473294 C84.1938185,41.6002517 83.745486,42.0484838 83.1924399,42.0484838 L82.1910612,42.0484838 C81.638015,42.0484838 81.1896825,41.6002517 81.1896825,41.0473294 C81.1896825,40.4944071 81.638015,40.046175 82.1910612,40.046175 L83.1924399,40.046175 Z M79.1869251,40.046175 C79.7399713,40.046175 80.1883038,40.4944071 80.1883038,41.0473294 C80.1883038,41.6002517 79.7399713,42.0484838 79.1869251,42.0484838 L78.1855464,42.0484838 C77.6325002,42.0484838 77.1841677,41.6002517 77.1841677,41.0473294 C77.1841677,40.4944071 77.6325002,40.046175 78.1855464,40.046175 L79.1869251,40.046175 Z M75.1814103,40.046175 C75.7344565,40.046175 76.182789,40.4944071 76.182789,41.0473294 C76.182789,41.6002517 75.7344565,42.0484838 75.1814103,42.0484838 L74.1800316,42.0484838 C73.6269855,42.0484838 73.1786529,41.6002517 73.1786529,41.0473294 C73.1786529,40.4944071 73.6269855,40.046175 74.1800316,40.046175 L75.1814103,40.046175 Z M69.1939736,40.7900744 C69.2971677,40.2468629 69.8212818,39.8901395 70.364615,39.9933106 C70.5492,40.0283605 70.7380355,40.046175 70.9296867,40.046175 L71.1758956,40.046175 C71.7289417,40.046175 72.1772743,40.4944071 72.1772743,41.0473294 C72.1772743,41.6002517 71.7289417,42.0484838 71.1758956,42.0484838 L70.9296867,42.0484838 C70.6124847,42.0484838 70.2985371,42.0188664 69.990916,41.9604536 C69.4475827,41.8572826 69.0907794,41.333286 69.1939736,40.7900744 Z M103.17385,40.0396587 C103.725717,40.0035657 104.202359,40.4215826 104.23846,40.9733256 C104.274561,41.5250686 103.85645,42.0016039 103.304584,42.0376969 C103.202736,42.044358 103.10047,42.0479418 102.993212,42.048438 L102.218694,42.0484838 C101.665648,42.0485164 101.217289,41.6003108 101.217256,41.0473885 C101.217224,40.4944662 101.66553,40.0462077 102.218576,40.046175 L102.988417,40.0461405 C103.050537,40.0458468 103.112363,40.0436801 103.17385,40.0396587 Z M105.648359,38.4123201 C105.901019,37.9204716 106.504651,37.7265245 106.99661,37.9791272 C107.488568,38.2317298 107.682559,38.8352268 107.4299,39.3270753 C107.238567,39.6995403 107.001148,40.0464161 106.723797,40.3596492 C106.357216,40.7736562 105.72435,40.8121694 105.31025,40.4456708 C104.89615,40.0791721 104.857628,39.4464473 105.224209,39.0324402 C105.39098,38.8440935 105.533599,38.6357226 105.648359,38.4123201 Z M66.8307762,37.5488109 C67.3467953,37.3498973 67.9263989,37.6068684 68.1253571,38.1227719 C68.2156862,38.3569974 68.3353087,38.5788445 68.4811228,38.7833761 C68.8021186,39.2336326 68.6972503,39.8587979 68.2468929,40.1797217 C67.7965355,40.5006456 67.1712302,40.3958008 66.8502344,39.9455443 C66.607258,39.6047245 66.4076307,39.2345037 66.2566866,38.8431018 C66.0577284,38.3271983 66.3147571,37.7477245 66.8307762,37.5488109 Z M106.97932,33.9161719 C107.532366,33.9161719 107.980698,34.364404 107.980698,34.9173263 L107.980698,35.9184807 C107.980698,36.471403 107.532366,36.9196351 106.97932,36.9196351 C106.426273,36.9196351 105.977941,36.471403 105.977941,35.9184807 L105.977941,34.9173263 C105.977941,34.364404 106.426273,33.9161719 106.97932,33.9161719 Z M66.924172,33.4073249 C67.4772182,33.4073249 67.9255507,33.855557 67.9255507,34.4084793 L67.9255507,35.4096336 C67.9255507,35.9625559 67.4772182,36.410788 66.924172,36.410788 C66.3711258,36.410788 65.9227933,35.9625559 65.9227933,35.4096336 L65.9227933,34.4084793 C65.9227933,33.855557 66.3711258,33.4073249 66.924172,33.4073249 Z M106.97932,29.9115544 C107.532366,29.9115544 107.980698,30.3597865 107.980698,30.9127088 L107.980698,31.9138632 C107.980698,32.4667855 107.532366,32.9150176 106.97932,32.9150176 C106.426273,32.9150176 105.977941,32.4667855 105.977941,31.9138632 L105.977941,30.9127088 C105.977941,30.3597865 106.426273,29.9115544 106.97932,29.9115544 Z M66.924172,29.4027074 C67.4772182,29.4027074 67.9255507,29.8509395 67.9255507,30.4038618 L67.9255507,31.4050161 C67.9255507,31.9579384 67.4772182,32.4061705 66.924172,32.4061705 C66.3711258,32.4061705 65.9227933,31.9579384 65.9227933,31.4050161 L65.9227933,30.4038618 C65.9227933,29.8509395 66.3711258,29.4027074 66.924172,29.4027074 Z M106.97932,25.9069369 C107.532366,25.9069369 107.980698,26.355169 107.980698,26.9080913 L107.980698,27.9092457 C107.980698,28.462168 107.532366,28.9104001 106.97932,28.9104001 C106.426273,28.9104001 105.977941,28.462168 105.977941,27.9092457 L105.977941,26.9080913 C105.977941,26.355169 106.426273,25.9069369 106.97932,25.9069369 Z M66.924172,25.3980899 C67.4772182,25.3980899 67.9255507,25.846322 67.9255507,26.3992443 L67.9255507,27.4003986 C67.9255507,27.9533209 67.4772182,28.401553 66.924172,28.401553 C66.3711258,28.401553 65.9227933,27.9533209 65.9227933,27.4003986 L65.9227933,26.3992443 C65.9227933,25.846322 66.3711258,25.3980899 66.924172,25.3980899 Z M106.97932,21.9023194 C107.532366,21.9023194 107.980698,22.3505515 107.980698,22.9034738 L107.980698,23.9046282 C107.980698,24.4575505 107.532366,24.9057826 106.97932,24.9057826 C106.426273,24.9057826 105.977941,24.4575505 105.977941,23.9046282 L105.977941,22.9034738 C105.977941,22.3505515 106.426273,21.9023194 106.97932,21.9023194 Z M66.924172,21.3934724 C67.4772182,21.3934724 67.9255507,21.8417045 67.9255507,22.3946268 L67.9255507,23.3957811 C67.9255507,23.9487034 67.4772182,24.3969355 66.924172,24.3969355 C66.3711258,24.3969355 65.9227933,23.9487034 65.9227933,23.3957811 L65.9227933,22.3946268 C65.9227933,21.8417045 66.3711258,21.3934724 66.924172,21.3934724 Z M106.97932,17.8977019 C107.532366,17.8977019 107.980698,18.345934 107.980698,18.8988563 L107.980698,19.9000107 C107.980698,20.452933 107.532366,20.9011651 106.97932,20.9011651 C106.426273,20.9011651 105.977941,20.452933 105.977941,19.9000107 L105.977941,18.8988563 C105.977941,18.345934 106.426273,17.8977019 106.97932,17.8977019 Z M66.924172,17.3888549 C67.4772182,17.3888549 67.9255507,17.837087 67.9255507,18.3900092 L67.9255507,19.3911636 C67.9255507,19.9440859 67.4772182,20.392318 66.924172,20.392318 C66.3711258,20.392318 65.9227933,19.9440859 65.9227933,19.3911636 L65.9227933,18.3900092 C65.9227933,17.837087 66.3711258,17.3888549 66.924172,17.3888549 Z M106.97932,13.8930844 C107.532366,13.8930844 107.980698,14.3413165 107.980698,14.8942388 L107.980698,15.8953932 C107.980698,16.4483155 107.532366,16.8965476 106.97932,16.8965476 C106.426273,16.8965476 105.977941,16.4483155 105.977941,15.8953932 L105.977941,14.8942388 C105.977941,14.3413165 106.426273,13.8930844 106.97932,13.8930844 Z M66.924172,13.3842374 C67.4772182,13.3842374 67.9255507,13.8324695 67.9255507,14.3853917 L67.9255507,15.3865461 C67.9255507,15.9394684 67.4772182,16.3877005 66.924172,16.3877005 C66.3711258,16.3877005 65.9227933,15.9394684 65.9227933,15.3865461 L65.9227933,14.3853917 C65.9227933,13.8324695 66.3711258,13.3842374 66.924172,13.3842374 Z M106.97932,9.88846692 C107.532366,9.88846692 107.980698,10.336699 107.980698,10.8896213 L107.980698,11.8907757 C107.980698,12.443698 107.532366,12.89193 106.97932,12.89193 C106.426273,12.89193 105.977941,12.443698 105.977941,11.8907757 L105.977941,10.8896213 C105.977941,10.336699 106.426273,9.88846692 106.97932,9.88846692 Z M66.924172,9.37961987 C67.4772182,9.37961987 67.9255507,9.82785195 67.9255507,10.3807742 L67.9255507,11.3819286 C67.9255507,11.9348509 67.4772182,12.383083 66.924172,12.383083 C66.3711258,12.383083 65.9227933,11.9348509 65.9227933,11.3819286 L65.9227933,10.3807742 C65.9227933,9.82785195 66.3711258,9.37961987 66.924172,9.37961987 Z M106.97932,5.88384942 C107.532366,5.88384942 107.980698,6.3320815 107.980698,6.8850038 L107.980698,7.88615817 C107.980698,8.43908047 107.532366,8.88731255 106.97932,8.88731255 C106.426273,8.88731255 105.977941,8.43908047 105.977941,7.88615817 L105.977941,6.8850038 C105.977941,6.3320815 106.426273,5.88384942 106.97932,5.88384942 Z M66.924172,5.37500237 C67.4772182,5.37500237 67.9255507,5.82323445 67.9255507,6.37615675 L67.9255507,7.37731112 C67.9255507,7.93023341 67.4772182,8.3784655 66.924172,8.3784655 C66.3711258,8.3784655 65.9227933,7.93023341 65.9227933,7.37731112 L65.9227933,6.37615675 C65.9227933,5.82323445 66.3711258,5.37500237 66.924172,5.37500237 Z M105.834723,2.03008557 C106.302966,1.73585823 106.921124,1.87684081 107.215418,2.34497897 C107.438175,2.69932447 107.615917,3.08062979 107.743792,3.4806644 C107.91215,4.00734389 107.621578,4.57075267 107.09478,4.73907313 C106.567983,4.90739358 106.004448,4.61688619 105.836089,4.0902067 C105.759635,3.85103095 105.653268,3.62284568 105.519759,3.41047041 C105.225466,2.94233225 105.36648,2.3243129 105.834723,2.03008557 Z M66.9781664,1.93135138 C67.3180637,1.49518094 67.9472701,1.4170744 68.3835382,1.75689555 C68.8198064,2.09671669 68.8979305,2.72578216 68.5580332,3.1619526 C68.4035317,3.36021537 68.2744382,3.57689437 68.174101,3.80700607 C67.9530941,4.31385998 67.3629542,4.54562486 66.8559867,4.32466744 C66.3490193,4.10371001 66.1172025,3.51370236 66.3382094,3.00684845 C66.5057315,2.62265575 66.7209421,2.26143242 66.9781664,1.93135138 Z M102.973805,0 C103.396095,0 103.812345,0.0524943272 104.215206,0.15530746 C104.751069,0.292063869 105.074584,0.837232495 104.937797,1.37297567 C104.80101,1.90871884 104.25572,2.23216152 103.719856,2.09540511 C103.478537,2.03381854 103.228682,2.00230875 102.973805,2.00230875 C102.420759,2.00230875 101.972426,1.55407667 101.972426,1.00115438 C101.972426,0.448232082 102.420759,0 102.973805,0 Z M71.9310654,0 C72.4841116,0 72.9324441,0.448232082 72.9324441,1.00115438 C72.9324441,1.55407667 72.4841116,2.00230875 71.9310654,2.00230875 L70.9296867,2.00230875 L70.919673,2.0013076 L70.9016467,2.00243598 C70.8393962,2.00300118 70.7774484,2.00544838 70.7158511,2.00975834 L70.5321586,2.0282573 C69.9838523,2.10049203 69.4807912,1.71465927 69.4085403,1.16647572 C69.3362894,0.618292167 69.7222086,0.115343778 70.2705149,0.0431090505 C70.4728886,0.0164480388 70.6774813,0.00207995832 70.8880078,0.000178829013 L70.9126633,0.00100115438 L70.9296867,0 L71.9310654,0 Z M99.9696688,0 C100.522715,0 100.971047,0.448232082 100.971047,1.00115438 C100.971047,1.55407667 100.522715,2.00230875 99.9696688,2.00230875 L98.9682901,2.00230875 C98.4152439,2.00230875 97.9669114,1.55407667 97.9669114,1.00115438 C97.9669114,0.448232082 98.4152439,0 98.9682901,0 L99.9696688,0 Z M95.964154,0 C96.5172002,0 96.9655327,0.448232082 96.9655327,1.00115438 C96.9655327,1.55407667 96.5172002,2.00230875 95.964154,2.00230875 L94.9627753,2.00230875 C94.4097292,2.00230875 93.9613966,1.55407667 93.9613966,1.00115438 C93.9613966,0.448232082 94.4097292,0 94.9627753,0 L95.964154,0 Z M91.9586393,0 C92.5116854,0 92.960018,0.448232082 92.960018,1.00115438 C92.960018,1.55407667 92.5116854,2.00230875 91.9586393,2.00230875 L90.9572606,2.00230875 C90.4042144,2.00230875 89.9558819,1.55407667 89.9558819,1.00115438 C89.9558819,0.448232082 90.4042144,0 90.9572606,0 L91.9586393,0 Z M87.9531245,0 C88.5061707,0 88.9545032,0.448232082 88.9545032,1.00115438 C88.9545032,1.55407667 88.5061707,2.00230875 87.9531245,2.00230875 L86.9517458,2.00230875 C86.3986996,2.00230875 85.9503671,1.55407667 85.9503671,1.00115438 C85.9503671,0.448232082 86.3986996,0 86.9517458,0 L87.9531245,0 Z M83.9476097,0 C84.5006559,0 84.9489884,0.448232082 84.9489884,1.00115438 C84.9489884,1.55407667 84.5006559,2.00230875 83.9476097,2.00230875 L82.946231,2.00230875 C82.3931849,2.00230875 81.9448524,1.55407667 81.9448524,1.00115438 C81.9448524,0.448232082 82.3931849,0 82.946231,0 L83.9476097,0 Z M79.942095,0 C80.4951411,0 80.9434737,0.448232082 80.9434737,1.00115438 C80.9434737,1.55407667 80.4951411,2.00230875 79.942095,2.00230875 L78.9407163,2.00230875 C78.3876701,2.00230875 77.9393376,1.55407667 77.9393376,1.00115438 C77.9393376,0.448232082 78.3876701,0 78.9407163,0 L79.942095,0 Z M75.9365802,0 C76.4896264,0 76.9379589,0.448232082 76.9379589,1.00115438 C76.9379589,1.55407667 76.4896264,2.00230875 75.9365802,2.00230875 L74.9352015,2.00230875 C74.3821553,2.00230875 73.9338228,1.55407667 73.9338228,1.00115438 C73.9338228,0.448232082 74.3821553,0 74.9352015,0 L75.9365802,0 Z" id="Rectangle" fill="#82B92E" fill-rule="nonzero"></path>
                            <rect id="Rectangle" fill="url(#linearGradient-2)" x="81.9448524" y="14.0161613" width="40.0551476" height="40.046175" rx="4"></rect>
                            <path d="M108.147921,34.0392488 L96.1313764,34.0392488 M102.139649,28.0323225 L102.139649,40.046175" id="Path-8" stroke="#FFFFFF" stroke-width="4" stroke-linecap="round" stroke-linejoin="round"></path>
                        </g>
                        <g id="Server" transform="translate(5, 66.0033)">
                            <path d="M21.1764715,50.1646859 C22.0118602,50.1646859 22.6890766,50.8351186 22.6890766,51.6621392 L22.6890766,72.0005501 L41.70128,71.9910099 C42.4869699,71.9906011 43.133171,72.5833316 43.2075407,73.3420681 L43.2146783,73.4861723 L43.2635312,105.550492 L58.4901254,105.57779 C59.2763723,105.579194 59.9214264,106.174224 59.9933385,106.933715 L60,107.077941 C59.9984933,107.904961 59.3200567,108.574183 58.4846693,108.572692 L43.2685732,108.545399 L43.3155713,138.779241 L43.315581,138.791797 C43.315581,143.325062 39.603459,147 35.0243244,147 C30.4394584,147 26.7226902,143.320463 26.7226902,138.781523 L26.7226902,107.021226 C26.7226902,106.193151 27.4015704,105.522282 28.2380233,105.523775 L40.238321,105.544503 L40.190926,74.986472 L21.1772664,74.9965953 C20.3907261,74.9970045 19.7441426,74.4030378 19.6707955,73.6434092 L19.6638664,73.4991422 L19.6638664,51.6621392 C19.6638664,50.8351186 20.3410827,50.1646859 21.1764715,50.1646859 Z M29.7479004,108.52144 L29.7479004,138.781523 C29.7479004,141.666421 32.1102359,144.005093 35.0243244,144.005093 C37.9326815,144.005093 40.2903708,141.671021 40.2903708,138.791797 L40.243363,108.539409 L29.7479004,108.52144 Z" id="Path-4" fill="#B2D3E6" fill-rule="nonzero"></path>
                            <g>
                                <ellipse id="Oval" fill="#B2D3E6" cx="21.1764715" cy="29.9490662" rx="21.1764715" ry="20.9643463"></ellipse>
                                <path d="M11.0756306,19.9660441 L24.1064436,19.9660441 C25.2110131,19.9660441 26.1064436,20.8614746 26.1064436,21.9660441 L26.1064436,24.0426663 C26.1064436,25.1472358 25.2110131,26.0426663 24.1064436,26.0426663 L11.0756306,26.0426663 C9.97106112,26.0426663 9.07563062,25.1472358 9.07563062,24.0426663 L9.07563062,21.9660441 C9.07563062,20.8614746 9.97106112,19.9660441 11.0756306,19.9660441 Z M11.0756306,26.9107551 L24.1064436,26.9107551 C25.2110131,26.9107551 26.1064436,27.8061856 26.1064436,28.9107551 L26.1064436,30.9873773 C26.1064436,32.0919468 25.2110131,32.9873773 24.1064436,32.9873773 L11.0756306,32.9873773 C9.97106112,32.9873773 9.07563062,32.0919468 9.07563062,30.9873773 L9.07563062,28.9107551 C9.07563062,27.8061856 9.97106112,26.9107551 11.0756306,26.9107551 Z M11.0756306,33.8554662 L24.1064436,33.8554662 C25.2110131,33.8554662 26.1064436,34.7508967 26.1064436,35.8554662 L26.1064436,37.9320883 C26.1064436,39.0366578 25.2110131,39.9320883 24.1064436,39.9320883 L11.0756306,39.9320883 C9.97106112,39.9320883 9.07563062,39.0366578 9.07563062,37.9320883 L9.07563062,35.8554662 C9.07563062,34.7508967 9.97106112,33.8554662 11.0756306,33.8554662 Z M29.0028022,19.9660441 L31.2773123,19.9660441 C32.3818818,19.9660441 33.2773123,20.8614746 33.2773123,21.9660441 L33.2773123,24.0426663 C33.2773123,25.1472358 32.3818818,26.0426663 31.2773123,26.0426663 L29.0028022,26.0426663 C27.8982327,26.0426663 27.0028022,25.1472358 27.0028022,24.0426663 L27.0028022,21.9660441 C27.0028022,20.8614746 27.8982327,19.9660441 29.0028022,19.9660441 Z M29.0028022,26.9107551 L31.2773123,26.9107551 C32.3818818,26.9107551 33.2773123,27.8061856 33.2773123,28.9107551 L33.2773123,30.9873773 C33.2773123,32.0919468 32.3818818,32.9873773 31.2773123,32.9873773 L29.0028022,32.9873773 C27.8982327,32.9873773 27.0028022,32.0919468 27.0028022,30.9873773 L27.0028022,28.9107551 C27.0028022,27.8061856 27.8982327,26.9107551 29.0028022,26.9107551 Z M29.0028022,33.8554662 L31.2773123,33.8554662 C32.3818818,33.8554662 33.2773123,34.7508967 33.2773123,35.8554662 L33.2773123,37.9320883 C33.2773123,39.0366578 32.3818818,39.9320883 31.2773123,39.9320883 L29.0028022,39.9320883 C27.8982327,39.9320883 27.0028022,39.0366578 27.0028022,37.9320883 L27.0028022,35.8554662 C27.0028022,34.7508967 27.8982327,33.8554662 29.0028022,33.8554662 Z" id="Rectangle-2" fill="#FFFFFF"></path>
                                <g id="iconfinder_Checkmark_1891021" transform="translate(28.2353, 0)" fill-rule="nonzero">
                                    <ellipse id="Oval" fill="url(#linearGradient-3)" cx="10.084034" cy="9.98302207" rx="10.084034" ry="9.98302207"></ellipse>
                                    <path d="M8.60401991,14.9279802 L4.07962441,10.3502731 C4.01827668,10.2882025 4.01827668,10.1950966 4.07962441,10.133026 L5.38326379,8.8140257 C5.44461153,8.7519551 5.53663313,8.7519551 5.59798087,8.8140257 L8.71137844,11.9641088 L14.5700872,6.0363662 C14.6314349,5.97429559 14.7234565,5.97429559 14.7848043,6.0363662 L16.0884436,7.35536652 C16.1497914,7.41743712 16.1497914,7.51054303 16.0884436,7.57261363 L8.81873698,14.9279802 C8.75738925,14.9900508 8.66536764,14.9900508 8.60401991,14.9279802 Z" id="Path" fill="#FFFFFF"></path>
                                </g>
                                <ellipse id="Oval" fill="#B2D3E6" cx="21.1764715" cy="50.9134126" rx="5.04201701" ry="4.99151104"></ellipse>
                            </g>
                        </g>
                        <g id="Chat" transform="translate(103, 161)">
                            <path d="M2.98342541,0 L2.98342541,122.128544 C2.98342541,124.722225 5.06635746,126.824819 7.63578434,126.824819 C9.45572607,126.824819 11.1085634,125.753604 11.8660351,124.083164 L12.9303599,121.736027 C14.5574178,118.147905 18.7579563,116.570599 22.3125254,118.213015 C24.8302497,119.376349 26.4448097,121.914797 26.4448097,124.709886 L26.4448097,140.540753 C26.4448097,145.253305 30.229364,149.073584 34.8978484,149.073584 L39.281768,149.073584 L39.281768,152.085171 L34.8978484,152.085171 C28.5816637,152.085171 23.4613843,146.916559 23.4613843,140.540753 L23.4613843,124.709886 C23.4613843,123.092891 22.5273403,121.624366 21.0708041,120.951362 C19.0144397,120.001202 16.5843735,120.913695 15.6430993,122.98947 L14.5787746,125.336607 C13.3355578,128.078251 10.6228029,129.836406 7.63578434,129.836406 C3.4186571,129.836406 0,126.385479 0,122.128544 L0,0 L2.98342541,0 Z" id="Path-5" fill="#B2D3E6" fill-rule="nonzero"></path>
                            <g id="Group-4" transform="translate(29.337, 124.8069)">
                                <ellipse id="Oval" fill="#B2D3E6" cx="4.47513812" cy="25.5984942" rx="4.47513812" ry="4.51738133"></ellipse>
                                <path d="M46.718232,10.0386252 C48.927371,10.0386252 50.718232,11.8294862 50.718232,14.0386252 L50.718232,38.0856848 C50.718232,40.2948238 48.927371,42.0856848 46.718232,42.0856848 L19.4373757,42.0856252 L10.5944622,50.1931259 L10.5943757,42.0856252 L8.97237569,42.0856848 C6.76323669,42.0856848 4.97237569,40.2948238 4.97237569,38.0856848 L4.97237569,14.0386252 C4.97237569,11.8294862 6.76323669,10.0386252 8.97237569,10.0386252 L46.718232,10.0386252 Z" id="Path-10" fill="#B2D3E6"></path>
                                <path d="M11.4447514,15.0579378 L30.3232044,15.0579378 C31.1516315,15.0579378 31.8232044,15.7295106 31.8232044,16.5579378 L31.8232044,16.5695253 C31.8232044,17.3979524 31.1516315,18.0695253 30.3232044,18.0695253 L11.4447514,18.0695253 C10.6163243,18.0695253 9.94475138,17.3979524 9.94475138,16.5695253 L9.94475138,16.5579378 C9.94475138,15.7295106 10.6163243,15.0579378 11.4447514,15.0579378 Z M11.4447514,20.0772504 L30.3232044,20.0772504 C31.1516315,20.0772504 31.8232044,20.7488232 31.8232044,21.5772504 L31.8232044,21.5888379 C31.8232044,22.417265 31.1516315,23.0888379 30.3232044,23.0888379 L11.4447514,23.0888379 C10.6163243,23.0888379 9.94475138,22.417265 9.94475138,21.5888379 L9.94475138,21.5772504 C9.94475138,20.7488232 10.6163243,20.0772504 11.4447514,20.0772504 Z M11.4447514,25.0965629 L30.3232044,25.0965629 C31.1516315,25.0965629 31.8232044,25.7681358 31.8232044,26.5965629 L31.8232044,26.6081505 C31.8232044,27.4365776 31.1516315,28.1081505 30.3232044,28.1081505 L11.4447514,28.1081505 C10.6163243,28.1081505 9.94475138,27.4365776 9.94475138,26.6081505 L9.94475138,26.5965629 C9.94475138,25.7681358 10.6163243,25.0965629 11.4447514,25.0965629 Z M11.4447514,30.1158755 L30.3232044,30.1158755 C31.1516315,30.1158755 31.8232044,30.7874484 31.8232044,31.6158755 L31.8232044,31.6274631 C31.8232044,32.4558902 31.1516315,33.1274631 30.3232044,33.1274631 L11.4447514,33.1274631 C10.6163243,33.1274631 9.94475138,32.4558902 9.94475138,31.6274631 L9.94475138,31.6158755 C9.94475138,30.7874484 10.6163243,30.1158755 11.4447514,30.1158755 Z" id="Rectangle-3" fill="#FFFFFF"></path>
                                <ellipse id="Oval" fill="#FF6663" cx="50.718232" cy="10.0386252" rx="9.94475138" ry="10.0386252"></ellipse>
                                <path d="M48.1803315,12.8173166 C48.6543646,12.486042 49.139337,12.086672 49.6352486,11.6192067 C50.1311602,11.1517414 50.5577901,10.643787 50.9151381,10.0953434 C51.2724862,9.54689986 51.4511602,9.02606252 51.4511602,8.5328314 C51.4511602,8.25308838 51.3727624,8.03039821 51.2159669,7.8647609 C51.0591713,7.69912358 50.8458564,7.61630492 50.5760221,7.61630492 C50.2551381,7.61630492 49.9470166,7.70464482 49.6516575,7.88132463 C49.3562983,8.05800443 49.1101657,8.30461999 48.9132597,8.6211713 L47.9724862,7.6383899 C48.2350276,7.18932873 48.5960221,6.83964996 49.0554696,6.58935357 C49.5149171,6.33905718 50.0254144,6.21390899 50.5869613,6.21390899 C51.4110497,6.21390899 52.0564641,6.41267376 52.5232044,6.81020332 C52.9899448,7.20773288 53.2233149,7.76353809 53.2233149,8.47761896 C53.2233149,9.08127496 52.9881215,9.73830298 52.5177348,10.448703 C52.0473481,11.1591031 51.3855249,11.926556 50.5322652,12.7510617 L53.4639779,12.7510617 L53.4639779,14.0540753 L48.1803315,14.0540753 L48.1803315,12.8173166 Z" id="Path" fill="#FFFFFF" fill-rule="nonzero"></path>
                            </g>
                        </g>
                        <g id="API" transform="translate(0, 199)">
                            <path d="M94.8425466,0 C95.6696006,0 96.3400604,0.671603739 96.3400604,1.50006894 L96.3400604,60.5027805 C96.3400604,61.3312457 95.6696006,62.0028494 94.8425466,62.0028494 L61.8972409,62.0028494 C61.0701868,62.0028494 60.399727,61.3312457 60.399727,60.5027805 C60.399727,59.6743153 61.0701868,59.0027115 61.8972409,59.0027115 L93.3450327,59.0027115 L93.3450327,1.50006894 C93.3450327,0.720336986 93.9389348,0.0795549778 94.698326,0.00686689363 L94.8425466,0 Z" id="Path-6" fill="#82B92E" fill-rule="nonzero"></path>
                            <path d="M60.8988983,65.2266304 C63.3800606,65.2266304 65.39144,63.2118191 65.39144,60.7264235 C65.39144,58.241028 63.3800606,56.2262167 60.8988983,56.2262167 C60.8988983,57.0895377 60.8988983,64.121355 60.8988983,65.2266304 Z" id="Oval" fill="#82B92E"></path>
                            <path d="M41.600708,79.2272738 C42.1520774,79.2272738 42.5990506,79.6750096 42.5990506,80.2273197 C42.5990506,80.7796299 42.1520774,81.2273657 41.600708,81.2273657 L40.6023654,81.2273657 C40.050996,81.2273657 39.6040228,80.7796299 39.6040228,80.2273197 C39.6040228,79.6750096 40.050996,79.2272738 40.6023654,79.2272738 L41.600708,79.2272738 Z M36.658211,78.2678191 C37.1812491,78.0930525 37.7466902,78.3761057 37.9211592,78.9000361 L37.9543172,78.9996095 C37.9788037,79.0731263 38.0272151,79.1345099 38.0920107,79.1755741 C38.5579579,79.4708675 38.6967079,80.0886194 38.4019174,80.5553616 C38.1071269,81.0221038 37.4904272,81.1610905 37.02448,80.865797 C36.5732937,80.5798583 36.2313671,80.1463098 36.0602499,79.6325586 L36.0270709,79.5329221 C35.852602,79.0089917 36.135173,78.4425858 36.658211,78.2678191 Z M44.0511395,78.5743082 C44.2275581,78.0510332 44.7940493,77.7700947 45.3164329,77.9468143 C45.8388166,78.123534 46.1192766,78.6909917 45.942858,79.2142666 L45.7578659,79.7584821 C45.6360253,80.064678 45.4516755,80.3395884 45.2178519,80.567152 C44.8223938,80.9520225 44.190344,80.9428927 43.806129,80.5467599 C43.421914,80.1506272 43.4310283,79.5174989 43.8264863,79.1326284 C43.8597649,79.1002408 43.885761,79.0614743 43.8846204,79.0682199 L44.0511395,78.5743082 Z M27.8165622,75.3738473 C28.2065611,74.9834271 28.8386766,74.9836251 29.2284318,75.3742894 L29.4011096,75.54737 C29.4469941,75.5933378 29.5039087,75.6241085 29.5664559,75.6375346 C30.1055858,75.7532617 30.4489814,76.2848738 30.3334515,76.8249236 C30.2179215,77.3649733 29.6872149,77.7089548 29.148085,77.5932278 C28.7114117,77.4994935 28.3088743,77.2818625 27.9889816,76.9613898 L27.8161208,76.7881258 C27.4263657,76.3974615 27.4265633,75.7642674 27.8165622,75.3738473 Z M52.8711837,75.138222 C53.2619609,74.7485835 53.8940748,74.7500471 54.2830496,75.141491 C54.6720244,75.5329349 54.6705633,76.1661273 54.2797861,76.5557658 L53.7903923,77.0421382 C53.6051483,77.2100557 53.3952371,77.3461471 53.1686007,77.4463398 C52.6641721,77.6693406 52.0747821,77.4405006 51.8521612,76.9352114 C51.6295403,76.4299223 51.8579905,75.8395266 52.362419,75.6165259 L52.4129636,75.5912013 L52.8711837,75.138222 Z M35.3945949,74.4731793 C35.9176329,74.2984126 36.4830741,74.5814658 36.6575431,75.1053962 L36.9734471,76.0540562 C37.1479161,76.5779866 36.865345,77.1443925 36.342307,77.3191592 C35.819269,77.4939258 35.2538278,77.2108727 35.0793588,76.6869422 L34.7634548,75.7382823 C34.5889858,75.2143518 34.8715569,74.6479459 35.3945949,74.4731793 Z M46.011912,74.250979 C46.5302023,74.0625534 47.1028486,74.3306785 47.2909532,74.8498531 C47.4253137,75.2206921 47.3271369,75.619311 47.0711864,75.8854889 L47.0389081,75.9151216 L46.8903012,76.3636585 C46.7285738,76.8502586 46.2296135,77.129358 45.7403047,77.0270602 L45.6277165,76.9966035 C45.1045781,76.8221384 44.8216817,76.2558955 44.9958496,75.7318646 L45.2637426,74.9258364 C45.3611565,74.6327406 45.5883249,74.4011919 45.879183,74.2985291 C45.9456294,74.2749589 45.9456294,74.2749589 46.011912,74.250979 Z M48.1819284,74.7749409 C48.428629,74.2810002 49.0283555,74.0809138 49.5214548,74.3280354 L50.4142902,74.7754887 C50.9073896,75.0226103 51.1071352,75.6233599 50.8604345,76.1173006 C50.6137338,76.6112413 50.0140074,76.8113277 49.520908,76.5642061 L48.6280727,76.1167529 C48.1349733,75.8696313 47.9352277,75.2688816 48.1819284,74.7749409 Z M32.638262,74.1798777 C33.1313611,73.9327556 33.7310877,74.1328415 33.9777888,74.6267819 C34.22449,75.1207224 34.0247449,75.7214722 33.5316458,75.9685943 L32.6388108,76.4160483 C32.1457117,76.6631704 31.5459851,76.4630846 31.299284,75.9691441 C31.0525828,75.4752036 31.2523279,74.8744538 31.745427,74.6273317 L32.638262,74.1798777 Z M24.9937058,72.5444061 C25.3837047,72.1539859 26.0158202,72.1541839 26.4055754,72.5448482 L27.1112895,73.2522085 C27.5010446,73.6428728 27.500847,74.2760668 27.1108481,74.666487 C26.7208492,75.0569071 26.0887337,75.0567092 25.6989785,74.6660449 L24.9932644,73.9586846 C24.6035093,73.5680202 24.6037069,72.9348262 24.9937058,72.5444061 Z M55.6921865,72.3106349 C56.0819417,71.9199706 56.7140572,71.9197728 57.1040561,72.310193 C57.4940549,72.7006132 57.4942524,73.3338072 57.1044972,73.7244715 L56.398783,74.4318317 C56.0090278,74.8224959 55.3769122,74.8226937 54.9869134,74.4322735 C54.5969146,74.0418533 54.5967171,73.4086593 54.9864723,73.017995 L55.6921865,72.3106349 Z M24.3932651,69.2858456 C24.6398579,68.7918508 25.2395405,68.591633 25.7326939,68.8386464 C26.2258472,69.0856599 26.4257241,69.6863658 26.1791314,70.1803605 L25.7326357,71.0748172 C25.4860429,71.5688119 24.8863603,71.7690298 24.3932069,71.5220164 C23.9000536,71.2750029 23.7001767,70.674297 23.9467694,70.1803022 L24.3932651,69.2858456 Z M55.9835614,68.5424841 C56.4767148,68.2954706 57.0763975,68.4956885 57.3229902,68.9896833 L57.7694858,69.88414 C58.0160786,70.3781347 57.8162017,70.9788406 57.3230483,71.225854 C56.829895,71.4728675 56.2302123,71.2726496 55.9836196,70.7786548 L55.5371239,69.8841982 C55.2905312,69.3902034 55.4904081,68.7894976 55.9835614,68.5424841 Z M25.7992372,65.2039343 C26.3111041,64.9986445 26.892191,65.2478824 27.0971311,65.7606227 C27.2130082,66.0505358 27.3379292,66.336728 27.4720415,66.6195439 C27.7086155,67.1184307 27.4966577,67.7149667 26.9986206,67.9519444 C26.5005835,68.188922 25.9050635,67.9766026 25.6684896,67.4777157 C25.5165044,67.1572095 25.3748794,66.8327488 25.243497,66.5040427 C25.0385569,65.9913024 25.2873702,65.4092241 25.7992372,65.2039343 Z M54.8860832,65.4724074 C55.0794815,64.9551881 55.6548368,64.6929468 56.1711751,64.8866751 C56.6875135,65.0804034 56.9493081,65.6567404 56.7559097,66.1739597 C56.6312219,66.5074214 56.4970332,66.8350545 56.3531572,67.1569672 C56.127856,67.6610629 55.537259,67.8867589 55.0340219,67.6610733 C54.5307848,67.4353877 54.3054733,66.843783 54.5307745,66.3396873 C54.6575428,66.0560519 54.7759239,65.7670144 54.8860832,65.4724074 Z M21.8289386,64.1409438 C22.0032867,63.616973 22.5686625,63.3337889 23.0917409,63.5084344 L24.038858,63.8246582 C24.5619363,63.9993037 24.8446381,64.5656442 24.67029,65.089615 C24.4959419,65.6135858 23.9305661,65.8967699 23.4074878,65.7221244 L22.4603707,65.4059006 C21.9372923,65.2312551 21.6545906,64.6649146 21.8289386,64.1409438 Z M59.0924422,63.4015626 C59.6155205,63.226917 60.1808964,63.510101 60.3552445,64.0340718 C60.5295927,64.5580426 60.246891,65.1243831 59.7238127,65.2990287 L58.7766956,65.6152525 C58.2536173,65.7898982 57.6882414,65.5067142 57.5138933,64.9827434 C57.3395451,64.4587726 57.6222468,63.8924321 58.1453251,63.7177865 L59.0924422,63.4015626 Z M20.9651945,60.4015669 C21.5165639,60.4015669 21.9635371,60.8493027 21.9635371,61.4016128 L21.9635371,62.4016588 C21.9635371,62.9539689 21.5165639,63.4017047 20.9651945,63.4017047 C20.4138251,63.4017047 19.9668519,62.9539689 19.9668519,62.4016588 L19.9668519,61.4016128 C19.9668519,60.8493027 20.4138251,60.4015669 20.9651945,60.4015669 Z M60.8988983,60.0635883 C61.4502677,60.0635883 61.8972409,60.5113242 61.8972409,61.0636343 L61.8972409,62.0636803 C61.8972409,62.6159904 61.4502677,63.0637262 60.8988983,63.0637262 C60.3475289,63.0637262 59.9005557,62.6159904 59.9005557,62.0636803 L59.9005557,61.0636343 C59.9005557,60.5113242 60.3475289,60.0635883 60.8988983,60.0635883 Z M21.963537,58.401907 C21.9632988,58.954217 21.5161326,59.4017594 20.9647632,59.4015209 C20.4133939,59.4012822 19.9666138,58.953353 19.9668519,58.4010429 L19.9675093,57.5035965 C19.9696907,57.4114178 19.9772955,57.3196859 19.9902397,57.2288197 C20.0681291,56.6820483 20.5737619,56.3020521 21.119602,56.3800745 C21.6654421,56.4580969 22.0447911,56.9645923 21.9669016,57.5113637 C21.9650462,57.524388 21.9639507,57.5376032 21.963914,57.5277286 L21.963537,58.401907 Z M60.4425124,56.1410608 C60.9558048,55.9393741 61.5351314,56.1926905 61.7364746,56.7068587 C61.8422992,56.977102 61.8972409,57.2657312 61.8972409,57.5591769 L61.8972409,58.0634964 C61.8972409,58.6158066 61.4502677,59.0635424 60.8988983,59.0635424 C60.3475289,59.0635424 59.9005557,58.6158066 59.9005557,58.0634964 L59.9005557,57.5591769 C59.9005557,57.5167127 59.8927548,57.4757318 59.8776782,57.4372308 C59.6763351,56.9230626 59.9292199,56.3427475 60.4425124,56.1410608 Z M24.0196672,54.5226233 C24.5426783,54.3477759 25.108163,54.6307417 25.2827126,55.1546452 C25.4572623,55.6785486 25.1747784,56.2449982 24.6517673,56.4198456 L23.7047719,56.736435 C23.1817608,56.9112824 22.6162761,56.6283166 22.4417264,56.1044131 C22.2671768,55.5805097 22.5496606,55.0140601 23.0726718,54.8392127 L24.0196672,54.5226233 Z M56.2606131,55.0498054 C56.4348609,54.5258011 57.0001824,54.2425084 57.5232942,54.4170534 L58.4704719,54.7330951 C58.9935837,54.9076401 59.2763939,55.4739263 59.1021461,55.9979306 C58.9278984,56.5219349 58.3625768,56.8052276 57.8394651,56.6306826 L56.8922874,56.3146409 C56.3691756,56.1400958 56.0863654,55.5738097 56.2606131,55.0498054 Z M25.8849987,51.9166605 C26.378152,51.669647 26.9778347,51.8698649 27.2244275,52.3638597 L27.4827395,52.8813316 C27.620588,53.1574809 27.6233711,53.4819287 27.4902802,53.7604101 C27.4333609,53.8795091 27.3780867,53.9991314 27.3244583,54.1192823 C27.0994087,54.6234907 26.5089244,54.8494824 26.0055748,54.6240488 C25.5022251,54.3986152 25.2766184,53.8071235 25.501668,53.302915 L25.4836931,53.3500846 L25.4385612,53.2583746 C25.2095822,52.7996652 25.3655694,52.2489446 25.7838677,51.9748378 L25.8849987,51.9166605 Z M54.7867401,52.0692299 C55.0332673,51.5752023 55.6329234,51.3749045 56.1261095,51.6218523 C56.6192957,51.8688001 56.8192523,52.4694793 56.5727251,52.9635069 L56.2955406,53.5180923 L56.2945567,53.5345906 C56.2582171,53.8261652 56.0943845,54.0961788 55.8334558,54.259352 L55.7311156,54.3153673 C55.2328422,54.5518459 54.6375345,54.33893 54.4014587,53.8398064 C54.3853515,53.8058259 54.3853515,53.8058259 54.3691271,53.7718942 C54.2356133,53.4932659 54.2382107,53.1684544 54.3761634,52.8920044 L54.7867401,52.0692299 Z M24.3747787,48.1850429 C24.915912,48.0791127 25.4403143,48.4326629 25.5460641,48.9747194 C25.5508986,48.9995006 25.5585827,49.0237409 25.5524249,49.0119032 L25.8855976,49.6818085 C26.1314633,50.1761667 25.9307028,50.7765769 25.4371866,51.022862 C24.9436704,51.2691472 24.3442829,51.0680442 24.0984172,50.5736859 L23.7485301,49.8684603 C23.674856,49.7045735 23.6206151,49.5334655 23.5864472,49.3583267 C23.4806975,48.8162701 23.8336455,48.2909731 24.3747787,48.1850429 Z M57.3042531,47.8872524 C57.8555326,47.8772819 58.3105018,48.3168621 58.3204553,48.8690823 C58.3271996,49.2432545 58.2441282,49.6150258 58.075014,49.9539983 L57.9121525,50.2802558 C57.6655598,50.7742506 57.0658772,50.9744685 56.5727238,50.7274551 C56.0795704,50.4804416 55.8796935,49.8797358 56.1262862,49.385741 L56.289048,49.0596832 C56.3133313,49.0110098 56.325057,48.9585336 56.3240955,48.9051884 C56.314142,48.3529683 56.7529735,47.8972228 57.3042531,47.8872524 Z M26.1648786,45.3185074 C26.5547683,44.9279778 27.1868839,44.9279985 27.5767482,45.3185534 C27.9666126,45.7091084 27.966592,46.3423024 27.5767023,46.732832 L26.8707445,47.4399482 C26.4808547,47.8304777 25.8487392,47.8304571 25.4588748,47.4399022 C25.0690105,47.0493472 25.0690311,46.4161531 25.4589208,46.0256237 L26.1648786,45.3185074 Z M54.054712,45.0855391 C54.4445762,44.694984 55.0766918,44.6949633 55.4665816,45.0854928 L56.1725395,45.7926092 C56.5624293,46.1831384 56.56245,46.8163324 56.1725857,47.2068875 C55.7827215,47.5974425 55.1506059,47.5974632 54.7607161,47.2069338 L54.0547582,46.4998176 C53.6648684,46.1092882 53.6648477,45.4760941 54.054712,45.0855391 Z M48.3408572,44.4780514 C48.8340907,44.2311985 49.4337084,44.4316115 49.6801409,44.9256865 C49.9265734,45.4197615 49.7265017,46.0204023 49.2332683,46.2672552 L48.3401901,46.7142221 C47.8469567,46.961075 47.247339,46.760662 47.0009065,46.266587 C46.754474,45.772512 46.9545456,45.1718712 47.4477791,44.9250183 L48.3408572,44.4780514 Z M31.8896573,44.7783996 C32.1360902,44.2843248 32.7357081,44.0839123 33.2289414,44.3307657 L34.1220191,44.7777333 C34.6152523,45.0245866 34.8153235,45.6252276 34.5688906,46.1193024 C34.3224577,46.6133771 33.7228398,46.8137897 33.2296065,46.5669363 L32.3365288,46.1199687 C31.8432956,45.8731153 31.6432244,45.2724744 31.8896573,44.7783996 Z M35.2895833,43.1360361 C35.4639518,42.6120721 36.0293387,42.3289102 36.5524102,42.5035762 C37.0754817,42.6782422 37.3581613,43.2445938 37.1837928,43.7685577 L36.8680707,44.7172785 C36.6937021,45.2412425 36.1283153,45.5244044 35.6052437,45.3497384 C35.0821722,45.1750723 34.7994926,44.6087208 34.9738611,44.0847568 L35.2895833,43.1360361 Z M45.2054809,42.1844471 C45.7285524,42.009781 46.2939393,42.2929429 46.4683079,42.8169069 L46.78403,43.7656276 C46.9583986,44.2895916 46.675719,44.8559431 46.1526475,45.0306092 C45.6295759,45.2052752 45.0641891,44.9221133 44.8898205,44.3981493 L44.5740983,43.4494286 C44.3997298,42.9254647 44.6824094,42.3591131 45.2054809,42.1844471 Z M51.3176101,42.9932276 C51.7667549,42.8021401 52.2614855,42.758329 52.7332545,42.8633439 C53.2714945,42.9831552 53.6108635,43.5173556 53.4912563,44.056514 C53.3716491,44.5956723 52.8383586,44.9356203 52.3001186,44.8158091 C52.2323981,44.8007346 52.1620883,44.8069609 52.1456154,44.8124869 L51.9040259,44.9305471 C51.408481,45.1727104 50.8107847,44.9666187 50.5690338,44.4702284 C50.3272829,43.973838 50.5330236,43.3751219 51.0285685,43.1329586 L51.3176101,42.9932276 Z M28.7019854,43.003602 C29.2538219,42.7616531 29.8803961,42.7422579 30.448581,42.9541669 C30.9652977,43.1468805 31.2282202,43.722702 31.0358348,44.2403003 C30.8434495,44.7578985 30.2686088,45.0212696 29.7518921,44.8285561 C29.671255,44.7984818 29.5815336,44.8012591 29.502596,44.8358688 C28.9974913,45.0573285 28.4088003,44.8266902 28.1877178,44.3207237 C27.9666353,43.8147572 28.1968808,43.2250618 28.7019854,43.003602 Z M40.2627517,39.2254355 C40.8141211,39.2254355 41.2610943,39.6731713 41.2610943,40.2254814 C41.2610943,40.7777915 40.8141211,41.2255274 40.2627517,41.2255274 L39.2644092,41.2255274 C39.106875,41.2255274 38.9578631,41.1889775 38.8253634,41.1238815 L38.7666413,41.0915212 L38.7095386,41.1238815 C38.6101638,41.1727035 38.5015008,41.2054683 38.3869206,41.2187993 L38.2704928,41.2255274 C38.1830273,41.2255274 38.1004581,41.2593694 38.0383276,41.3194736 C37.6417154,41.7031506 37.0096958,41.692116 36.6266723,41.2948271 C36.2436488,40.8975382 36.2546647,40.2644403 36.6512768,39.8807633 C37.0834221,39.4627121 37.6623401,39.2254355 38.2704928,39.2254355 C38.4280269,39.2254355 38.5770389,39.2619853 38.7095386,39.3270813 L38.7666413,39.3594416 L38.8253634,39.3270813 C38.9247381,39.2782593 39.0334011,39.2454945 39.1479813,39.2321635 L39.2644092,39.2254355 L40.2627517,39.2254355 Z M43.2636585,39.2254351 L43.7351705,39.2297285 C44.1292045,39.2536622 44.5080953,39.3771487 44.838579,39.5863492 C45.3046807,39.8813979 45.4437541,40.4990768 45.149208,40.9659738 C44.8546619,41.4328708 44.238035,41.5721814 43.7719333,41.2771328 C43.7245285,41.2471249 43.6706877,41.2295773 43.6688663,41.2279696 L43.2519006,41.22551 C42.7005408,41.2222576 42.2562074,40.771893 42.2594366,40.2195924 C42.2627011,39.6672919 42.7122986,39.2222004 43.2636585,39.2254351 Z" id="path940" fill="#82B92E" fill-rule="nonzero"></path>
                            <path d="M17.3052983,53.2260789 C16.7323057,53.2260789 16.2234365,53.592849 16.0420995,54.1372827 L14.6905293,58.1986473 C14.1448429,58.3910972 13.6110696,58.6117343 13.0894383,58.8625241 L9.26605424,56.9489966 C8.75367186,56.6925283 8.13493619,56.7931986 7.72994258,57.1989268 L3.96633916,60.9687062 C3.56127569,61.3743644 3.46077036,61.9941154 3.71681849,62.5073384 L5.62461187,66.3291865 C5.37365476,66.854293 5.15157817,67.3913268 4.95922342,67.9407146 L0.909710957,69.2945041 C0.366169637,69.4761387 0,69.9858415 0,70.5597744 L0,75.8916171 C0,76.4655499 0.366169237,76.9752541 0.909710957,77.1568887 L4.97221939,78.5132801 C5.16369529,79.0565736 5.38355867,79.5871212 5.63240942,80.1065854 L3.71681849,83.9440538 C3.46077022,84.457277 3.56127555,85.0770278 3.96633916,85.4826863 L7.72994258,89.255069 C8.13493619,89.6607969 8.75367186,89.7614675 9.26605424,89.5049992 L13.0894383,87.5888682 C13.6105346,87.8382465 14.1429305,88.0584476 14.6879302,88.250142 L16.0420995,92.3167131 C16.2234365,92.8611475 16.7323057,93.2279172 17.3052983,93.2279172 L22.6284059,93.2279172 C23.2013985,93.2279172 23.7102676,92.8611475 23.8916046,92.3167131 L25.2457739,88.2423308 C25.7867294,88.0513922 26.3165662,87.831731 26.8338685,87.5836616 L30.6676504,89.5049992 C31.1800328,89.7614675 31.7987669,89.6607969 32.2037609,89.255069 L35.9673657,85.4826863 C36.3724289,85.0770278 36.4729345,84.457277 36.2168863,83.9440538 L34.3064935,80.1169984 C34.5569178,79.5937061 34.7770775,79.0581011 34.969283,78.5106769 L39.0239925,77.1568887 C39.567535,76.9752541 39.9337038,76.4655499 39.9337038,75.8916171 L39.9337038,70.5597744 C39.9337038,69.9858415 39.5675337,69.4761387 39.0239925,69.2945041 L34.9666826,67.9407146 C34.7745837,67.3950045 34.553857,66.861231 34.3038945,66.3396009 L36.2168863,62.5073384 C36.4729345,61.9941154 36.3724289,61.3743644 35.9673657,60.9687062 L32.2037609,57.1989268 C31.7987669,56.7931991 31.1800328,56.6925289 30.6676504,56.9489966 L26.8546619,58.8573172 C26.3286736,58.6054191 25.7908721,58.3837404 25.2405759,58.1908369 L23.8916046,54.1372827 C23.7102676,53.592849 23.2013985,53.2260789 22.6284059,53.2260789 L17.3052983,53.2260789 Z" id="path940" fill="url(#linearGradient-4)" fill-rule="nonzero"></path>
                            <path d="M21.673125,64.6551755 C26.7758729,64.6551755 30.9486205,68.8350096 30.9486205,73.9464969 C30.9486205,79.0579351 26.7758729,83.2274576 21.673125,83.2274576 C16.5703758,83.2274576 12.4079723,79.0579351 12.4079723,73.9464969 C12.4079723,68.8350096 16.5703758,64.6551755 21.673125,64.6551755 Z" id="path940-path" fill="#FFFFFF" fill-rule="nonzero"></path>
                        </g>
                        <g id="Center" transform="translate(54.9088, 119.0057)">
                            <ellipse id="Oval" fill="#FFFFFF" cx="45.4245881" cy="45.5020911" rx="45.4245881" ry="45.5020911"></ellipse>
                            <path d="M69.6265268,64.5864384 C66.9223175,66.9026179 63.3571269,68.88828 59.5168562,69.9207475 C55.2183315,71.0765997 50.3887938,71.3962491 45.7858301,70.7838009 C37.1166599,69.6413739 29.3250653,64.1632227 24.0819502,59.024539 C24.6793398,57.6072136 24.8567696,57.0893816 25.4701152,55.6957102 C26.5002293,56.7678143 28.3294159,58.198565 29.1431678,58.7605086 C34.7724162,62.6826067 42.1268186,66.0606614 51.8682266,65.4961606 C56.8005204,65.2257372 61.3766782,63.5111379 64.6227504,60.9015202 C67.7705342,58.3788472 70.4032609,54.7553017 70.3439049,49.7125129 C70.2826342,44.3769252 67.6684163,40.0239398 64.8167744,37.1087373 C63.8396339,36.1056775 62.7827138,35.0329342 61.7155819,34.2427609 C60.0280838,32.993571 58.1516677,32.0250334 56.2650398,31.1101968 C54.3458618,30.1640346 52.3730719,29.2178724 50.0856313,28.7224159 C53.8588871,26.3212096 63.9889813,23.3765994 65.1888664,24.0619277 C65.9394329,24.4889793 66.7487171,25.173029 67.3722745,25.6825501 C69.4427146,27.3408912 71.2106305,29.6781675 72.7251663,31.8453904 C74.8938949,34.9734794 76.7230815,38.5925498 77.3919537,42.6648831 C79.018181,52.7216923 74.9041067,60.0844964 69.6265268,64.5864384 M9.14465658,47.866218 L9.14465658,47.853432 C13.7705968,40.5564757 19.1113621,33.9537978 25.4516063,28.3458689 C29.8222518,24.4685217 34.9728226,21.0124725 40.6754682,18.5019462 C41.6321851,18.0742553 42.5601814,17.5353264 43.594125,17.2022517 C44.6159421,16.864702 45.683074,16.5290701 46.7744589,16.1665877 C50.944698,14.7895381 56.6818084,14.0958989 61.2828574,14.6035022 C64.7229536,15.001146 68.1490086,15.9920591 70.4338963,17.7712277 C71.2106305,18.3670541 72.1405414,19.0191389 72.6370897,19.7325963 C72.9255727,20.1462226 73.3302148,21.0987778 73.1010878,21.6632787 C72.8170724,22.3498856 71.7703641,22.4163726 70.9036386,22.4003902 C67.9441346,22.3390175 65.2380107,22.0283183 62.3767952,22.3741789 C58.3208005,22.8715534 54.9623985,24.0114231 52.0667183,25.2280087 C45.9485805,27.7794501 40.6939771,31.9841183 36.5505439,36.2284229 C32.3726459,40.495103 28.5132281,45.8716058 25.4420327,51.3913115 C22.0223601,57.5381693 19.442607,64.0181018 17.3128109,70.8234374 C12.4232789,64.4291709 9.39420716,56.5261594 9.14465658,47.866218 M45.4239498,0 C20.3335856,0 0,20.36742 0,45.4988946 C0,70.6329264 20.3335856,91.0041822 45.4239498,91.0041822 C70.5155906,91.0041822 90.8491762,70.6329264 90.8491762,45.4988946 C90.8491762,20.36742 70.5155906,0 45.4239498,0" id="Fill-3" fill="#82B92E"></path>
                        </g>
                    </g>
                </g>
            </g>
        </g>
    </g>
</svg>