<?xml version="1.0" encoding="UTF-8"?>
<svg width="20px" height="20px" viewBox="0 0 20 20" version="1.1" xmlns="http://www.w3.org/2000/svg" xmlns:xlink="http://www.w3.org/1999/xlink">
    <title>linking</title>
    <g id="linking" stroke="none" stroke-width="1" fill="none" fill-rule="evenodd">
        <g id="Group" transform="translate(5, 1)" fill="#3F3F3F" fill-rule="nonzero">
            <path d="M7,-1 C7.55228475,-1 8,-0.55228475 8,0 L8,4 C8,4.55228475 7.55228475,5 7,5 C6.44771525,5 6,4.55228475 6,4 L6,1 L1,1 L1,10 L6,10 C6,9.48716416 6.38604019,9.06449284 6.88337887,9.00672773 L7,9 C7.55228475,9 8,9.44771525 8,10 L8,11 C8,11.5522847 7.55228475,12 7,12 L0,12 C-0.55228475,12 -1,11.5522847 -1,11 L-1,0 C-1,-0.55228475 -0.55228475,-1 0,-1 L7,-1 Z" id="Path-100"></path>
            <path d="M10,6 C10.5522847,6 11,6.44771525 11,7 L11,11 C11,11.5522847 10.5522847,12 10,12 C9.44771525,12 9,11.5522847 9,11 L9,8 L4,8 L4,17 L9,17 C9,16.4871642 9.38604019,16.0644928 9.88337887,16.0067277 L10,16 C10.5522847,16 11,16.4477153 11,17 L11,18 C11,18.5522847 10.5522847,19 10,19 L3,19 C2.44771525,19 2,18.5522847 2,18 L2,7 C2,6.44771525 2.44771525,6 3,6 L10,6 Z" id="Path-100" transform="translate(6.5, 12.5) scale(-1, -1) translate(-6.5, -12.5)"></path>
        </g>
    </g>
</svg>