<?xml version="1.0" encoding="UTF-8"?>
<svg width="20px" height="20px" viewBox="0 0 20 20" version="1.1" xmlns="http://www.w3.org/2000/svg" xmlns:xlink="http://www.w3.org/1999/xlink">
    <title>B5675DD6-0655-4153-8A22-9903956BECE0</title>
    <g id="Get-stuff" stroke="none" stroke-width="1" fill="none" fill-rule="evenodd">
        <g id="Mockup---Satellite-server-downlods-marketing-screen" transform="translate(-803, -492)" fill="#FFFFFF" fill-rule="nonzero">
            <g id="Group-10" transform="translate(430, 158)">
                <g id="Perks" transform="translate(21, 87)">
                    <g id="Group-11" transform="translate(0, 236)">
                        <g id="Principal-por-defecto" transform="translate(185, 0)">
                            <g id="linux" transform="translate(167, 11)">
                                <path d="M13.1922034,19.3697917 C13.2750156,19.4923301 13.2850631,19.6527171 13.218239,19.7853947 C13.1514149,19.9180723 13.018918,20.0008057 12.8749061,19.9997872 L7.1250939,19.9997872 C6.98108198,20.0008057 6.84858512,19.9180723 6.78176101,19.7853947 C6.7149369,19.6527171 6.72498438,19.4923301 6.80779657,19.3697917 C7.52224142,18.2640983 8.71908973,17.6008843 10,17.6008843 C11.2809103,17.6008843 12.4777586,18.2640983 13.1922034,19.3697917 L13.1922034,19.3697917 Z M19.7881418,19.7497833 C19.6371641,19.9122077 19.4284414,20.0026552 19.2112376,19.9997777 L15.4421299,19.9997777 C15.2782071,19.9975447 15.1327217,19.8900375 15.0767573,19.7297837 C14.3163614,17.4919793 12.2821191,15.9957709 10,15.9957709 C7.71788088,15.9957709 5.68363856,17.4919793 4.92324274,19.7297837 C4.86727834,19.8900375 4.72179291,19.9975447 4.55787006,19.9997777 L0.788762395,19.9997777 C0.571108643,20.0051107 0.361476241,19.9142691 0.21185816,19.7497833 C-0.0246198333,19.4938035 -0.0678836306,19.1052118 0.106092384,18.7998043 C0.134937596,18.7498054 3.07714919,13.2999259 3.07714919,7.20006078 C3.07967784,5.28267528 3.81646529,3.4453106 5.12460608,2.09421247 C6.43274686,0.74311433 8.20448154,-0.0104191778 10.0480754,0.000108854111 C13.8556433,0.0302193398 16.9132357,3.29014725 16.9228508,7.25005968 C16.942081,13.3299252 19.8650624,18.7498054 19.8939076,18.7998043 C20.0678836,19.1052118 20.0246198,19.4938035 19.7881418,19.7497833 L19.7881418,19.7497833 Z M6.15397177,8.40003425 C6.15397177,9.06276129 6.67054942,9.60000771 7.30778024,9.60000771 C7.94501106,9.60000771 8.46158871,9.06276129 8.46158871,8.40003425 C8.46158871,7.7373072 7.94501106,7.20006078 7.30778024,7.20006078 C6.67054942,7.20006078 6.15397177,7.7373072 6.15397177,8.40003425 L6.15397177,8.40003425 Z M13.7691077,11.6399626 C13.5724961,11.2489125 13.1135727,11.0898174 12.73068,11.2799706 L10,12.7099389 L7.26931996,11.2799706 C7.02199032,11.1513578 6.7274739,11.1697429 6.4967122,11.3282003 C6.2659505,11.4866578 6.13400171,11.7611142 6.15056965,12.0481844 C6.1671376,12.3352547 6.32970523,12.591326 6.57703488,12.7199387 L9.65385746,14.3199033 C9.87322351,14.4265676 10.1267765,14.4265676 10.3461425,14.3199033 L13.4229651,12.7199387 C13.7989708,12.5154605 13.9519453,12.0381752 13.7691077,11.6399626 Z M13.8460282,8.40003425 C13.8460282,7.7373072 13.3294506,7.20006078 12.6922198,7.20006078 C12.0549889,7.20006078 11.5384113,7.7373072 11.5384113,8.40003425 C11.5384113,9.06276129 12.0549889,9.60000771 12.6922198,9.60000771 C13.3294506,9.60000771 13.8460282,9.06276129 13.8460282,8.40003425 Z" id="Shape"></path>
                            </g>
                        </g>
                    </g>
                </g>
            </g>
        </g>
    </g>
</svg>