<?xml version="1.0" encoding="UTF-8"?>
<svg width="24px" height="24px" viewBox="0 0 24 24" version="1.1" xmlns="http://www.w3.org/2000/svg" xmlns:xlink="http://www.w3.org/1999/xlink">
    <title>policies_error_db@svg</title>
    <g id="policies_error_db" stroke="none" stroke-width="1" fill="none" fill-rule="evenodd">
        <path d="M12,0 C10.8171521,0 8.84058066,0.3975 6.98058066,0.84 C5.07772352,1.29 3.1594378,1.8225 2.0314378,2.145 C1.06904827,2.42309046 0.373561688,3.15871408 0.241723518,4.038 C-0.779990767,10.7535 1.59086638,15.7305 4.4674378,19.023 C5.68729294,20.4314401 7.14177124,21.6717484 8.78229495,22.7025 C9.44400923,23.112 10.0577235,23.4255 10.5788664,23.64 C11.0588664,23.838 11.5748664,24 12,24 C12.4251521,24 12.9394378,23.838 13.4211521,23.64 C14.04941,23.3728075 14.6504498,23.0591685 15.2177235,22.7025 C16.8582806,21.6717832 18.3127644,20.4314702 19.5325807,19.023 C22.4091521,15.7305 24.7800092,10.7535 23.7582949,4.038 C23.6266773,3.15829687 22.9312324,2.42213453 21.9685807,2.1435 C20.3311068,1.67371991 18.6809119,1.23859318 17.0194378,0.8385 C15.1594378,0.399 13.1828664,0 12,0 Z" id="Shape" fill="#ED474A"></path>
        <path d="M12,16 C11.024,16 10.2285714,15.1488927 10.2285714,14.1030717 C10.2285714,13.0560261 11.0228571,12.2036943 12,12.2036943 C12.9771429,12.2036943 13.7714286,13.0560261 13.7714286,14.1030717 C13.7714286,15.1488927 12.976,16 12,16 Z M13.8662857,6.90846005 C13.8537143,6.9464231 12.2651429,11.155424 12.2651429,11.155424 C12.2217143,11.2705378 12.1165714,11.3464639 12.0011429,11.3464639 C11.8857143,11.3464639 11.7805714,11.2705378 11.7371429,11.155424 L10.1474286,6.94519849 C10.0445714,6.65986325 10,6.40269415 10,6.14307582 C10,4.96132258 10.8971429,4 12,4 C13.1028571,4 14,4.96132258 14,6.14307582 C14,6.40269415 13.9554286,6.65986325 13.8662857,6.90846005 Z" id="Path-2" fill="#FFFFFF" fill-rule="nonzero"></path>
    </g>
</svg>