<?xml version="1.0" encoding="UTF-8"?>
<svg width="24px" height="24px" viewBox="0 0 24 24" version="1.1" xmlns="http://www.w3.org/2000/svg" xmlns:xlink="http://www.w3.org/1999/xlink">
    <title>policies_not_brick@svg</title>
    <g id="policies_not_brick" stroke="none" stroke-width="1" fill="none" fill-rule="evenodd">
        <path d="M12,0 C10.8171521,0 8.84058066,0.3975 6.98058066,0.84 C5.07772352,1.29 3.1594378,1.8225 2.0314378,2.145 C1.06904827,2.42309046 0.373561688,3.15871408 0.241723518,4.038 C-0.779990767,10.7535 1.59086638,15.7305 4.4674378,19.023 C5.68729294,20.4314401 7.14177124,21.6717484 8.78229495,22.7025 C9.44400923,23.112 10.0577235,23.4255 10.5788664,23.64 C11.0588664,23.838 11.5748664,24 12,24 C12.4251521,24 12.9394378,23.838 13.4211521,23.64 C14.04941,23.3728075 14.6504498,23.0591685 15.2177235,22.7025 C16.8582806,21.6717832 18.3127644,20.4314702 19.5325807,19.023 C22.4091521,15.7305 24.7800092,10.7535 23.7582949,4.038 C23.6266773,3.15829687 22.9312324,2.42213453 21.9685807,2.1435 C20.3311068,1.67371991 18.6809119,1.23859318 17.0194378,0.8385 C15.1594378,0.399 13.1828664,0 12,0 Z" id="Shape" fill="#95A3BF"></path>
        <path d="M7.65911424,4.1926742 C8.7031105,3.85711266 9.81650025,3.96979968 10.742194,4.45329669 C10.6577486,4.66304622 10.5458227,4.94286088 10.3729609,5.37501531 L10.2346355,5.72082876 C10.1845568,5.8460257 10.1303468,5.9815505 10.0715233,6.12860932 C9.69652331,7.06610932 9.50902331,7.53485932 9.38402331,7.84735932 L9.30003893,8.05732026 C9.24925768,8.18427339 9.20628893,8.29169526 9.15550768,8.41864839 L9.07152331,8.62860932 L9.03455478,8.73848822 C8.86321888,9.3626602 9.33183899,10 10,10 L13.461,10 L11.0156868,15.5064085 C9.26187073,14.4162161 5,11.3958191 5,7.75014442 C5,6.1360722 6.07111704,4.70308865 7.65911424,4.1926742 Z M15.1111111,4.00024155 C17.2588851,4.00024155 19,5.67913025 19,7.75014442 C19,9.66259488 17.8527778,11.6250441 15.5907407,13.5874932 C14.8666972,14.2151372 14.0973136,14.791583 13.2886363,15.3125739 L15.9138115,9.40613847 L15.9556847,9.29529221 C16.1531933,8.66438876 15.6834551,8 15,8 L11.476,8 L11.4909767,7.96514068 C11.5821225,7.73727609 11.6949697,7.45515804 11.8385606,7.0961809 L11.9284767,6.87139068 C12.3034767,5.93389068 12.4909767,5.46514068 12.6159767,5.15264068 L12.6999611,4.94267974 C12.7507423,4.81572661 12.7937111,4.70830474 12.8444923,4.58135161 L12.7760763,4.75141324 C13.4418889,4.26941849 14.2591991,4.00024155 15.1111111,4.00024155 Z" id="Path-2" fill="#FFFFFF" fill-rule="nonzero"></path>
    </g>
</svg>