<?xml version="1.0" encoding="UTF-8"?>
<svg width="24px" height="24px" viewBox="0 0 24 24" version="1.1" xmlns="http://www.w3.org/2000/svg" xmlns:xlink="http://www.w3.org/1999/xlink">
    <title>policies_cog@svg</title>
    <g id="policies_cog" stroke="none" stroke-width="1" fill="none" fill-rule="evenodd">
        <path d="M12,0 C10.8171521,0 8.84058066,0.3975 6.98058066,0.84 C5.07772352,1.29 3.1594378,1.8225 2.0314378,2.145 C1.06904827,2.42309046 0.373561688,3.15871408 0.241723518,4.038 C-0.779990767,10.7535 1.59086638,15.7305 4.4674378,19.023 C5.68729294,20.4314401 7.14177124,21.6717484 8.78229495,22.7025 C9.44400923,23.112 10.0577235,23.4255 10.5788664,23.64 C11.0588664,23.838 11.5748664,24 12,24 C12.4251521,24 12.9394378,23.838 13.4211521,23.64 C14.04941,23.3728075 14.6504498,23.0591685 15.2177235,22.7025 C16.8582806,21.6717832 18.3127644,20.4314702 19.5325807,19.023 C22.4091521,15.7305 24.7800092,10.7535 23.7582949,4.038 C23.6266773,3.15829687 22.9312324,2.42213453 21.9685807,2.1435 C20.3311068,1.67371991 18.6809119,1.23859318 17.0194378,0.8385 C15.1594378,0.399 13.1828664,0 12,0 Z" id="Shape" fill="#82B92E"></path>
        <path d="M18,11.78125 C18,11.6485937 17.923314,11.5203906 17.7978615,11.4514844 L16.6492968,10.8207812 C16.7013654,10.553125 16.7309358,10.2601563 16.7309358,10 C16.7309358,9.73984375 16.7003304,9.44570312 16.6486314,9.17921875 L17.7971961,8.54851563 C17.9226733,8.47958594 17.9993347,8.35138281 17.9993347,8.21875 C17.9993347,7.88828125 16.9648625,5.8975 16.4256951,5.8975 C16.3559088,5.8975 16.2855312,5.91452969 16.2224969,5.94913281 L15.0712216,6.58147656 C14.6338996,6.22609375 14.1287381,5.94765625 13.5767568,5.7615625 L13.5767568,4.49875 C13.5767568,4.32242969 13.4495547,4.1640625 13.2679923,4.12796875 C12.8572097,4.04633594 12.4358311,4 11.9996673,4 C11.5635035,4 11.1408928,4.04633594 10.731096,4.12799219 C10.5507164,4.16415625 10.4225778,4.3225 10.4225778,4.49875 L10.4225778,5.7615625 C9.87059652,5.94765625 9.36543504,6.22609375 8.92927123,6.58046875 L7.7767638,5.9490625 C7.71392664,5.914375 7.64345046,5.89726563 7.57371353,5.89726563 C7.08777283,5.89726563 6,7.81796875 6,8.21851563 C6,8.35117188 6.0767599,8.479375 6.20221244,8.54828125 L7.35077715,9.17898437 C7.29895497,9.446875 7.26839886,9.71875 7.26839886,10 C7.26839886,10.28125 7.29900426,10.5542969 7.35070322,10.8207812 L6.20213852,11.4514844 C6.07666133,11.5204141 6,11.6486172 6,11.78125 C6,12.1117188 7.03447214,14.1025 7.57363961,14.1025 C7.64342582,14.1025 7.71380343,14.0854703 7.77683773,14.0508672 L8.92811306,13.4185234 C9.36543504,13.7734375 9.87059652,14.0523437 10.4225778,14.2375 L10.4225778,15.5003125 C10.4225778,15.6766328 10.54978,15.835 10.7313424,15.8710938 C11.1421249,15.953125 11.5635035,16 11.9774895,16 C12.3914755,16 12.836264,15.9536641 13.2460609,15.8720078 C13.4486183,15.8148438 13.5767568,15.6765625 13.5767568,15.5007812 L13.5767568,14.2379688 C14.129231,14.0519219 14.6346389,13.7734375 15.0712955,13.4183594 L16.2225709,14.0507031 C16.2855805,14.0853203 16.3560321,14.1023359 16.425769,14.1023359 C16.9108226,14.1015625 18,12.1820313 18,11.78125 Z M11.9996673,11.875 C10.9127077,11.875 10.0283055,11.0338281 10.0283055,10 C10.0283055,8.96617188 10.9129541,8.125 11.9996673,8.125 C13.0863806,8.125 13.9710292,8.96617188 13.9710292,10 C13.9710292,11.0338281 13.0863806,11.875 11.9996673,11.875 Z" id="Shape" fill="#FFFFFF" fill-rule="nonzero"></path>
    </g>
</svg>