<?xml version="1.0" encoding="UTF-8"?>
<svg width="24px" height="24px" viewBox="0 0 24 24" version="1.1" xmlns="http://www.w3.org/2000/svg" xmlns:xlink="http://www.w3.org/1999/xlink">
    <title>policy@svg</title>
    <g id="policy" stroke="none" stroke-width="1" fill="none" fill-rule="evenodd">
        <path d="M12,0 C10.8171521,0 8.84058066,0.3975 6.98058066,0.84 C5.07772352,1.29 3.1594378,1.8225 2.0314378,2.145 C1.06904827,2.42309046 0.373561688,3.15871408 0.241723518,4.038 C-0.779990767,10.7535 1.59086638,15.7305 4.4674378,19.023 C5.68729294,20.4314401 7.14177124,21.6717484 8.78229495,22.7025 C9.44400923,23.112 10.0577235,23.4255 10.5788664,23.64 C11.0588664,23.838 11.5748664,24 12,24 C12.4251521,24 12.9394378,23.838 13.4211521,23.64 C14.04941,23.3728075 14.6504498,23.0591685 15.2177235,22.7025 C16.8582806,21.6717832 18.3127644,20.4314702 19.5325807,19.023 C22.4091521,15.7305 24.7800092,10.7535 23.7582949,4.038 C23.6266773,3.15829687 22.9312324,2.42213453 21.9685807,2.1435 C20.3311068,1.67371991 18.6809119,1.23859318 17.0194378,0.8385 C15.1594378,0.399 13.1828664,0 12,0 Z" id="Shape" fill="#3F3F3F"></path>
        <g id="Group" transform="translate(9, 4)" fill="#FFFFFF">
            <circle id="Oval" cx="3" cy="3" r="3"></circle>
        </g>
        <path d="M11,8 L9.27042899,15.7830695 C9.15062161,16.3222028 9.49055237,16.8563797 10.0296856,16.9761871 C10.1009105,16.9920148 10.1736537,17 10.2466161,17 L13.7533839,17 C14.3056687,17 14.7533839,16.5522847 14.7533839,16 C14.7533839,15.9270377 14.7453988,15.8542944 14.729571,15.7830695 L13,8 L13,8 L11,8 Z" id="Path-99" fill="#FFFFFF"></path>
    </g>
</svg>