<?xml version="1.0" encoding="UTF-8"?>
<svg width="24px" height="24px" viewBox="0 0 24 24" version="1.1" xmlns="http://www.w3.org/2000/svg" xmlns:xlink="http://www.w3.org/1999/xlink">
    <title>unlinkpolicy@svg</title>
    <g id="unlinkpolicy" stroke="none" stroke-width="1" fill="none" fill-rule="evenodd">
        <path d="M12,0 C10.8171521,0 8.84058066,0.3975 6.98058066,0.84 C5.07772352,1.29 3.1594378,1.8225 2.0314378,2.145 C1.06904827,2.42309046 0.373561688,3.15871408 0.241723518,4.038 C-0.779990767,10.7535 1.59086638,15.7305 4.4674378,19.023 C5.68729294,20.4314401 7.14177124,21.6717484 8.78229495,22.7025 C9.44400923,23.112 10.0577235,23.4255 10.5788664,23.64 C11.0588664,23.838 11.5748664,24 12,24 C12.4251521,24 12.9394378,23.838 13.4211521,23.64 C14.04941,23.3728075 14.6504498,23.0591685 15.2177235,22.7025 C16.8582806,21.6717832 18.3127644,20.4314702 19.5325807,19.023 C22.4091521,15.7305 24.7800092,10.7535 23.7582949,4.038 C23.6266773,3.15829687 22.9312324,2.42213453 21.9685807,2.1435 C20.3311068,1.67371991 18.6809119,1.23859318 17.0194378,0.8385 C15.1594378,0.399 13.1828664,0 12,0 Z" id="Shape" fill="#FCAB10"></path>
        <path d="M13.1269281,13.513449 C13.2367557,13.6232769 13.2367557,13.8013548 13.1269281,13.9112062 L12.0798863,14.9582515 C10.6909165,16.3472026 8.43084946,16.3472964 7.04176249,14.9582515 C5.65276927,13.5692301 5.65276927,11.3091319 7.04176249,9.92013391 L8.08882769,8.87306513 C8.19865528,8.76323716 8.37673254,8.76323716 8.48658356,8.87306513 L9.41465715,9.80114189 C9.52448474,9.91096986 9.52448474,10.0890477 9.41465715,10.1988991 L8.36759196,11.2459445 C7.70965767,11.9039044 7.70965767,12.9744576 8.36759196,13.6324175 C9.02552624,14.2903541 10.0960991,14.2903775 10.7540803,13.6324175 L11.8011221,12.5853722 C11.9109497,12.4755442 12.0890269,12.4755442 12.1988779,12.5853722 L13.1269281,13.513449 Z M11.8011221,7.41464539 C11.9109497,7.52447335 12.0890269,7.52447335 12.1988779,7.41464539 L13.2459197,6.36760005 C13.903854,5.7095932 14.9744269,5.70964007 15.632408,6.36760005 C16.2903423,7.02556002 16.2903423,8.09611314 15.632408,8.75407311 L14.5853428,9.80111846 C14.4755153,9.91094642 14.4755153,10.0890243 14.5853428,10.1988757 L15.5134164,11.1269525 C15.623244,11.2367804 15.8013213,11.2367804 15.9111723,11.1269525 L16.9582375,10.0798837 C18.3472542,8.69086227 18.3472542,6.43078745 16.9582375,5.04176605 C15.5691974,3.65276809 13.3091538,3.65276809 11.9201137,5.04176605 L10.8730719,6.08881139 C10.7632443,6.19863936 10.7632443,6.37671722 10.8730719,6.48656862 L11.8011221,7.41464539 Z M17.3048764,15.8352581 L17.8351942,15.3049385 C18.0548728,15.0852592 18.0548728,14.7291034 17.8351942,14.5094475 L7.49058842,4.16475952 C7.27090981,3.94508016 6.9147553,3.94508016 6.69510012,4.16475952 L6.16475896,4.6951025 C5.94508035,4.91478186 5.94508035,5.27093759 6.16475896,5.49059352 L16.5093881,15.8352581 C16.7290668,16.054914 17.0852213,16.054914 17.3048764,15.8352581 L17.3048764,15.8352581 Z" id="Shape" fill="#FFFFFF" fill-rule="nonzero"></path>
    </g>
</svg>