<?xml version="1.0" encoding="UTF-8"?>
<svg width="14px" height="14px" viewBox="0 0 14 14" version="1.1" xmlns="http://www.w3.org/2000/svg" xmlns:xlink="http://www.w3.org/1999/xlink">
    <title>53340FE7-114F-4C7F-9CFF-ABFBB58E7D97</title>
    <g id="Get-stuff" stroke="none" stroke-width="1" fill="none" fill-rule="evenodd">
        <g id="Mockup---Agent-downloads-marketing-screen" transform="translate(-472, -559)" fill="#95A3BF" fill-rule="nonzero">
            <g id="Group-10" transform="translate(430, 158)">
                <g id="ntent" transform="translate(21, 19)">
                    <g id="Pandora-FMS-ONe" transform="translate(0, 280)">
                        <g id="Line" transform="translate(21, 94)">
                            <g id="linux" transform="translate(0, 8)">
                                <path d="M9.23357034,13.5588542 C9.29153278,13.6446311 9.29856527,13.7569019 9.25179332,13.8497763 C9.20502137,13.9426506 9.11228332,14.000564 9.01148559,13.999851 L4.98704072,13.999851 C4.88624299,14.000564 4.79350495,13.9426506 4.746733,13.8497763 C4.69996104,13.7569019 4.70699354,13.6446311 4.76495597,13.5588542 C5.26501473,12.7848688 6.10272036,12.320619 6.99926316,12.320619 C7.89580596,12.320619 8.73351159,12.7848688 9.23357034,13.5588542 L9.23357034,13.5588542 Z M13.8502412,13.8248483 C13.7445679,13.9385454 13.5984774,14.0018586 13.4464508,13.9998444 L10.8083531,13.9998444 C10.6936192,13.9982813 10.5917901,13.9230263 10.5526192,13.8108486 C10.0203981,12.2443855 8.59657839,11.1970396 6.99926316,11.1970396 C5.40194793,11.1970396 3.9781282,12.2443855 3.44590715,13.8108486 C3.4067362,13.9230263 3.30490712,13.9982813 3.1901732,13.9998444 L0.552075557,13.9998444 C0.399733968,14.0035775 0.253006734,13.9399883 0.148285102,13.8248483 C-0.0172320693,13.6456625 -0.0475135395,13.3736483 0.0742568516,13.159863 C0.0944463744,13.1248638 2.1537777,9.30994812 2.1537777,5.04004255 C2.15554757,3.6978727 2.67124449,2.41171742 3.58684665,1.46594873 C4.50244881,0.520180031 5.74253254,-0.00729342447 7.03291236,7.61978777e-05 C9.69792937,0.0211535379 11.8380188,2.30310307 11.8447486,5.07504177 C11.8582083,9.33094766 13.9040799,13.1248638 13.9242695,13.159863 C14.0460399,13.3736483 14.0157584,13.6456625 13.8502412,13.8248483 L13.8502412,13.8248483 Z M4.30732679,5.88002397 C4.30732679,6.3439329 4.66889308,6.7200054 5.1149077,6.7200054 C5.56092232,6.7200054 5.92248861,6.3439329 5.92248861,5.88002397 C5.92248861,5.41611504 5.56092232,5.04004255 5.1149077,5.04004255 C4.66889308,5.04004255 4.30732679,5.41611504 4.30732679,5.88002397 L4.30732679,5.88002397 Z M9.6373608,8.14797382 C9.49974718,7.87423877 9.17853465,7.7628722 8.91053798,7.89597939 L6.99926316,8.89695726 L5.08798834,7.89597939 C4.91487581,7.80595044 4.70873602,7.81882 4.54721984,7.92974023 C4.38570365,8.04066045 4.29334922,8.23277993 4.30494556,8.43372909 C4.3165419,8.63467826 4.43032726,8.81392817 4.60343979,8.9039571 L6.75698888,10.0239323 C6.91052896,10.0985973 7.08799736,10.0985973 7.24153743,10.0239323 L9.39508653,8.9039571 C9.65826282,8.76082236 9.76533366,8.42672264 9.6373608,8.14797382 Z M9.69119953,5.88002397 C9.69119953,5.41611504 9.32963324,5.04004255 8.88361862,5.04004255 C8.43760399,5.04004255 8.07603771,5.41611504 8.07603771,5.88002397 C8.07603771,6.3439329 8.43760399,6.7200054 8.88361862,6.7200054 C9.32963324,6.7200054 9.69119953,6.3439329 9.69119953,5.88002397 Z" id="Shape"></path>
                            </g>
                        </g>
                    </g>
                </g>
            </g>
        </g>
    </g>
</svg>