<?xml version="1.0" encoding="UTF-8"?>
<svg width="12px" height="14px" viewBox="0 0 12 14" version="1.1" xmlns="http://www.w3.org/2000/svg" xmlns:xlink="http://www.w3.org/1999/xlink">
    <title>0147E3B3-0314-4653-9FF0-A04B666F4DDB</title>
    <g id="Get-stuff" stroke="none" stroke-width="1" fill="none" fill-rule="evenodd">
        <g id="Mockup---Agent-downloads-marketing-screen" transform="translate(-473, -649)" fill="#95A3BF">
            <g id="Group-10" transform="translate(430, 158)">
                <g id="ntent" transform="translate(21, 19)">
                    <g id="Pandora-FMS-ONe" transform="translate(0, 280)">
                        <g id="Line" transform="translate(22.1665, 184)">
                            <g id="mac" transform="translate(0, 8)">
                                <path d="M6.59060804,3.26483333 C6.3842866,3.32633333 6.09263654,3.37383333 5.71970531,3.4075 C5.73649236,2.57176667 5.95339694,1.8509 6.37367029,1.2459 C6.78621363,0.6448 7.48310833,0.229466667 8.4655487,0 C8.47165309,0.0160666667 8.47954897,0.0482333333 8.48711309,0.0929 C8.49474357,0.137566667 8.50234087,0.1682 8.5085116,0.185066667 C8.5085116,0.207266667 8.51000452,0.235633333 8.51305671,0.2693 C8.51461598,0.303266667 8.5161089,0.330833333 8.5161089,0.354033333 C8.5161089,0.6961 8.43505998,1.07696667 8.27326071,1.49763333 C8.10661775,1.9183 7.8467171,2.30526667 7.49531709,2.65856667 C7.19424504,2.9608 6.8916469,3.16346667 6.59060804,3.26483333 Z M10.3420155,9.1622 C9.95710771,8.60776667 9.76455431,7.98133333 9.76455431,7.286 C9.76455431,6.65193333 9.9449653,6.07143333 10.3085077,5.54486667 C10.5041133,5.2577 10.8219724,4.9276 11.2634784,4.55163333 C10.9731222,4.19223333 10.682965,3.91296667 10.3926088,3.71026667 C9.86690222,3.34626667 9.27245496,3.1635 8.60784049,3.1635 C8.21198467,3.1635 7.72900871,3.2587 7.16067095,3.44913333 C6.6137317,3.6411 6.21326441,3.7353 5.96258668,3.7353 C5.77305229,3.7353 5.38811136,3.65183333 4.80733261,3.4831 C4.22071488,3.31463333 3.72708943,3.23113333 3.3251624,3.23113333 C2.36402101,3.23113333 1.57240888,3.6347 0.945880445,4.44236667 C0.314806901,5.26076667 0,6.31093333 0,7.58826667 C0,8.9473 0.411083603,10.3566 1.23169154,11.8213 C2.06301531,13.2737667 2.90342931,14 3.75147378,14 C4.03575878,14 4.40543875,13.9047667 4.85639989,13.7143667 C5.30862171,13.5288 5.70593728,13.4363667 6.04662145,13.4363667 C6.40896953,13.4363667 6.83066945,13.5262 7.31036098,13.7051333 C7.81772129,13.8848667 8.20896565,13.9744667 8.48260116,13.9744667 C9.19777582,13.9744667 9.91421117,13.4251333 10.6354902,12.3257 C11.1032052,11.6247333 11.4469416,10.9240333 11.6654386,10.2230667 C11.1672017,10.0709667 10.7272218,9.7179 10.3420155,9.1622 Z" id="Shape"></path>
                            </g>
                        </g>
                    </g>
                </g>
            </g>
        </g>
    </g>
</svg>