<?xml version="1.0" encoding="UTF-8"?>
<svg width="520px" height="520px" viewBox="0 0 520 520" version="1.1"
    xmlns="http://www.w3.org/2000/svg" xmlns:xlink="http://www.w3.org/1999/xlink">
    <title>Pandora RC favicon</title>
    <g id="Pandora-RC-favicon" stroke="none" stroke-width="1" fill="none" fill-rule="evenodd">
        <path
            d="M260.518135,0.000529655619 C116.913524,-0.295523948 0.297717119,115.844225 0.000529672206,259.445175 C-0.295523914,403.060772 115.840563,519.705875 259.445175,519.9994 C403.05711,520.295454 519.680241,404.133733 519.973767,260.518135 C520.26982,116.917186 404.130071,0.297717084 260.518135,0.000529655619"
            id="Fill-3" fill="#22CC9D"></path>
        <path
            d="M373.362101,137.724566 C377.650282,140.174431 382.275364,144.08909 385.838473,147.007689 C397.670335,156.510532 407.759095,169.887751 416.405034,182.287221 C428.77887,200.186987 439.204532,220.88817 442.983697,244.167387 C452.175271,301.649514 428.540841,343.670753 398.281886,369.333921 C382.777056,382.535365 362.350522,393.843565 340.35666,399.695411 C315.740819,406.250358 288.092858,408.019096 261.755885,404.466973 C212.154343,397.835125 167.624646,366.440956 137.673298,337.013271 C141.108237,328.923953 142.133592,325.968734 145.656418,318.011248 C151.541223,324.148729 161.992518,332.344244 166.643235,335.566788 C198.817406,358.044032 240.867942,377.430563 296.628937,374.32154 C324.866478,372.834776 351.078942,363.093904 369.685471,348.218935 C387.731717,333.841995 402.841054,313.170108 402.562743,284.353974 C402.273446,253.864315 387.365519,228.959177 371.077024,212.267865 C365.496164,206.525877 359.461219,200.384734 353.364019,195.858525 C343.718359,188.699351 332.988753,183.144124 322.200555,177.892843 C311.225596,172.465786 299.950354,167.035067 286.862432,164.178721 C308.490095,150.497558 366.499547,133.795259 373.362101,137.724566 Z M351.115562,83.6334342 C370.802376,85.9478066 390.39764,91.6495121 403.452604,101.844469 C407.894588,105.257436 413.208124,108.992657 416.042497,113.075767 C417.686727,115.441407 419.993776,120.886774 418.675462,124.11298 C417.038557,128.0313 411.051216,128.40116 406.089231,128.298625 C389.152566,127.914117 373.666045,126.105098 357.286001,128.045948 C334.065376,130.843702 314.832648,137.314424 298.240209,144.231907 C263.195044,158.737017 233.071583,182.701025 209.305322,206.903062 C185.344975,231.23693 163.193648,261.909688 145.546559,293.417379 C125.900027,328.495501 111.058015,365.496164 98.7903764,404.353452 C70.882414,367.759269 53.6381423,322.563091 52.3125049,273.078733 L52.3125049,273.009155 C78.8728581,231.368761 109.519983,193.701618 145.872475,161.732518 C170.935078,139.628796 200.454312,119.941983 233.12285,105.663916 C238.604837,103.23236 243.922034,100.167282 249.843459,98.274037 C255.698968,96.3551586 261.810815,94.4509281 268.058156,92.3928944 C291.9416,84.5745635 324.785914,80.678215 351.115562,83.6334342 Z"
            id="Path-2" fill="#181818"></path>
    </g>
</svg>